<ttFont>
          <CharString index="0">
            rmoveto
            152 -20 -56 callsubr
            -93 hlineto
            -31 -29 35 38 -85 callsubr
            hvcurveto
            42 vmoveto
            -125 -83 -26 -144 -75 44 -45 58 hvcurveto
            93 -74 callsubr
            -49 -8 callgsubr
            314 vlineto
            -58 callgsubr
            -155 hlineto
            -82 -70 -30 -77 -20 -70 callgsubr
            20 50 54 15 63 hvcurveto
            141 -53 callsubr
            vlineto
            endchar
          </CharString>
          <CharString index="1">
            rmoveto
            -68 callsubr
            -124 vhcurveto
            -29 hlineto
            -125 -83 -24 -151 hvcurveto
            -26 callgsubr
            -151 83 -24 15 callsubr
            -24 callsubr
            -15 -14 -7 -9 -19 -48 -14 -19 -46 hvcurveto
            -134 hlineto
            -95 callgsubr
            75 402 vlineto
            -207 169 rmoveto
            109 56 -11 -116 hvcurveto
            -360 hlineto
            116 56 11 110 vhcurveto
            endchar
          </CharString>
          <CharString index="2">
            -1 3 4 -1 3 hhcurveto
            7 5 3 4 4 hvcurveto
            47 39 rlineto
            9 8 3 8 7 vvcurveto
            11 -11 7 -10 -7 -5 -3 -5 -7 vhcurveto
            -31 -28 rlineto
            -3 -4 -3 -2 -4 hhcurveto
            -2 -3 1 1 -2 hvcurveto
            return
          </CharString>
          <CharString index="3">
            13 -12 8 -8 -6 -7 -4 -9 -8 vhcurveto
            -96 -115 rlineto
            -6 -7 -2 -6 -7 vvcurveto
            -12 12 -8 8 6 7 4 9 8 vhcurveto
            96 115 rlineto
            6 7 2 6 6 vvcurveto
            return
          </CharString>
          <CharString index="4">
            7 -8 13 -12 -6 -8 -3 -8 -7 vhcurveto
            -69 -69 rlineto
            -8 -8 -4 -6 -8 vvcurveto
            -7 9 -12 12 6 7 3 8 7 vhcurveto
            70 69 rlineto
            7 8 4 -5 callsubr
            return
          </CharString>
          <CharString index="5">
            -29 hlineto
            -95 callgsubr
            263 vlineto
            20 -6 10 -16 -15 -5 -14 callgsubr
            -263 -78 callsubr
            -48 vlineto
            -21 7 -10 16 14 5 10 21 vhcurveto
            return
          </CharString>
          <CharString index="6">
            rmoveto
            -11 -8 -8 -15 -4 hvcurveto
            -44 -165 rlineto
            -1 -4 -1 -4 -3 vvcurveto
            -16 14 -5 9 9 7 7 14 4 vhcurveto
            45 165 rlineto
            1 4 0 5 3 vvcurveto
            14 -7 8 -13 vhcurveto
            return
          </CharString>
          <CharString index="7">
            rmoveto
            102 107 rlineto
            4 4 2 2 6 vvcurveto
            6 -3 9 -15 -6 -5 -1 -15 -18 vhcurveto
            -87 -72 -87 72 rlineto
            15 -18 -5 1 -6 hhcurveto
            -15 -3 -9 -6 -6 2 -2 4 -4 hvcurveto
            102 -107 rlineto
            return
          </CharString>
          <CharString index="8">
            657 rmoveto
            -104 callsubr
            return
          </CharString>
          <CharString index="9">
            rmoveto
            -290 vlineto
            -18 7 -9 13 14 7 9 18 vhcurveto
            290 vlineto
            205 294 rlineto
            4 6 3 -5 callsubr
            12 -12 8 -8 -7 -7 -6 -10 -8 vhcurveto
            -191 -273 -192 273 rlineto
            10 -7 -7 6 -7 hhcurveto
            -8 -12 -8 -12 -7 3 -6 4 -6 hvcurveto
            endchar
          </CharString>
          <CharString index="10">
            hlineto
            93 30 49 74 71 -28 63 -95 hvcurveto
            -217 hlineto
            -36 -28 30 56 46 18 30 46 hvcurveto
            236 hlineto
            46 14 -20 -47 -19 7 -9 14 15 6 10 20 50 -8 57 -87 hvcurveto
            -225 hlineto
            -93 -31 -44 -74 -71 29 -57 95 hvcurveto
            216 hlineto
            37 27 -36 -56 -46 -18 -35 -46 hvcurveto
            -238 hlineto
            -46 -14 19 48 -66 callgsubr
            -21 -50 8 -56 87 hvcurveto
            return
          </CharString>
          <CharString index="11">
            rmoveto
            9 11 5 12 5 hvcurveto
            72 172 rlineto
            266 hlineto
            72 -172 rlineto
            -11 5 11 -6 9 hhcurveto
            6 15 3 14 4 -1 4 -2 4 hvcurveto
            -225 530 rlineto
            -46 hlineto
            -225 -530 rlineto
            -2 -4 -1 -4 -4 vvcurveto
            -14 15 -3 6 vhcurveto
            115 231 rmoveto
            114 273 116 -273 rlineto
            endchar
          </CharString>
          <CharString index="12">
            vlineto
            -122 -68 -72 -112 -112 -68 72 122 vhcurveto
            return
          </CharString>
          <CharString index="13">
            vlineto
            -18 7 -9 13 15 7 9 18 vhcurveto
            return
          </CharString>
          <CharString index="14">
            rmoveto
            -43 hlineto
            -45 -27 -32 -45 -45 -27 32 45 vhcurveto
            -43 hlineto
            -64 52 -57 63 63 52 57 64 vhcurveto
            return
          </CharString>
          <CharString index="15">
            -91 callsubr
            vhcurveto
            return
          </CharString>
          <CharString index="16">
            -95 callgsubr
            111 vlineto
            -85 callsubr
            return
          </CharString>
          <CharString index="17">
            rmoveto
            7 -2 -6 10 -13 hhcurveto
            -16 -6 -11 -6 -1 hvcurveto
            -144 -404 rlineto
            -6 hlineto
            -139 403 rlineto
            14 -5 -5 5 -7 hhcurveto
            -8 -19 -8 -11 -4 0 -4 3 -2 hvcurveto
            145 -439 rlineto
            71 hlineto
            136 384 126 -384 rlineto
            71 hlineto
            155 439 rlineto
            3 3 0 3 5 vvcurveto
            11 -19 7 -8 -7 -5 -4 -14 -5 vhcurveto
            -145 -404 rlineto
            -6 hlineto
            endchar
          </CharString>
          <CharString index="18">
            hlineto
            111 54 -18 callsubr
            hvcurveto
            return
          </CharString>
          <CharString index="19">
            rmoveto
            -7 4 -8 9 -7 vhcurveto
            17 -14 8 -12 -13 vvcurveto
            return
          </CharString>
          <CharString index="20">
            -151 83 -24 125 return
          </CharString>
          <CharString index="21">
            207 -75 -107 callgsubr
            return
          </CharString>
          <CharString index="22">
            122 54 11 112 return
          </CharString>
          <CharString index="23">
            -122 -54 -11 -111 vhcurveto
            return
          </CharString>
          <CharString index="24">
            rmoveto
            299 360 -299 -77 callsubr
            589 vlineto
            -72 callsubr
            -248 -360 248 -81 callsubr
            -81 callgsubr
            endchar
          </CharString>
          <CharString index="25">
            hstem
            481 643 rmoveto
            -7 -7 -6 -10 -7 hvcurveto
            -192 -273 -191 273 rlineto
            10 -7 -7 6 -8 hhcurveto
            -8 -12 -8 -12 -7 2 -6 5 -6 hvcurveto
            201 -287 -201 -285 rlineto
            -5 -8 -2 -7 -5 vvcurveto
            -12 12 -7 8 8 7 5 9 7 vhcurveto
            191 274 192 -274 rlineto
            -9 7 7 -5 7 hhcurveto
            9 12 7 12 5 -2 7 -5 8 hvcurveto
            -201 285 201 287 rlineto
            5 6 2 -5 callsubr
            12 -12 8 -9 vhcurveto
            endchar
          </CharString>
          <CharString index="26">
            vlineto
            -24 callsubr
            -17 -14 -5 -10 -21 vhcurveto
            return
          </CharString>
          <CharString index="27">
            -357 542 rlineto
            12 -8 -7 5 -11 hhcurveto
            -16 -3 -14 -17 hvcurveto
            -81 callgsubr
            534 vlineto
            return
          </CharString>
          <CharString index="28">
            rmoveto
            -153 215 153 hlineto
            111 54 -15 -93 -92 -54 -15 -111 hvcurveto
            return
          </CharString>
          <CharString index="29">
            vlineto
            -92 callgsubr
            29 -74 callsubr
            return
          </CharString>
          <CharString index="30">
            vlineto
            -20 7 -10 15 15 5 -13 callsubr
            return
          </CharString>
          <CharString index="31">
            vlineto
            20 -5 10 -16 -60 callgsubr
            vhcurveto
            return
          </CharString>
          <CharString index="32">
            13 rmoveto
            6 -3 7 -7 7 vhcurveto
            -272 324 206 246 rlineto
            6 7 3 7 7 vvcurveto
            11 -12 8 -8 -8 -6 -4 -9 -7 vhcurveto
            -260 -309 rlineto
            294 -99 callgsubr
            -595 -94 callsubr
            235 vlineto
            58 70 268 -319 rlineto
            -9 7 7 -4 7 hhcurveto
            8 13 8 12 hvcurveto
            endchar
          </CharString>
          <CharString index="33">
            hlineto
            65 63 23 49 37 hvcurveto
            return
          </CharString>
          <CharString index="34">
            20 10 6 14 17 -10 5 -20 -30 callsubr
            return
          </CharString>
          <CharString index="35">
            -24 callsubr
            -16 -14 -6 -10 -21 vhcurveto
            return
          </CharString>
          <CharString index="36">
            vlineto
            -151 96 -85 126 return
          </CharString>
          <CharString index="37">
            112 68 -73 -121 hvcurveto
            return
          </CharString>
          <CharString index="38">
            vlineto
            52 callgsubr
            return
          </CharString>
          <CharString index="39">
            151 -83 24 return
          </CharString>
          <CharString index="40">
            -1 0 -61 callsubr
            return
          </CharString>
          <CharString index="41">
            -158 155 158 153 rlineto
            11 12 2 9 7 vvcurveto
            8 -6 6 -9 -5 -9 1 -6 -6 vhcurveto
            -182 -169 rlineto
            -10 -9 -6 -5 -7 vvcurveto
            -9 8 -7 8 -7 vhcurveto
            182 -169 rlineto
            -6 6 9 0 5 hhcurveto
            9 6 6 9 8 -2 9 -11 11 hvcurveto
            return
          </CharString>
          <CharString index="42">
            111 vlineto
            57 callsubr
            return
          </CharString>
          <CharString index="43">
            -19 -9 -7 -14 -14 9 -7 19 hvcurveto
            return
          </CharString>
          <CharString index="44">
            -83 vlineto
            -113 44 -11 58 20 11 5 16 15 -11 6 -20 -46 -14 19 46 vhcurveto
            93 vlineto
            53 -25 30 -33 18 vhcurveto
            34 17 24 31 57 vvcurveto
            93 vlineto
            -23 callgsubr
            20 11 6 15 16 -11 5 -20 -58 -44 -11 -113 vhcurveto
            -83 vlineto
            -46 -51 -29 -79 vhcurveto
            return
          </CharString>
          <CharString index="45">
            42 245 42 hstemhm
            74 42 217 42 101 -31 callgsubr
            hintmask 10111110
            116 23 rmoveto
            109 vlineto
            214 287 rlineto
            86 hlineto
            -51 callgsubr
            hvcurveto
            -180 -53 vlineto
            -51 -39 -41 -45 -59 32 -41 58 74 21 30 94 hvcurveto
            225 vlineto
            -58 callgsubr
            -108 hlineto
            -199 -265 rlineto
            242 -76 callsubr
            -415 vlineto
            hintmask 01111110
            -20 -70 callgsubr
            20 vhcurveto
            360 109 rmoveto
            -38 vlineto
            hintmask 10111110
            -46 -18 -18 -35 -27 -21 21 37 20 22 24 26 vhcurveto
            endchar
          </CharString>
          <CharString index="46">
            42 206 -5 callgsubr
            return
          </CharString>
          <CharString index="47">
            437 vlineto
            21 -5 10 -15 -16 -6 -10 -21 vhcurveto
            -437 vlineto
            -122 -54 -11 -112 -20 -11 -5 -15 -16 11 -6 20 125 83 21 154 vhcurveto
            endchar
          </CharString>
          <CharString index="48">
            -182 -71 callsubr
            return
          </CharString>
          <CharString index="49">
            769 -104 callgsubr
            hintmask 0010010000000000
            -114 -84 -107 callgsubr
            hintmask 1100100001000000
            return
          </CharString>
          <CharString index="50">
            -141 hlineto
            -125 -83 -24 -151 hvcurveto
            return
          </CharString>
          <CharString index="51">
            hlineto
            -82 callgsubr
            return
          </CharString>
          <CharString index="52">
            724 -53 callgsubr
            return
          </CharString>
          <CharString index="53">
            -4 callgsubr
            573 hlineto
            19 -7 9 -14 -87 callgsubr
            -584 -69 callsubr
            endchar
          </CharString>
          <CharString index="54">
            hlineto
            -51 callgsubr
            hvcurveto
            -64 return
          </CharString>
          <CharString index="55">
            -7 -29 callsubr
            return
          </CharString>
          <CharString index="56">
            -134 hlineto
            -95 callgsubr
            286 -6 callsubr
            return
          </CharString>
          <CharString index="57">
            558 rmoveto
            -105 callgsubr
            return
          </CharString>
          <CharString index="58">
            rmoveto
            70 117 -33 -70 -100 44 -14 58 20 11 5 16 15 -11 6 -20 -46 -14 19 46 hvcurveto
            20 vlineto
            53 -88 51 -35 5 vhcurveto
            35 5 88 51 57 vvcurveto
            20 vlineto
            -23 callgsubr
            20 11 6 15 16 -11 5 -20 -58 -44 -14 -100 -75 -117 -28 -70 vhcurveto
            -69 188 hlineto
            19 -7 9 -14 -87 callgsubr
            -420 -94 callsubr
            190 vlineto
            endchar
          </CharString>
          <CharString index="59">
            hstem
            74 42 vstem
            408 14 rmoveto
            7 -4 6 -8 7 vhcurveto
            -236 198 235 197 rlineto
            9 88 callsubr
            vvcurveto
            8 -8 13 -11 -6 -7 -3 -7 -8 vhcurveto
            -252 -211 rlineto
            190 -99 callgsubr
            -420 -94 callsubr
            194 vlineto
            253 -212 rlineto
            -6 7 7 -3 6 hhcurveto
            11 8 12 9 hvcurveto
            endchar
          </CharString>
          <CharString index="60">
            617 rmoveto
            -12 4 -3 5 -5 vhcurveto
            241 -279 -241 -278 rlineto
            -8 -10 -1 -2 -8 vvcurveto
            -12 10 -8 10 vhcurveto
            436 1 callsubr
            -390 hlineto
            224 257 rlineto
            6 7 3 5 7 vvcurveto
            7 -6 7 -4 5 vhcurveto
            -223 258 rlineto
            390 1 callsubr
            -430 hlineto
            -23 -3 -13 -7 hvcurveto
            endchar
          </CharString>
          <CharString index="61">
            rmoveto
            -235 vlineto
            -15 6 -7 11 11 6 7 15 vhcurveto
            271 vlineto
            16 -13 3 -5 -7 -5 -3 -7 -7 vhcurveto
            -49 -50 rlineto
            -8 -7 -2 -6 -5 vvcurveto
            -7 5 -7 10 5 8 2 8 7 vhcurveto
            return
          </CharString>
          <CharString index="62">
            -32 callgsubr
            hvcurveto
            return
          </CharString>
          <CharString index="63">
            14 rmoveto
            6 -3 8 -7 7 vhcurveto
            -232 231 159 159 rlineto
            7 7 4 7 6 vvcurveto
            13 -12 8 -8 62 callsubr
            vhcurveto
            -192 -193 rlineto
            353 -99 callgsubr
            -595 -94 callsubr
            183 vlineto
            34 34 231 -232 rlineto
            -7 7 8 -4 6 hhcurveto
            12 7 12 8 hvcurveto
            endchar
          </CharString>
          <CharString index="64">
            rmoveto
            -46 hlineto
            -346 -407 rlineto
            383 vlineto
            -72 callsubr
            -437 49 vlineto
            343 403 rlineto
            -379 vlineto
            -21 6 -10 16 14 6 10 21 vhcurveto
            endchar
          </CharString>
          <CharString index="65">
            -69 callsubr
            396 hlineto
            20 9 4 15 17 -9 5 callgsubr
            -373 hlineto
            endchar
          </CharString>
          <CharString index="66">
            rmoveto
            -45 -14 4 49 hvcurveto
            44 vlineto
            49 14 4 45 vhcurveto
            9 hlineto
            45 15 -4 -49 hvcurveto
            -44 vlineto
            -49 -15 -4 -45 vhcurveto
            -31 vmoveto
            68 23 16 68 hvcurveto
            44 vlineto
            67 -23 17 -68 vhcurveto
            -9 hlineto
            -67 -23 -17 -67 hvcurveto
            -44 vlineto
            -68 23 -16 67 vhcurveto
            -94 -85 rmoveto
            196 hlineto
            15 8 7 9 11 -8 8 -15 hvcurveto
            -196 hlineto
            -14 -7 -8 -9 -11 7 -7 14 hvcurveto
            return
          </CharString>
          <CharString index="67">
            154 vlineto
            -72 callgsubr
            return
          </CharString>
          <CharString index="68">
            42 295 -15 callsubr
            return
          </CharString>
          <CharString index="69">
            42 rmoveto
            -106 -60 66 120 hvcurveto
            210 vlineto
            20 -6 10 -16 -15 -5 -14 callgsubr
            -610 vlineto
            -21 -10 callgsubr
            17 6 10 21 vhcurveto
            244 vlineto
            -49 38 62 -23 66 hhcurveto
            65 63 23 49 38 hvcurveto
            -48 vlineto
            -21 6 -10 16 15 5 10 21 vhcurveto
            414 vlineto
            20 -6 10 -16 -15 -5 -14 callgsubr
            -210 vlineto
            -120 -61 -66 -105 vhcurveto
            endchar
          </CharString>
          <CharString index="70">
            -92 21 -32 -20 callgsubr
            32 92 hvcurveto
            return
          </CharString>
          <CharString index="71">
            vlineto
            -23 callgsubr
            vhcurveto
            return
          </CharString>
          <CharString index="72">
            -21 31 -74 vhcurveto
            return
          </CharString>
          <CharString index="73">
            vvcurveto
            -60 39 -39 52 20 54 9 36 vhcurveto
            return
          </CharString>
          <CharString index="74">
            388 vlineto
            19 -7 9 return
          </CharString>
          <CharString index="75">
            rmoveto
            -351 hlineto
            -64 callsubr
            155 return
          </CharString>
          <CharString index="76">
            31 -28 callsubr
            return
          </CharString>
          <CharString index="77">
            -12 callsubr
            hvcurveto
            return
          </CharString>
          <CharString index="78">
            21 609 20 return
          </CharString>
          <CharString index="79">
            0 84 callgsubr
            return
          </CharString>
          <CharString index="80">
            52 callgsubr
            218 hlineto
            -45 callsubr
            return
          </CharString>
          <CharString index="81">
            vlineto
            -24 callgsubr
            return
          </CharString>
          <CharString index="82">
            -10 15 16 return
          </CharString>
          <CharString index="83">
            21 -6 10 return
          </CharString>
          <CharString index="84">
            -4 vvcurveto
            -12 return
          </CharString>
          <CharString index="85">
            93 -74 45 -230 -13 vvcurveto
            -13 7 -14 13 14 8 12 15 13 -57 249 -74 58 vhcurveto
            return
          </CharString>
          <CharString index="86">
            93 -21 31 2 callsubr
            -31 -93 return
          </CharString>
          <CharString index="87">
            rmoveto
            78 -51 7 -69 vhcurveto
            -30 hlineto
            -39 -36 -27 -37 -10 10 -8 8 9 9 8 10 21 17 10 26 hvcurveto
            26 hlineto
            61 26 -2 -50 hvcurveto
            -62 -192 -11 -126 vvcurveto
            -22 203 vlineto
            11 11 10 6 8 -11 9 -11 hvcurveto
            -166 hlineto
            85 188 20 83 vvcurveto
            return
          </CharString>
          <CharString index="88">
            39 -9 42 570 70 callgsubr
            return
          </CharString>
          <CharString index="89">
            -11 -122 return
          </CharString>
          <CharString index="90">
            -9 42 570 42 return
          </CharString>
          <CharString index="91">
            rmoveto
            255 hlineto
            20 10 4 15 17 -10 5 callgsubr
            -255 return
          </CharString>
          <CharString index="92">
            42 215 42 return
          </CharString>
          <CharString index="93">
            632 -107 callgsubr
            endchar
          </CharString>
          <CharString index="94">
            10 20 vhcurveto
            return
          </CharString>
          <CharString index="95">
            -46 -14 18 46 return
          </CharString>
          <CharString index="96">
            79 callsubr
            377 42 return
          </CharString>
          <CharString index="97">
            27 callgsubr
            123 hmoveto
            26 callgsubr
          </CharString>
          <CharString index="98">
            54 79 callsubr
            406 20 return
          </CharString>
          <CharString index="99">
            vlineto
            -20 6 -10 14 52 callsubr
            return
          </CharString>
          <CharString index="100">
            rmoveto
            -40 -12 -68 callgsubr
            -50 8 -57 87 35 30 18 28 12 hvcurveto
            249 567 rlineto
            2 4 1 2 5 vvcurveto
            11 -9 7 -10 -9 -8 -4 -14 -6 vhcurveto
            -183 -412 rlineto
            return
          </CharString>
          <CharString index="101">
            vlineto
            57 callsubr
            134 hlineto
            46 14 return
          </CharString>
          <CharString index="102">
            6 7 vvcurveto
            return
          </CharString>
          <CharString index="103">
            vlineto
            4 callsubr
            return
          </CharString>
          <CharString index="104">
            42 208 42 return
          </CharString>
          <CharString index="105">
            -262 46 callsubr
            -406 vlineto
            -46 -14 -18 -46 -20 -11 -6 -14 -17 11 -5 20 59 43 12 112 vhcurveto
            405 -36 callsubr
            213 -570 hlineto
            -20 return
          </CharString>
          <CharString index="106">
            -5 -4 vvcurveto
            return
          </CharString>
          <CharString index="107">
            76 26 12 21 vvcurveto
            10 -9 2 -7 -18 -49 -58 -63 -15 11 -5 16 14 16 6 14 vhcurveto
            return
          </CharString>
          <CharString index="108">
            hlineto
            19 10 7 12 15 74 callsubr
            return
          </CharString>
          <CharString index="109">
            -74 vhcurveto
            -254 hlineto
            -74 -21 return
          </CharString>
          <CharString index="110">
            -350 hlineto
            -64 callsubr
            155 -571 hlineto
            -20 6 -25 callsubr
            5 -13 callsubr
            209 vlineto
            121 60 66 106 111 54 -18 callsubr
            vhcurveto
            return
          </CharString>
          <CharString index="111">
            -82 callgsubr
            -29 hlineto
            -95 callgsubr
            return
          </CharString>
          <CharString index="112">
            rmoveto
            9 7 7 13 4 hvcurveto
            24 86 rlineto
            2 6 1 5 4 vvcurveto
            16 -9 4 -8 -9 -5 -7 -14 -6 vhcurveto
            -42 -83 rlineto
            -3 -6 -1 -7 -4 vvcurveto
            -15 28 -5 8 vhcurveto
            return
          </CharString>
          <CharString index="113">
            69 87 42 174 31 56 31 85 42 hstem
            80 42 81 31 140 31 77 42 vstem
            301 334 rmoveto
            -67 56 67 hlineto
            49 24 -3 -26 -24 -24 -3 -49 hvcurveto
            return
          </CharString>
          <CharString index="114">
            565 rmoveto
            -105 callgsubr
            return
          </CharString>
          <CharString index="115">
            -177 411 rlineto
            14 -6 -7 5 -10 hhcurveto
            -10 -9 -8 -11 -4 0 -4 3 -2 hvcurveto
            190 -459 -36 -81 rlineto
            -19 -9 -17 -12 -17 hhcurveto
            endchar
          </CharString>
          <CharString index="116">
            143 vlineto
            -41 callgsubr
            return
          </CharString>
          <CharString index="117">
            58 vlineto
            18 9 8 13 14 -9 7 -18 hvcurveto
            -58 89 hlineto
            19 -7 9 -13 -87 callgsubr
            -89 -58 vlineto
            -18 -9 -7 -13 -14 9 -8 18 hvcurveto
            return
          </CharString>
          <CharString index="118">
            42 128 -27 callgsubr
            109 42 return
          </CharString>
          <CharString index="119">
            -93 21 -31 16 callgsubr
            return
          </CharString>
          <CharString index="120">
            20 11 5 14 17 -11 6 -20 return
          </CharString>
          <CharString index="121">
            195 -89 callsubr
            return
          </CharString>
          <CharString index="122">
            125 vhcurveto
            141 hlineto
            87 8 56 50 return
          </CharString>
          <CharString index="123">
            42 134 88 callgsubr
            return
          </CharString>
          <CharString index="124">
            hlineto
            68 callsubr
            -48 -19 7 -9 14 15 6 10 21 50 87 callsubr
            endchar
          </CharString>
          <CharString index="125">
            -75 hvcurveto
            -183 hlineto
            -30 callsubr
            18 vlineto
            19 -6 11 -16 -14 -6 -11 -19 -24 callgsubr
            197 hlineto
            return
          </CharString>
          <CharString index="126">
            42 62 92 54 92 60 42 vstem
            return
          </CharString>
          <CharString index="127">
            -84 callsubr
            -195 return
          </CharString>
          <CharString index="128">
            42 173 42 162 42 return
          </CharString>
          <CharString index="129">
            0 32 callgsubr
            return
          </CharString>
          <CharString index="130">
            hlineto
            20 -6 10 -15 -16 38 callgsubr
            return
          </CharString>
          <CharString index="131">
            149 vlineto
            19 -7 9 -13 -87 callgsubr
            -149 vlineto
            -19 7 -9 13 14 7 9 19 vhcurveto
            endchar
          </CharString>
          <CharString index="132">
            hlineto
            27 callsubr
            return
          </CharString>
          <CharString index="133">
            hlineto
            -18 7 -9 13 14 return
          </CharString>
          <CharString index="134">
            -23 callgsubr
            vhcurveto
            -28 callgsubr
            return
          </CharString>
          <CharString index="135">
            rmoveto
            -78 callgsubr
            hvcurveto
            return
          </CharString>
          <CharString index="136">
            vmoveto
            -70 callsubr
            return
          </CharString>
          <CharString index="137">
            42 44 273 43 42 vstem
            return
          </CharString>
          <CharString index="138">
            rlineto
            -5 4 4 -1 4 hhcurveto
            return
          </CharString>
          <CharString index="139">
            vlineto
            -122 -7 -11 -91 -21 79 callgsubr
            21 97 43 19 130 vhcurveto
            endchar
          </CharString>
          <CharString index="140">
            rlineto
            47 -19 -45 28 -46 hhcurveto
            -19 -10 -8 -15 -12 10 -8 19 31 33 -24 -38 16 hvcurveto
            return
          </CharString>
          <CharString index="141">
            35 callsubr
            -7 168 hstemhm
            77 42 return
          </CharString>
          <CharString index="142">
            63 -9 95 callgsubr
            return
          </CharString>
          <CharString index="143">
            53 0 33 callgsubr
            return
          </CharString>
          <CharString index="144">
            -47 19 45 -28 46 hhcurveto
            19 10 8 15 12 -10 8 -19 -31 -33 24 38 -16 hvcurveto
            return
          </CharString>
          <CharString index="145">
            42 hintmask 0000000000000000
            return
          </CharString>
          <CharString index="146">
            -6 callgsubr
            -29 hlineto
            return
          </CharString>
          <CharString index="147">
            125 -59 callgsubr
            hvcurveto
            return
          </CharString>
          <CharString index="148">
            42 552 42 return
          </CharString>
          <CharString index="149">
            hlineto
            46 14 -20 -47 -19 7 -9 14 15 6 10 20 51 87 callsubr
            return
          </CharString>
          <CharString index="150">
            93 0 42 283 41 82 20 return
          </CharString>
          <CharString index="151">
            35 -8 42 568 42 return
          </CharString>
          <CharString index="152">
            39 -17 callsubr
            return
          </CharString>
          <CharString index="153">
            vlineto
            -3 callgsubr
            return
          </CharString>
          <CharString index="154">
            rlineto
            -8 7 7 -4 6 hhcurveto
            9 12 12 9 6 -4 7 -8 7 hvcurveto
            return
          </CharString>
          <CharString index="155">
            rlineto
            8 88 callsubr
            vvcurveto
            12 -13 7 -7 -7 -7 -4 -7 -7 vhcurveto
            return
          </CharString>
          <CharString index="156">
            rcurveline
            -23 -7 -29 -46 -40 hhcurveto
            -20 -11 -6 -15 -16 11 -5 20 56 46 return
          </CharString>
          <CharString index="157">
            hlineto
            55 callgsubr
            return
          </CharString>
          <CharString index="158">
            -7 21 168 42 return
          </CharString>
          <CharString index="159">
            16 6 -13 callsubr
            return
          </CharString>
          <CharString index="160">
            42 61 168 hstemhm
            62 42 44 273 -183 88 callgsubr
            return
          </CharString>
          <CharString index="161">
            -31 -93 -68 34 -19 31 -12 hvcurveto
            -31 -18 -34 -29 -67 vvcurveto
            -93 return
          </CharString>
          <CharString index="162">
            236 0 46 402 20 return
          </CharString>
          <CharString index="163">
            hstem
            62 -38 callgsubr
            vstem
            return
          </CharString>
          <CharString index="164">
            -85 callsubr
            vhcurveto
            return
          </CharString>
          <CharString index="165">
            168 1 -25 callgsubr
            return
          </CharString>
          <CharString index="166">
            168 -72 121 hstemhm
            return
          </CharString>
          <CharString index="167">
            -10 -5 -17 -14 10 -6 return
          </CharString>
          <CharString index="168">
            88 callsubr
            vhcurveto
            return
          </CharString>
          <CharString index="169">
            -6 -7 -4 -7 -8 return
          </CharString>
          <CharString index="170">
            -186 13 -21 653 -20 hstem
            43 42 179 42 vstem
            return
          </CharString>
          <CharString index="171">
            vlineto
            -47 -14 -19 -30 callgsubr
            19 47 hvcurveto
            return
          </CharString>
          <CharString index="172">
            -21 426 42 return
          </CharString>
          <CharString index="173">
            42 hstem
            84 42 return
          </CharString>
          <CharString index="174">
            -42 -9 -13 -42 vhcurveto
            -258 hlineto
            -42 -9 13 42 hvcurveto
            return
          </CharString>
          <CharString index="175">
            57 callsubr
            134 hlineto
            46 14 -19 return
          </CharString>
          <CharString index="176">
            15 6 -13 callsubr
            589 vlineto
            return
          </CharString>
          <CharString index="177">
            72 hstem
            -353 92 vstem
            -353 return
          </CharString>
          <CharString index="178">
            hlineto
            -30 callsubr
            313 return
          </CharString>
          <CharString index="179">
            168 hstem
            62 42 return
          </CharString>
          <CharString index="180">
            -42 42 636 42 return
          </CharString>
          <CharString index="181">
            -10 8 -19 hvcurveto
            return
          </CharString>
          <CharString index="182">
            -143 hlineto
            -21 -10 -5 -14 -17 10 -6 21 hvcurveto
            return
          </CharString>
          <CharString index="183">
            vlineto
            -72 callgsubr
            endchar
          </CharString>
          <CharString index="184">
            62 callgsubr
            vstem
            return
          </CharString>
          <CharString index="185">
            -165 40 125 42 return
          </CharString>
          <CharString index="186">
            -205 42 163 42 return
          </CharString>
          <CharString index="187">
            rlineto
            7 -7 -7 4 -6 hhcurveto
            -9 -11 -11 -9 return
          </CharString>
          <CharString index="188">
            0 42 241 43 44 43 230 -20 hstem
            return
          </CharString>
          <CharString index="189">
            0 33 callgsubr
            61 72 12 220 hstemhm
            return
          </CharString>
          <CharString index="190">
            34 20 34 hintmask 00000000
            hintmask 00110110
            return
          </CharString>
          <CharString index="191">
            hstem
            75 -38 callgsubr
            vstem
            return
          </CharString>
          <CharString index="192">
            hstem
            67 -38 callgsubr
            vstem
            return
          </CharString>
          <CharString index="193">
            -9 42 486 42 return
          </CharString>
          <CharString index="194">
            -8 56 -87 hvcurveto
            return
          </CharString>
          <CharString index="195">
            7 4 7 7 return
          </CharString>
          <CharString index="196">
            20 hstem
            70 42 128 92 140 42 return
          </CharString>
          <CharString index="197">
            286 vlineto
            -68 callsubr
            -124 vhcurveto
            return
          </CharString>
          <CharString index="198">
            -35 callgsubr
            hstem
            62 -38 callgsubr
            return
          </CharString>
          <CharString index="199">
            hlineto
            18 11 10 12 12 -11 9 -18 hvcurveto
            return
          </CharString>
          <CharString index="200">
            15 51 callsubr
            339 168 return
          </CharString>
          <CharString index="201">
            vlineto
            -21 6 -10 17 14 5 10 21 vhcurveto
            return
          </CharString>
          <CharString index="202">
            -20 hstem
            74 42 return
          </CharString>
          <CharString index="203">
            94 hlineto
            112 return
          </CharString>
        <CharString name=".notdef">
          3 0 71 535 72 hstem
          85 71 226 71 vstem
          156 546 rmoveto
          42 12 18 42 vhcurveto
          118 hlineto
          42 12 -18 -42 hvcurveto
          -416 vlineto
          -42 -12 -17 -42 vhcurveto
          -118 hlineto
          -42 -12 17 42 hvcurveto
          -71 -130 rmoveto
          368 678 -368 hlineto
          endchar
        </CharString>
        <CharString name=".null">
          endchar
        </CharString>
        <CharString name="A">
          66 callgsubr
          hstem
          23 43 vstem
          44 -16 -103 callgsubr
        </CharString>
        <CharString name="A.sc">
          15 14 -21 189 42 hstem
          24 46 410 46 vstem
          45 -7 -96 callsubr
        </CharString>
        <CharString name="AE">
          311 0 42 162 42 91 -15 callsubr
          hstem
          394 41 vstem
          435 337 rmoveto
          215 hlineto
          19 12 4 15 19 -14 4 -17 hvcurveto
          -215 215 334 hlineto
          20 9 4 15 17 -9 5 callgsubr
          -356 hlineto
          -3 -7 0 -8 -5 hvcurveto
          -383 -610 rlineto
          -5 -10 -2 -7 -4 vvcurveto
          -10 10 -3 5 12 12 13 8 5 vhcurveto
          123 199 rlineto
          219 -173 hlineto
          -25 8 -6 11 vhcurveto
          356 hlineto
          20 9 4 15 17 -9 5 callgsubr
          -334 hlineto
          -41 204 rmoveto
          -191 hlineto
          191 304 rlineto
          endchar
        </CharString>
        <CharString name="Aacute">
          66 callgsubr
          452 121 hstem
          23 43 169 122 vstem
          357 799 rmoveto
          -103 callsubr
          -313 -815 -103 callgsubr
        </CharString>
        <CharString name="Abreve">
          66 callgsubr
          452 44 hstem
          23 43 93 74 callgsubr
          vstem
          389 819 -93 callsubr
          -345 -835 -103 callgsubr
        </CharString>
        <CharString name="Acircumflex">
          66 callgsubr
          405 168 hstem
          23 43 72 273 vstem
          275 773 -107 callgsubr
          -228 -789 -103 callgsubr
        </CharString>
        <CharString name="Acyrillic">
          66 callgsubr
          hstem
          23 43 vstem
          44 -16 -103 callgsubr
        </CharString>
        <CharString name="Adieresis">
          66 callgsubr
          461 72 hstem
          23 43 89 92 54 92 vstem
          301 743 -102 callgsubr
          -111 -759 -103 callgsubr
        </CharString>
        <CharString name="Agrave">
          66 callgsubr
          452 121 hstem
          23 43 105 122 vstem
          171 799 -100 callgsubr
          -127 -815 -103 callgsubr
        </CharString>
        <CharString name="Alpha">
          66 callgsubr
          hstem
          23 43 vstem
          44 -16 -103 callgsubr
        </CharString>
        <CharString name="Alphatonos">
          19 204 42 284 220 hstem
          29 43 38 89 vstem
          179 750 -101 callsubr
          -129 -766 -103 callgsubr
        </CharString>
        <CharString name="Amacron">
          66 callgsubr
          460 43 hstem
          23 43 58 300 vstem
          150 706 rmoveto
          -90 callgsubr
          -106 -722 -103 callgsubr
        </CharString>
        <CharString name="Aogonek">
          12 -205 40 369 42 hstem
          23 43 96 callgsubr
          581 -160 -62 callgsubr
          20 26 46 23 24 hvcurveto
          7 1 11 5 14 vvcurveto
          4 -1 5 -2 5 vhcurveto
          -225 618 rlineto
          -46 hlineto
          -225 -618 rlineto
          -2 -5 -1 -1 callsubr
          -16 15 -4 6 9 7 7 13 6 vhcurveto
          72 200 rlineto
          272 hlineto
          69 -191 rlineto
          -27 -31 -36 -57 -31 -34 callsubr
          -427 406 rmoveto
          119 329 121 -329 rlineto
          endchar
        </CharString>
        <CharString name="Aring">
          66 callgsubr
          394 27 98 27 hstem
          23 43 132 27 98 27 vstem
          225 716 -76 callgsubr
          -154 -732 -103 callgsubr
        </CharString>
        <CharString name="Atilde">
          66 callgsubr
          461 -25 callgsubr
          23 43 72 272 77 callgsubr
          321 755 -106 callgsubr
          hintmask 01001000
          -105 callsubr
          hintmask 10010000
          -277 -771 -103 callgsubr
        </CharString>
        <CharString name="B">
          49 -33 callgsubr
          hstemhm
          84 42 318 42 0 -31 callgsubr
          hintmask 11110100
          126 42 rmoveto
          295 195 vlineto
          111 54 -18 callsubr
          hvcurveto
          -29 vlineto
          -84 callsubr
          -237 -11 rmoveto
          -27 callsubr
          29 vlineto
          100 -35 44 -62 19 vhcurveto
          hintmask 11111000
          35 22 20 37 60 vvcurveto
          78 callgsubr
          vhcurveto
          -176 hlineto
          -14 -5 -10 -21 hvcurveto
          195 -226 -64 callgsubr
        </CharString>
        <CharString name="Becyrillic">
          -1 -7 42 384 42 133 30 callgsubr
          423 636 rmoveto
          -339 -612 hlineto
          52 callgsubr
          60 callgsubr
          110 124 123 -83 111 -124 hvcurveto
          -153 133 297 hlineto
          20 10 6 15 15 -10 5 callgsubr
          -144 -217 rmoveto
          111 54 -99 -93 -94 -54 -98 -111 hvcurveto
          -153 384 hlineto
          endchar
        </CharString>
        <CharString name="Beta">
          49 -33 callgsubr
          hstemhm
          84 42 318 42 0 -31 callgsubr
          hintmask 11110100
          126 42 rmoveto
          295 195 vlineto
          111 54 -18 callsubr
          hvcurveto
          -29 vlineto
          -84 callsubr
          -237 -11 rmoveto
          -27 callsubr
          29 vlineto
          100 -35 44 -62 19 vhcurveto
          hintmask 11111000
          35 22 20 37 60 vvcurveto
          78 callgsubr
          vhcurveto
          -176 hlineto
          -14 -5 -10 -21 hvcurveto
          195 -226 -64 callgsubr
        </CharString>
        <CharString name="C">
          37 -7 callgsubr
          hstem
          72 -38 callgsubr
          vstem
          421 hmoveto
          87 8 56 50 -24 callsubr
          -15 -14 -7 -9 -19 -48 -14 -19 -46 hvcurveto
          -51 callsubr
          -20 -47 -19 7 -9 14 15 6 10 20 51 -8 56 -87 hvcurveto
          -57 callsubr
          -286 vlineto
          -92 callgsubr
          endchar
        </CharString>
        <CharString name="Cacute">
          37 -7 callgsubr
          63 121 hstem
          72 42 177 122 61 42 vstem
          413 800 rmoveto
          -103 callsubr
          8 -800 rmoveto
          87 8 56 50 -24 callsubr
          -15 -14 -7 -9 -19 -48 -14 -19 -46 hvcurveto
          -51 callsubr
          -20 -47 -19 7 -9 14 15 6 10 20 51 -8 56 -87 hvcurveto
          -57 callsubr
          -286 vlineto
          -92 callgsubr
          endchar
        </CharString>
        <CharString name="Ccaron">
          37 -7 callgsubr
          42 134 hstem
          72 42 49 268 43 42 vstem
          323 678 -100 callsubr
          150 -678 rmoveto
          87 8 56 50 -24 callsubr
          -15 -14 -7 -9 -19 -48 -14 -19 -46 hvcurveto
          -51 callsubr
          -20 -47 -19 7 -9 14 15 6 10 20 51 -8 56 -87 hvcurveto
          -57 callsubr
          -286 vlineto
          -92 callgsubr
          endchar
        </CharString>
        <CharString name="Ccedilla">
          37 78 callsubr
          552 42 hstem
          72 42 161 43 25 42 89 42 vstem
          220 -17 callgsubr
          50 -56 1 -11 38 vhcurveto
          103 hlineto
          87 8 56 50 -24 callsubr
          -15 -14 -7 -9 -19 -48 -14 -19 -46 hvcurveto
          -51 callsubr
          -20 -47 -19 7 -9 14 15 6 10 20 51 -8 56 -87 hvcurveto
          -57 callsubr
          -286 vlineto
          -149 81 -25 122 -1 vhcurveto
          9 -54 59 -5 -35 -50 callgsubr
          hvcurveto
          endchar
        </CharString>
        <CharString name="Ccircumflex">
          37 -7 callgsubr
          15 168 hstem
          72 42 56 273 31 42 vstem
          307 773 -107 callgsubr
          117 -773 rmoveto
          87 8 56 50 -24 callsubr
          -15 -14 -7 -9 -19 -48 -14 -19 -46 hvcurveto
          -51 callsubr
          -20 -47 -19 7 -9 14 15 6 10 20 51 -8 56 -87 hvcurveto
          -57 callsubr
          -286 vlineto
          -92 callgsubr
          endchar
        </CharString>
        <CharString name="Cdotaccent">
          37 -7 callgsubr
          70 72 hstem
          72 42 131 92 137 42 vstem
          245 742 rmoveto
          -105 callgsubr
          176 -742 rmoveto
          87 8 56 50 -24 callsubr
          -15 -14 -7 -9 -19 -48 -14 -19 -46 hvcurveto
          -51 callsubr
          -20 -47 -19 7 -9 14 15 6 10 20 51 -8 56 -87 hvcurveto
          -57 callsubr
          -286 vlineto
          -92 callgsubr
          endchar
        </CharString>
        <CharString name="Checyrillic">
          50 14 -21 182 32 callgsubr
          57 -38 callgsubr
          vstem
          293 217 94 callgsubr
          263 -57 callgsubr
          -263 vlineto
          -151 83 -24 124 vhcurveto
          29 hlineto
          66 62 23 49 38 hvcurveto
          -223 94 callsubr
          589 vlineto
          20 -6 10 -15 -16 -5 -14 callgsubr
          -209 vlineto
          -121 -60 -66 -106 vhcurveto
          endchar
        </CharString>
        <CharString name="Chi">
          2 -52 callsubr
          -82 callsubr
        </CharString>
        <CharString name="D">
          65 -7 callgsubr
          hstem
          84 -38 callgsubr
          vstem
          528 461 rmoveto
          -68 callsubr
          -124 vhcurveto
          -218 hlineto
          -14 -5 -10 -21 hvcurveto
          -574 vlineto
          -27 callsubr
          -42 hmoveto
          20 callsubr
          552 14 callsubr
          endchar
        </CharString>
        <CharString name="Dcaron">
          65 -7 callgsubr
          42 134 hstem
          84 42 27 268 65 42 vstem
          313 678 -100 callsubr
          267 -217 rmoveto
          -68 callsubr
          -124 vhcurveto
          -218 hlineto
          -14 -5 -10 -21 hvcurveto
          -574 vlineto
          -27 callsubr
          -42 hmoveto
          20 callsubr
          552 14 callsubr
          endchar
        </CharString>
        <CharString name="Dcroat">
          65 0 42 261 43 248 42 hstem
          84 -38 callgsubr
          vstem
          76 303 rmoveto
          8 -272 hlineto
          -27 callsubr
          90 callsubr
          -218 hlineto
          -14 -5 -10 -21 hvcurveto
          -259 -8 vlineto
          -19 -8 -8 -12 -15 8 -8 19 hvcurveto
          410 -128 rmoveto
          20 callsubr
          261 106 hlineto
          19 10 8 13 14 74 callsubr
          -106 248 14 callsubr
          endchar
        </CharString>
        <CharString name="Decyrillic">
          14 -7 callgsubr
          hstem
          10 42 118 41 197 42 18 24 callgsubr
          -14 594 -280 hlineto
          -217 -63 -313 -38 -64 vhcurveto
          -13 hlineto
          -30 -16 -16 -36 hvcurveto
          -52 vlineto
          -20 6 -25 callsubr
          5 -13 callsubr
          356 656 rmoveto
          -552 -293 vlineto
          36 63 60 307 182 vvcurveto
          endchar
        </CharString>
        <CharString name="Delta">
          -3 0 43 601 -20 hstem
          485 hmoveto
          13 9 8 12 4 -1 5 -2 5 hvcurveto
          -215 590 rlineto
          15 -5 -8 5 -10 hhcurveto
          -10 -8 -5 -15 -5 hvcurveto
          -215 -590 rlineto
          -2 -5 -1 -5 -23 callsubr
          9 -8 13 vhcurveto
          409 43 rmoveto
          -380 hlineto
          190 521 rlineto
          endchar
        </CharString>
        <CharString name="Djecyrillic">
          147 -205 42 177 48 callgsubr
          636 rmoveto
          3 callsubr
          -384 vlineto
          -40 callgsubr
          367 vlineto
          -68 callsubr
          -124 -66 -62 -23 -49 -38 vhcurveto
          205 153 76 callsubr
        </CharString>
        <CharString name="Dzecyrillic">
          44 callsubr
          hstem
          62 42 362 42 vstem
          104 484 -98 callgsubr
        </CharString>
        <CharString name="Dzhecyrillic">
          67 0 66 callsubr
          154 42 154 42 cntrmask 01110000
          280 hmoveto
          -62 vlineto
          -20 6 -25 callsubr
          5 -13 callsubr
          62 196 571 vlineto
          20 -6 10 -15 -16 -5 -14 callgsubr
          -529 -350 63 callgsubr
          vlineto
          endchar
        </CharString>
        <CharString name="E">
          -44 callgsubr
          45 callgsubr
          337 -16 callsubr
          215 373 hlineto
          20 9 4 15 17 -9 5 callgsubr
          -396 hlineto
          -14 -5 -10 -21 hvcurveto
          -574 -42 callsubr
        </CharString>
        <CharString name="E.sc">
          59 29 callgsubr
          hstem
          87 42 vstem
          129 276 -16 callsubr
          192 373 hlineto
          20 9 4 15 17 -9 5 callgsubr
          -396 hlineto
          -14 -5 -10 -21 hvcurveto
          -490 -42 callsubr
        </CharString>
        <CharString name="Eacute">
          -44 callgsubr
          62 121 hstem
          84 42 124 122 vstem
          372 799 rmoveto
          -103 callsubr
          -246 -462 -16 callsubr
          215 373 hlineto
          20 9 4 15 17 -9 5 callgsubr
          -396 hlineto
          -14 -5 -10 -21 hvcurveto
          -574 -42 callsubr
        </CharString>
        <CharString name="Ecaron">
          -44 callgsubr
          42 134 hstem
          84 42 38 268 vstem
          324 678 -100 callsubr
          -146 -341 -16 callsubr
          215 373 hlineto
          20 9 4 15 17 -9 5 callgsubr
          -396 hlineto
          -14 -5 -10 -21 hvcurveto
          -574 -42 callsubr
        </CharString>
        <CharString name="Ecircumflex">
          -44 callgsubr
          15 168 hstem
          84 42 39 273 vstem
          302 773 -107 callgsubr
          -173 -436 -16 callsubr
          215 373 hlineto
          20 9 4 15 17 -9 5 callgsubr
          -396 hlineto
          -14 -5 -10 -21 hvcurveto
          -574 -42 callsubr
        </CharString>
        <CharString name="Edieresis">
          -44 callgsubr
          71 72 hstem
          84 42 57 92 54 92 vstem
          329 743 -102 callgsubr
          -57 -406 -16 callsubr
          215 373 hlineto
          20 9 4 15 17 -9 5 callgsubr
          -396 hlineto
          -14 -5 -10 -21 hvcurveto
          -574 -42 callsubr
        </CharString>
        <CharString name="Edotaccent">
          -44 callgsubr
          70 72 hstem
          84 42 129 92 vstem
          255 742 rmoveto
          -105 callgsubr
          -129 -405 -16 callsubr
          215 373 hlineto
          20 9 4 15 17 -9 5 callgsubr
          -396 hlineto
          -14 -5 -10 -21 hvcurveto
          -574 -42 callsubr
        </CharString>
        <CharString name="Efcyrillic">
          -5 14 -21 84 42 398 42 84 -20 hstem
          43 42 161 42 157 42 vstem
          288 20 rmoveto
          57 vlineto
          114 10 85 83 142 vvcurveto
          12 vlineto
          142 -85 83 -114 10 vhcurveto
          56 -99 callgsubr
          -56 vlineto
          -117 -8 -86 -84 -143 vvcurveto
          -12 vlineto
          -143 86 -84 117 -8 vhcurveto
          -57 -94 callsubr
          99 vmoveto
          398 vlineto
          98 -10 59 -71 -112 vvcurveto
          -12 vlineto
          -113 -59 -71 -98 -9 vhcurveto
          -42 hmoveto
          -101 8 -60 70 115 vvcurveto
          12 vlineto
          114 60 71 101 8 vhcurveto
          endchar
        </CharString>
        <CharString name="Egrave">
          -44 callgsubr
          62 121 hstem
          84 42 73 122 vstem
          199 799 -100 callgsubr
          -73 -462 -16 callsubr
          215 373 hlineto
          20 9 4 15 17 -9 5 callgsubr
          -396 hlineto
          -14 -5 -10 -21 hvcurveto
          -574 -42 callsubr
        </CharString>
        <CharString name="Elcyrillic">
          17 -7 callgsubr
          hstem
          111 42 273 42 vstem
          468 24 rmoveto
          612 -2 callsubr
          6 -11 14 17 5 11 20 vhcurveto
          endchar
        </CharString>
        <CharString name="Emacron">
          -44 callgsubr
          70 43 hstem
          84 42 25 300 vstem
          177 706 rmoveto
          -90 callgsubr
          -51 -369 -16 callsubr
          215 373 hlineto
          20 9 4 15 17 -9 5 callgsubr
          -396 hlineto
          -14 -5 -10 -21 hvcurveto
          -574 -42 callsubr
        </CharString>
        <CharString name="Emcyrillic">
          98 -52 callsubr
          hstem
          84 42 381 42 vstem
          316 279 -85 callgsubr
        </CharString>
        <CharString name="Encyrillic">
          77 -7 21 308 42 259 20 hstem
          84 -38 callgsubr
          vstem
          126 23 -83 callsubr
        </CharString>
        <CharString name="Eng">
          77 -175 42 147 -21 650 -20 hstem
          84 -38 callgsubr
          vstem
          486 84 rmoveto
          -80 callsubr
          360 -548 rlineto
          -9 vlineto
          -122 -54 -11 -112 -20 -11 -5 -15 -16 11 -6 20 125 83 21 154 vhcurveto
          612 vlineto
          -72 callsubr
          endchar
        </CharString>
        <CharString name="Eogonek">
          42 -201 40 161 -39 callsubr
          hstem
          84 42 110 42 vstem
          401 -156 -62 callgsubr
          24 38 63 25 15 hvcurveto
          158 hlineto
          20 9 4 15 17 -9 5 callgsubr
          -373 295 255 hlineto
          20 10 4 15 17 -10 5 callgsubr
          -255 215 373 hlineto
          20 9 4 15 17 -9 5 callgsubr
          -396 hlineto
          -14 -5 -10 -21 hvcurveto
          -574 -69 callsubr
          182 hlineto
          -24 -32 -25 -44 -26 -34 callsubr
          endchar
        </CharString>
        <CharString name="Epsilon">
          -44 callgsubr
          45 callgsubr
          337 -16 callsubr
          215 373 hlineto
          20 9 4 15 17 -9 5 callgsubr
          -396 hlineto
          -14 -5 -10 -21 hvcurveto
          -574 -42 callsubr
        </CharString>
        <CharString name="Epsilontonos">
          79 0 42 295 42 151 220 -156 42 hstemhm
          19 89 13 42 77 callgsubr
          88 750 -101 callsubr
          hintmask 11010100
          75 -413 -16 callsubr
          215 373 hlineto
          20 9 4 15 17 -9 5 callgsubr
          -396 hlineto
          -14 -5 -10 -21 hvcurveto
          -574 -42 callsubr
        </CharString>
        <CharString name="Ercyrillic">
          -13 -7 21 323 42 215 30 callgsubr
          126 20 rmoveto
          317 195 vlineto
          102 63 50 99 78 callgsubr
          hvcurveto
          -176 hlineto
          -14 -5 -10 -21 hvcurveto
          -585 -94 callsubr
          153 359 -64 callgsubr
        </CharString>
        <CharString name="Ereversedcyrillic">
          92 callgsubr
          54 -38 callgsubr
          vstem
          149 636 rmoveto
          -87 -8 -56 -50 -21 6 -10 15 14 7 9 19 48 14 19 46 hvcurveto
          134 hlineto
          112 54 -18 callsubr
          hvcurveto
          -107 -254 vlineto
          -20 -10 -4 -15 -17 10 -6 20 hvcurveto
          254 -137 hlineto
          -122 -54 -11 -112 vhcurveto
          -134 hlineto
          -46 -14 20 47 19 -7 9 -14 -60 callgsubr
          -51 8 -56 87 hvcurveto
          141 hlineto
          40 callsubr
          286 vlineto
          -68 callsubr
          -125 vhcurveto
          endchar
        </CharString>
        <CharString name="Escyrillic">
          37 -7 callgsubr
          hstem
          72 -38 callgsubr
          vstem
          421 hmoveto
          87 8 56 50 -24 callsubr
          -15 -14 -7 -9 -19 -48 -14 -19 -46 hvcurveto
          -51 callsubr
          -20 -47 -19 7 -9 14 15 6 10 20 51 -8 56 -87 hvcurveto
          -57 callsubr
          -286 vlineto
          -92 callgsubr
          endchar
        </CharString>
        <CharString name="Eta">
          77 -7 21 308 42 259 20 hstem
          84 -38 callgsubr
          vstem
          126 23 -83 callsubr
        </CharString>
        <CharString name="Etatonos">
          113 -7 21 308 42 162 220 -123 20 hstemhm
          20 89 11 42 360 42 77 callgsubr
          89 746 -101 callsubr
          hintmask 11010110
          73 -723 -83 callsubr
        </CharString>
        <CharString name="Eth">
          65 0 42 261 43 248 42 hstem
          84 -38 callgsubr
          vstem
          76 303 rmoveto
          8 -272 hlineto
          -27 callsubr
          90 callsubr
          -218 hlineto
          -14 -5 -10 -21 hvcurveto
          -259 -8 vlineto
          -19 -8 -8 -12 -15 8 -8 19 hvcurveto
          410 -128 rmoveto
          20 callsubr
          261 106 hlineto
          19 10 8 13 14 74 callsubr
          -106 248 14 callsubr
          endchar
        </CharString>
        <CharString name="Euro">
          16 0 42 196 43 75 43 195 42 hstem
          107 42 297 42 vstem
          393 636 rmoveto
          -63 hlineto
          -126 -97 -76 -151 hvcurveto
          -10 -36 vlineto
          -19 -8 -8 -12 -14 8 -9 19 hvcurveto
          36 -75 -36 hlineto
          -19 -8 -9 -12 -14 8 -8 19 hvcurveto
          36 -11 hlineto
          -151 97 -76 126 vhcurveto
          63 hlineto
          87 8 56 50 -24 callsubr
          -15 -14 -7 -9 -19 -48 -14 -19 -46 hvcurveto
          -56 hlineto
          -113 -68 63 122 hvcurveto
          11 199 vlineto
          19 10 8 12 14 -10 9 -19 hvcurveto
          -199 75 199 hlineto
          19 10 9 12 14 74 callsubr
          -199 10 hlineto
          121 68 64 113 vhcurveto
          56 42 callsubr
          endchar
        </CharString>
        <CharString name="F">
          23 14 -21 344 42 215 42 45 callgsubr
          23 -13 callgsubr
        </CharString>
        <CharString name="Fitacyrillic">
          -19 callsubr
          467 303 rmoveto
          -76 -95 callsubr
          60 vlineto
          0 42 33 34 vhcurveto
          40 113 -40 66 hhcurveto
          34 31 23 0 hvcurveto
          106 vmoveto
          -53 vlineto
          0 -44 -34 -34 vhcurveto
          -40 -113 40 -66 hhcurveto
          -34 -29 -23 0 hvcurveto
          70 vlineto
          121 68 73 112 112 68 -73 -121 vhcurveto
          42 -182 rmoveto
          182 vlineto
          151 -97 85 -125 -126 -96 -85 -151 vhcurveto
          -59 callsubr
          -78 callgsubr
          vhcurveto
          endchar
        </CharString>
        <CharString name="G">
          35 callgsubr
          hstem
          72 -38 callgsubr
          vstem
          474 251 rmoveto
          -143 vlineto
          -47 -14 -19 -46 vhcurveto
          -51 callsubr
          -19 -47 -20 7 -9 14 15 6 10 21 50 15 callgsubr
          -23 -152 hvcurveto
          -286 vlineto
          -152 83 -23 15 callsubr
          hvcurveto
          187 -175 vlineto
          -20 60 callsubr
          20 hvcurveto
          endchar
        </CharString>
        <CharString name="Gamma">
          1 -7 21 580 42 hstem
          82 42 vstem
          184 594 -42 callgsubr
        </CharString>
        <CharString name="Gbreve">
          35 callgsubr
          62 44 hstem
          72 42 76 74 callgsubr
          54 42 vstem
          420 819 -93 callsubr
          54 -568 rmoveto
          -143 vlineto
          -47 -14 -19 -46 vhcurveto
          -51 callsubr
          -19 -47 -20 7 -9 14 15 6 10 21 50 15 callgsubr
          -23 -152 hvcurveto
          -286 vlineto
          -152 83 -23 15 callsubr
          hvcurveto
          187 -175 vlineto
          -20 60 callsubr
          20 hvcurveto
          endchar
        </CharString>
        <CharString name="Gcircumflex">
          35 callgsubr
          15 168 hstem
          72 42 53 273 34 42 vstem
          304 773 -107 callgsubr
          173 -522 rmoveto
          -143 vlineto
          -47 -14 -19 -46 vhcurveto
          -51 callsubr
          -19 -47 -20 7 -9 14 15 6 10 21 50 15 callgsubr
          -23 -152 hvcurveto
          -286 vlineto
          -152 83 -23 15 callsubr
          hvcurveto
          187 -175 vlineto
          -20 60 callsubr
          20 hvcurveto
          endchar
        </CharString>
        <CharString name="Gcommaaccent">
          50 -205 141 64 59 callgsubr
          hstem
          72 42 147 83 130 42 vstem
          308 -64 rmoveto
          -101 callgsubr
          166 315 rmoveto
          -143 vlineto
          -47 -14 -19 -46 vhcurveto
          -51 callsubr
          -19 -47 -20 7 -9 14 15 6 10 21 50 15 callgsubr
          -23 -152 hvcurveto
          -286 vlineto
          -152 83 -23 15 callsubr
          hvcurveto
          187 -175 vlineto
          -20 60 callsubr
          20 hvcurveto
          endchar
        </CharString>
        <CharString name="Gdotaccent">
          35 callgsubr
          70 72 hstem
          72 42 129 92 139 42 vstem
          243 742 rmoveto
          -105 callgsubr
          231 -491 rmoveto
          -143 vlineto
          -47 -14 -19 -46 vhcurveto
          -51 callsubr
          -19 -47 -20 7 -9 14 15 6 10 21 50 15 callgsubr
          -23 -152 hvcurveto
          -286 vlineto
          -152 83 -23 15 callsubr
          hvcurveto
          187 -175 vlineto
          -20 60 callsubr
          20 hvcurveto
          endchar
        </CharString>
        <CharString name="Gecyrillic">
          1 14 -21 601 42 hstem
          82 42 vstem
          184 594 -42 callgsubr
        </CharString>
        <CharString name="Gheupturncyrillic">
          4 14 -21 601 42 hstem
          82 42 346 42 vstem
          512 594 rmoveto
          124 vlineto
          28 callgsubr
          vhcurveto
          -82 -293 46 callsubr
          -489 -8 callsubr
          506 -36 callsubr
          endchar
        </CharString>
        <CharString name="Gjecyrillic">
          1 -7 21 580 42 62 121 hstem
          82 42 145 122 vstem
          391 799 rmoveto
          -103 callsubr
          -207 -205 -42 callgsubr
        </CharString>
        <CharString name="H">
          77 14 -21 329 42 279 -20 hstem
          84 -38 callgsubr
          vstem
          126 23 -83 callsubr
        </CharString>
        <CharString name="Hardsigncyrillic">
          60 -7 42 384 42 133 42 hstem
          155 42 318 42 vstem
          155 594 rmoveto
          -570 -69 callsubr
          60 callgsubr
          110 124 123 -83 111 -124 hvcurveto
          -153 175 75 callsubr
          296 -175 rmoveto
          111 54 -99 -93 -94 -54 -98 -111 hvcurveto
          -153 384 hlineto
          endchar
        </CharString>
        <CharString name="Hbar">
          79 14 -21 329 42 144 43 92 -20 hstem
          85 -38 callgsubr
          vstem
          53 508 rmoveto
          32 -485 hlineto
          -20 6 -25 callsubr
          5 -13 callsubr
          299 360 -299 -77 callsubr
          485 29 vlineto
          19 10 8 12 15 74 callsubr
          -29 61 hlineto
          -72 callsubr
          -61 -360 61 -81 callsubr
          -61 -32 vlineto
          -18 -8 -8 -13 -14 8 -8 18 hvcurveto
          434 hmoveto
          -144 -360 144 vlineto
          endchar
        </CharString>
        <CharString name="Hcircumflex">
          77 -7 21 308 42 259 20 8 168 hstem
          84 42 42 273 45 42 vstem
          305 773 -107 callgsubr
          -176 -750 -83 callsubr
        </CharString>
        <CharString name="I">
          -325 14 -21 650 -20 45 callgsubr
          20 rmoveto
          595 -99 callgsubr
          -595 -94 callsubr
          endchar
        </CharString>
        <CharString name="I.sc">
          -321 14 -21 hstem
          86 42 vstem
          128 20 rmoveto
          511 -99 callgsubr
          -511 -94 callsubr
          endchar
        </CharString>
        <CharString name="IAcyrillic">
          29 -7 42 264 42 253 42 hstem
          85 42 311 42 vstem
          292 341 rmoveto
          -111 -54 34 92 93 54 34 111 hvcurveto
          146 -253 hlineto
          -234 -33 rmoveto
          -31 -23 -20 -32 -9 -35 -31 -114 49 callsubr
          48 69 19 hvcurveto
          28 104 rlineto
          54 15 34 31 73 hhcurveto
          130 -279 hlineto
          -18 7 -9 15 13 7 9 18 vhcurveto
          585 vlineto
          21 -5 10 -14 vhcurveto
          -169 hlineto
          -124 -83 -46 -123 -68 26 -67 93 -24 hvcurveto
          endchar
        </CharString>
        <CharString name="IUcyrillic">
          165 -9 42 269 42 259 66 callsubr
          77 callsubr
          413 603 rmoveto
          -70 callsubr
          -182 -95 callsubr
          182 vlineto
          121 68 73 112 vhcurveto
          -612 vmoveto
          -78 callgsubr
          hvcurveto
          182 vlineto
          151 -97 85 -125 -126 -96 -85 -151 vhcurveto
          -65 -65 271 -99 callgsubr
          -595 -94 callsubr
          282 65 -75 -71 callsubr
          vhcurveto
          endchar
        </CharString>
        <CharString name="Iacute">
          17 callgsubr
          55 121 hstemhm
          84 42 -41 122 77 callgsubr
          207 799 rmoveto
          -103 callsubr
          hintmask 11010000
          -81 -779 rmoveto
          595 -99 callgsubr
          -595 -94 callsubr
          endchar
        </CharString>
        <CharString name="Icircumflex">
          17 callgsubr
          8 168 hstemhm
          -30 273 -159 -31 callgsubr
          hintmask 00110000
          107 773 -107 callgsubr
          hintmask 11001000
          22 -753 rmoveto
          595 -99 callgsubr
          -595 -94 callsubr
          endchar
        </CharString>
        <CharString name="Icyrillic">
          17 callgsubr
          45 callgsubr
          20 rmoveto
          595 -99 callgsubr
          -595 -94 callsubr
          endchar
        </CharString>
        <CharString name="Idieresis">
          17 callgsubr
          64 72 hstem
          -13 92 5 42 7 92 vstem
          133 743 -102 callgsubr
          139 -723 rmoveto
          595 -99 callgsubr
          -595 -94 callsubr
          endchar
        </CharString>
        <CharString name="Idotaccent">
          17 callgsubr
          63 72 hstemhm
          59 92 -67 -31 callgsubr
          hintmask 00110000
          59 742 rmoveto
          -105 callgsubr
          hintmask 11001000
          67 -722 rmoveto
          595 -99 callgsubr
          -595 -94 callsubr
          endchar
        </CharString>
        <CharString name="Ie.ukran">
          92 callgsubr
          72 -38 callgsubr
          vstem
          421 636 rmoveto
          -57 callsubr
          -286 vlineto
          -92 callgsubr
          141 hlineto
          87 8 56 51 20 -6 10 -15 -14 -7 -9 -19 -47 -14 -20 -46 hvcurveto
          -134 hlineto
          -95 callgsubr
          137 254 vlineto
          20 10 6 17 15 -10 4 -20 hvcurveto
          -254 107 17 callsubr
        </CharString>
        <CharString name="Iecyrillic">
          -44 callgsubr
          45 callgsubr
          337 -16 callsubr
          215 373 hlineto
          20 9 4 15 17 -9 5 callgsubr
          -396 hlineto
          -14 -5 -10 -21 hvcurveto
          -574 -42 callsubr
        </CharString>
        <CharString name="Igrave">
          17 callgsubr
          55 121 hstemhm
          4 122 -42 -31 callgsubr
          hintmask 00110000
          4 799 -100 callgsubr
          hintmask 11001000
          122 -779 rmoveto
          595 -99 callgsubr
          -595 -94 callsubr
          endchar
        </CharString>
        <CharString name="Iicyrillic">
          77 14 -21 650 -20 hstem
          84 -38 callgsubr
          vstem
          104 -7 rmoveto
          7 6 2 5 3 hvcurveto
          366 557 rlineto
          -534 vlineto
          -20 5 -10 16 69 callsubr
          17 -3 14 -16 -11 -7 -5 -12 -8 vhcurveto
          -357 -542 rlineto
          528 vlineto
          -24 callsubr
          -14 -16 -6 -10 -21 vhcurveto
          -589 vlineto
          -20 5 -10 15 vhcurveto
          endchar
        </CharString>
        <CharString name="Iicyrillic_grave">
          77 -7 21 609 87 callgsubr
          84 42 79 145 136 42 77 callgsubr
          205 783 -97 callgsubr
          hintmask 11010100
          -101 -790 rmoveto
          7 6 2 5 3 hvcurveto
          366 557 rlineto
          -534 vlineto
          -20 5 -10 16 69 callsubr
          17 -3 14 -16 -11 -7 -5 -12 -8 vhcurveto
          -357 -542 rlineto
          528 vlineto
          -24 callsubr
          -14 -16 -6 -10 -21 vhcurveto
          -589 vlineto
          -20 5 -10 15 vhcurveto
          endchar
        </CharString>
        <CharString name="Iishortcyrillic">
          77 -52 callsubr
          -7 42 hstemhm
          84 42 34 42 205 42 37 -31 callgsubr
          hintmask 00101100
          449 770 -73 callgsubr
          hintmask 11010010
          -345 -755 rmoveto
          7 6 2 5 3 hvcurveto
          366 557 rlineto
          -534 vlineto
          -20 5 -10 16 69 callsubr
          17 -3 14 -16 -11 -7 -5 -12 -8 vhcurveto
          -357 -542 rlineto
          528 vlineto
          -24 callsubr
          -14 -16 -6 -10 -21 vhcurveto
          -589 vlineto
          -20 5 -10 15 vhcurveto
          endchar
        </CharString>
        <CharString name="Imacron">
          17 callgsubr
          63 43 hstemhm
          -45 300 -171 -31 callgsubr
          hintmask 00110000
          -19 706 rmoveto
          -90 callgsubr
          hintmask 11001000
          145 -686 rmoveto
          595 -99 callgsubr
          -595 -94 callsubr
          endchar
        </CharString>
        <CharString name="Iocyrillic">
          -44 callgsubr
          71 72 hstem
          84 42 57 92 54 92 vstem
          329 743 -102 callgsubr
          -57 -406 -16 callsubr
          215 373 hlineto
          20 9 4 15 17 -9 5 callgsubr
          -396 hlineto
          -14 -5 -10 -21 hvcurveto
          -574 -42 callsubr
        </CharString>
        <CharString name="Iogonek">
          -324 -196 40 799 -20 hstem
          19 42 24 42 vstem
          184 -151 -62 callgsubr
          20 26 46 23 24 hvcurveto
          11 2 6 9 16 vvcurveto
          595 -99 callgsubr
          -589 vlineto
          -27 -30 -39 -61 -32 -34 callsubr
          endchar
        </CharString>
        <CharString name="Iota">
          17 callgsubr
          45 callgsubr
          20 rmoveto
          595 -99 callgsubr
          -595 -94 callsubr
          endchar
        </CharString>
        <CharString name="Iotadieresis">
          17 callgsubr
          64 72 hstem
          -13 92 5 42 7 92 vstem
          133 743 -102 callgsubr
          139 -723 rmoveto
          595 -99 callgsubr
          -595 -94 callsubr
          endchar
        </CharString>
        <CharString name="Iotatonos">
          -295 -7 21 516 220 -127 20 hstemhm
          22 89 3 -31 callgsubr
          hintmask 01010000
          91 750 -101 callsubr
          hintmask 10101000
          65 -730 rmoveto
          595 -99 callgsubr
          -595 -94 callsubr
          endchar
        </CharString>
        <CharString name="Itilde">
          -325 93 callgsubr
          -31 272 -157 -31 callgsubr
          hintmask 00011000
          152 755 -106 callgsubr
          hintmask 00101000
          -105 callsubr
          hintmask 11000100
          -26 -735 rmoveto
          595 -99 callgsubr
          -595 -94 callsubr
          endchar
        </CharString>
        <CharString name="J">
          -5 -8 42 609 -20 hstem
          32 43 332 42 vstem
          241 34 rmoveto
          8 callgsubr
          125 83 23 152 hvcurveto
          448 -99 callgsubr
          -448 vlineto
          -122 -54 -11 -112 vhcurveto
          endchar
        </CharString>
        <CharString name="Jcircumflex">
          -5 -8 42 589 20 9 168 hstemhm
          32 43 217 273 -158 42 77 callgsubr
          429 774 -107 callgsubr
          hintmask 11010100
          -185 -740 rmoveto
          8 callgsubr
          125 83 23 152 hvcurveto
          448 -99 callgsubr
          -448 vlineto
          -122 -54 -11 -112 vhcurveto
          endchar
        </CharString>
        <CharString name="Jecyrillic">
          -5 -8 42 589 20 hstem
          32 43 332 42 vstem
          241 34 rmoveto
          8 callgsubr
          125 83 23 152 hvcurveto
          448 -99 callgsubr
          -448 vlineto
          -122 -54 -11 -112 vhcurveto
          endchar
        </CharString>
        <CharString name="K">
          -38 14 -21 650 -20 hstem
          84 42 vstem
          494 -75 callsubr
        </CharString>
        <CharString name="Kacyrillic">
          18 -7 42 240 42 240 66 callsubr
          255 42 cntrmask 11100000
          126 275 rmoveto
          125 hlineto
          47 83 -30 -45 hvcurveto
          -63 callsubr
          -125 253 hlineto
          19 -7 9 -14 -87 callgsubr
          -550 -94 callsubr
          endchar
        </CharString>
        <CharString name="Kappa">
          -38 -52 callsubr
          hstem
          84 42 vstem
          494 -75 callsubr
        </CharString>
        <CharString name="Kcommaaccent">
          -38 -141 141 -52 callsubr
          hstemhm
          84 42 121 83 hintmask 00000000
          hintmask 10001000
          294 hmoveto
          -101 callgsubr
          hintmask 01110000
          200 -75 callsubr
        </CharString>
        <CharString name="Khacyrillic">
          2 -52 callsubr
          -82 callsubr
        </CharString>
        <CharString name="Kjecyrillic">
          18 -7 42 240 42 240 42 -5 168 hstemhm
          84 42 102 145 8 -31 callgsubr
          hintmask 00010100
          373 741 rmoveto
          -104 callsubr
          hintmask 11101010
          -247 -466 rmoveto
          125 hlineto
          47 83 -30 -45 hvcurveto
          -63 callsubr
          -125 253 hlineto
          19 -7 9 -14 -87 callgsubr
          -550 -94 callsubr
          endchar
        </CharString>
        <CharString name="L">
          -40 0 42 601 -20 hstem
          84 42 vstem
          103 hmoveto
          -54 callsubr
        </CharString>
        <CharString name="Lacute">
          -40 0 42 581 20 55 121 hstemhm
          84 42 -42 122 77 callgsubr
          206 799 rmoveto
          -103 callsubr
          hintmask 11010000
          -103 -799 rmoveto
          -54 callsubr
        </CharString>
        <CharString name="Lambda">
          13 23 43 vstem
          66 4 rmoveto
          207 571 209 -571 rlineto
          -13 5 8 -7 9 hhcurveto
          6 15 4 16 4 -1 5 -2 5 hvcurveto
          -225 618 rlineto
          -46 hlineto
          -225 -618 rlineto
          -2 -5 -1 -1 callsubr
          -16 15 -4 6 9 7 7 13 6 vhcurveto
          endchar
        </CharString>
        <CharString name="Lcaron">
          -40 0 42 462 141 -22 20 hstemhm
          84 42 63 83 hintmask 00000000
          hintmask 01001000
          236 645 rmoveto
          -101 callgsubr
          hintmask 10110000
          -133 -645 rmoveto
          -54 callsubr
        </CharString>
        <CharString name="Lcommaaccent">
          -40 -202 141 61 42 581 20 hstem
          84 42 106 83 vstem
          279 -61 rmoveto
          -101 callgsubr
          -176 61 rmoveto
          -54 callsubr
        </CharString>
        <CharString name="Ljecyrillic">
          318 -7 42 324 42 193 42 hstem
          111 42 273 42 306 42 vstem
          468 35 rmoveto
          324 141 vlineto
          111 54 -69 -93 -94 -54 -68 -111 hvcurveto
          -141 366 rmoveto
          235 -2 callsubr
          7 -11 14 vhcurveto
          162 hlineto
          124 83 80 124 123 -83 81 -124 hvcurveto
          endchar
        </CharString>
        <CharString name="Lslash">
          -34 81 callsubr
          90 42 vstem
          205 413 rmoveto
          -5 -4 -1 -2 -6 hvcurveto
          -58 -29 rlineto
          234 -99 callgsubr
          -254 vlineto
          -70 -35 14 callgsubr
          55 27 rlineto
          -282 -69 callsubr
          -4 callgsubr
          292 hlineto
          73 36 40 callgsubr
          vhcurveto
          endchar
        </CharString>
        <CharString name="M">
          98 14 -21 650 -20 hstem
          84 42 381 42 vstem
          316 279 -85 callgsubr
        </CharString>
        <CharString name="Mu">
          98 -52 callsubr
          hstem
          84 42 381 42 vstem
          316 279 -85 callgsubr
        </CharString>
        <CharString name="N">
          77 14 -21 650 -20 hstem
          84 -38 callgsubr
          vstem
          508 -7 rmoveto
          15 5 10 20 hvcurveto
          589 vlineto
          -72 callsubr
          -528 vlineto
          -80 callsubr
          366 -557 rlineto
          -5 3 6 -2 7 hhcurveto
          endchar
        </CharString>
        <CharString name="Nacute">
          77 -7 21 609 87 callgsubr
          84 42 130 145 85 42 77 callgsubr
          401 -43 callgsubr
          hintmask 11010100
          107 -790 rmoveto
          15 5 10 20 hvcurveto
          589 vlineto
          -72 callsubr
          -528 vlineto
          -80 callsubr
          366 -557 rlineto
          -5 3 6 -2 7 hhcurveto
          endchar
        </CharString>
        <CharString name="Ncaron">
          77 -52 callsubr
          -6 134 hstemhm
          84 42 49 268 43 42 77 callgsubr
          335 637 -100 callsubr
          hintmask 11010100
          225 -644 rmoveto
          15 5 10 20 hvcurveto
          589 vlineto
          -72 callsubr
          -528 vlineto
          -80 callsubr
          366 -557 rlineto
          -5 3 6 -2 7 hhcurveto
          endchar
        </CharString>
        <CharString name="Ncommaaccent">
          77 -141 141 -52 callsubr
          hstemhm
          84 42 139 83 138 -31 callgsubr
          hintmask 10001000
          312 hmoveto
          -101 callgsubr
          hintmask 01110100
          196 -7 rmoveto
          15 5 10 20 hvcurveto
          589 vlineto
          -72 callsubr
          -528 vlineto
          -80 callsubr
          366 -557 rlineto
          -5 3 6 -2 7 hhcurveto
          endchar
        </CharString>
        <CharString name="Njecyrillic">
          377 -7 42 324 42 242 -20 hstem
          84 -38 callgsubr
          306 42 vstem
          528 35 rmoveto
          324 141 vlineto
          111 54 -69 -93 -94 -54 -68 -111 hvcurveto
          -141 366 rmoveto
          211 vlineto
          -72 callsubr
          -211 -360 211 -81 callsubr
          -81 callgsubr
          336 360 -335 vlineto
          -20 7 -11 14 vhcurveto
          162 hlineto
          124 83 80 124 123 -83 81 -124 hvcurveto
          endchar
        </CharString>
        <CharString name="Ntilde">
          77 93 callgsubr
          84 42 43 272 45 -31 callgsubr
          hintmask 00010100
          352 755 -88 callgsubr
          156 -762 rmoveto
          15 5 10 20 hvcurveto
          589 vlineto
          -72 callsubr
          -528 vlineto
          -80 callsubr
          366 -557 rlineto
          -5 3 6 -2 7 hhcurveto
          endchar
        </CharString>
        <CharString name="Nu">
          77 -52 callsubr
          hstem
          84 -38 callgsubr
          vstem
          508 -7 rmoveto
          15 5 10 20 hvcurveto
          589 vlineto
          -72 callsubr
          -528 vlineto
          -80 callsubr
          366 -557 rlineto
          -5 3 6 -2 7 hhcurveto
          endchar
        </CharString>
        <CharString name="O">
          -19 callsubr
          287 -9 28 callsubr
          182 vlineto
          151 -97 85 -125 -126 -96 -85 -151 vhcurveto
          -59 callsubr
          vhcurveto
          612 29 callsubr
          -182 -95 callsubr
          182 19 callgsubr
        </CharString>
        <CharString name="O.sc">
          35 86 callsubr
          hstem
          63 -38 callgsubr
          vstem
          285 -9 28 callsubr
          98 vlineto
          151 -97 85 -125 -126 -96 -85 -151 vhcurveto
          -98 -71 callsubr
          vhcurveto
          528 29 callsubr
          -98 -95 callsubr
          98 19 callgsubr
        </CharString>
        <CharString name="OE">
          171 -9 42 -33 -39 callsubr
          -33 42 hstemhm
          65 41 269 -31 callgsubr
          hintmask 10101110
          376 617 rmoveto
          19 -30 -36 9 -42 hhcurveto
          -86 -117 -85 -151 hvcurveto
          -182 vlineto
          -151 117 -85 86 42 36 9 18 30 vhcurveto
          hintmask 01110110
          -12 2 5 -6 11 hhcurveto
          239 hlineto
          20 10 4 15 17 -10 5 callgsubr
          -216 295 98 hlineto
          21 9 4 15 17 -9 6 -21 hvcurveto
          -98 215 216 hlineto
          20 10 6 16 16 -10 4 -20 hvcurveto
          -239 hlineto
          -11 -5 -6 -13 -2 hvcurveto
          -1 -547 rmoveto
          hintmask 10101110
          -25 -25 -35 -12 -47 hhcurveto
          -75 -87 72 122 hvcurveto
          182 vlineto
          121 87 73 75 47 35 -12 -25 25 vhcurveto
          endchar
        </CharString>
        <CharString name="Oacute">
          39 20 callgsubr
          159 122 79 42 vstem
          388 799 rmoveto
          -103 callsubr
          -101 -808 28 callsubr
          182 vlineto
          151 -97 85 -125 -126 -96 -85 -151 vhcurveto
          -59 callsubr
          vhcurveto
          612 29 callsubr
          -182 -95 callsubr
          182 19 callgsubr
        </CharString>
        <CharString name="Ocircumflex">
          45 callsubr
          6 168 hstem
          65 30 callsubr
          288 773 -107 callgsubr
          2 -782 28 callsubr
          182 vlineto
          151 -97 85 -125 -126 -96 -85 -151 vhcurveto
          -59 callsubr
          vhcurveto
          612 29 callsubr
          -182 -95 callsubr
          182 19 callgsubr
        </CharString>
        <CharString name="Ocyrillic">
          -19 callsubr
          287 -9 28 callsubr
          182 vlineto
          151 -97 85 -125 -126 -96 -85 -151 vhcurveto
          -59 callsubr
          vhcurveto
          612 29 callsubr
          -182 -95 callsubr
          182 19 callgsubr
        </CharString>
        <CharString name="Odieresis">
          45 callsubr
          62 72 hstem
          65 19 callsubr
          315 743 -102 callgsubr
          118 -752 28 callsubr
          182 vlineto
          151 -97 85 -125 -126 -96 -85 -151 vhcurveto
          -59 callsubr
          vhcurveto
          612 29 callsubr
          -182 -95 callsubr
          182 19 callgsubr
        </CharString>
        <CharString name="Ograve">
          39 20 callgsubr
          78 122 160 42 vstem
          185 799 -100 callgsubr
          102 -808 28 callsubr
          182 vlineto
          151 -97 85 -125 -126 -96 -85 -151 vhcurveto
          -59 callsubr
          vhcurveto
          612 29 callsubr
          -182 -95 callsubr
          182 19 callgsubr
        </CharString>
        <CharString name="Ohorn">
          72 -17 callsubr
          hstem
          62 callgsubr
          60 44 vstem
          531 661 -96 callgsubr
        </CharString>
        <CharString name="Ohungarumlaut">
          45 callsubr
          53 121 hstemhm
          65 42 116 122 -22 122 22 -31 callgsubr
          hintmask 00100100
          445 799 rmoveto
          -103 callsubr
          hintmask 00101000
          -100 hmoveto
          -103 callsubr
          hintmask 11010010
          -58 -808 28 callsubr
          182 vlineto
          151 -97 85 -125 -126 -96 -85 -151 vhcurveto
          -59 callsubr
          vhcurveto
          612 29 callsubr
          -182 -95 callsubr
          182 19 callgsubr
        </CharString>
        <CharString name="Omacron">
          45 callsubr
          61 43 hstem
          65 42 30 300 30 42 cntrmask 00011100
          163 706 rmoveto
          -90 callgsubr
          124 -715 28 callsubr
          182 vlineto
          151 -97 85 -125 -126 -96 -85 -151 vhcurveto
          -59 callsubr
          vhcurveto
          612 29 callsubr
          -182 -95 callsubr
          182 19 callgsubr
        </CharString>
        <CharString name="Omega">
          35 0 42 561 42 hstem
          63 42 88 42 100 42 88 42 vstem
          193 109 -83 callgsubr
        </CharString>
        <CharString name="Omegatonos">
          72 0 42 488 220 -147 42 hstemhm
          34 89 -23 42 88 42 100 42 88 -31 callgsubr
          hintmask 01010000
          103 750 -101 callsubr
          hintmask 10101111
          127 -641 -83 callgsubr
        </CharString>
        <CharString name="Omicron">
          -19 callsubr
          287 -9 28 callsubr
          182 vlineto
          151 -97 85 -125 -126 -96 -85 -151 vhcurveto
          -59 callsubr
          vhcurveto
          612 29 callsubr
          -182 -95 callsubr
          182 19 callgsubr
        </CharString>
        <CharString name="Omicrontonos">
          68 -9 42 497 220 -147 42 hstemhm
          30 89 -25 42 360 -31 callgsubr
          hintmask 01010000
          99 750 -101 callsubr
          hintmask 10101100
          217 -759 28 callsubr
          182 vlineto
          151 -97 85 -125 -126 -96 -85 -151 vhcurveto
          -59 callsubr
          vhcurveto
          612 29 callsubr
          -182 -95 callsubr
          182 19 callgsubr
        </CharString>
        <CharString name="Oslash">
          -19 callsubr
          287 603 rmoveto
          48 40 -13 -26 31 hvcurveto
          -266 -461 rlineto
          -22 32 -11 42 50 vvcurveto
          182 vlineto
          121 68 73 112 vhcurveto
          173 35 rmoveto
          -8 -7 -5 -11 -6 hvcurveto
          -13 -22 rlineto
          30 -37 -49 15 -53 hhcurveto
          -126 -96 -85 -151 hvcurveto
          -182 vlineto
          -68 19 -55 33 -39 vhcurveto
          -17 -29 rlineto
          -3 -7 -2 -6 -6 vvcurveto
          -15 16 -4 4 8 8 5 11 6 vhcurveto
          12 21 rlineto
          -29 37 48 -15 53 hhcurveto
          -78 callgsubr
          hvcurveto
          182 vlineto
          67 -19 54 -33 40 vhcurveto
          19 30 rlineto
          3 7 2 6 5 vvcurveto
          16 -17 4 -4 vhcurveto
          -25 -107 rmoveto
          21 -31 11 -42 -49 vvcurveto
          -182 vlineto
          -122 -68 -72 -112 -48 -40 13 25 -30 vhcurveto
          endchar
        </CharString>
        <CharString name="Otilde">
          45 callsubr
          62 -25 callgsubr
          65 22 callgsubr
          hintmask 00000000
          hintmask 00010100
          334 755 -88 callgsubr
          -47 -764 28 callsubr
          182 vlineto
          151 -97 85 -125 -126 -96 -85 -151 vhcurveto
          -59 callsubr
          vhcurveto
          612 29 callsubr
          -182 -95 callsubr
          182 19 callgsubr
        </CharString>
        <CharString name="P">
          -15 14 -21 344 42 215 30 callgsubr
          126 20 rmoveto
          317 195 vlineto
          102 63 50 99 78 callgsubr
          hvcurveto
          -176 hlineto
          -14 -5 -10 -21 hvcurveto
          -585 -94 callsubr
          153 359 -64 callgsubr
        </CharString>
        <CharString name="Pecyrillic">
          67 14 -21 601 66 callsubr
          96 callgsubr
          84 636 rmoveto
          -613 vlineto
          -20 6 -25 callsubr
          5 -13 callsubr
          571 350 -571 -77 callsubr
          613 vlineto
          endchar
        </CharString>
        <CharString name="Phi">
          -5 -7 21 63 42 398 42 64 20 hstem
          43 42 161 42 157 42 vstem
          288 20 rmoveto
          57 vlineto
          114 10 85 83 142 vvcurveto
          12 vlineto
          142 -85 83 -114 10 vhcurveto
          56 -99 callgsubr
          -56 vlineto
          -117 -8 -86 -84 -143 vvcurveto
          -12 vlineto
          -143 86 -84 117 -8 vhcurveto
          -57 -94 callsubr
          99 vmoveto
          398 vlineto
          98 -10 59 -71 -112 vvcurveto
          -12 vlineto
          -113 -59 -71 -98 -9 vhcurveto
          -42 hmoveto
          -101 8 -60 70 115 vvcurveto
          12 vlineto
          114 60 71 101 8 vhcurveto
          endchar
        </CharString>
        <CharString name="Pi">
          67 -7 21 580 66 callsubr
          96 callgsubr
          84 636 rmoveto
          -613 vlineto
          -20 6 -25 callsubr
          5 -13 callsubr
          571 350 -571 -77 callsubr
          613 vlineto
          endchar
        </CharString>
        <CharString name="Psi">
          5 14 -21 231 -36 callgsubr
          -20 hstem
          48 43 callgsubr
          450 615 rmoveto
          -156 vlineto
          -114 -59 -70 -99 -9 vhcurveto
          349 -99 callgsubr
          -349 vlineto
          -100 8 -60 70 115 vvcurveto
          156 -99 callgsubr
          -156 vlineto
          -143 86 -84 116 -8 vhcurveto
          -204 -94 callsubr
          204 vlineto
          114 9 86 84 142 vvcurveto
          156 vlineto
          19 -7 9 -13 -14 -8 -9 -19 vhcurveto
          endchar
        </CharString>
        <CharString name="Q">
          -19 callsubr
          287 603 rmoveto
          -70 callsubr
          -182 vlineto
          -54 -13 -45 -25 -33 vhcurveto
          -58 59 rlineto
          7 -7 -7 4 -7 hhcurveto
          -12 -8 -12 -9 -6 4 -7 7 -7 hvcurveto
          58 -57 rlineto
          -23 -29 -38 -11 -45 hhcurveto
          -112 -68 72 122 hvcurveto
          182 vlineto
          121 68 73 112 vhcurveto
          -612 vmoveto
          54 49 16 30 39 hvcurveto
          37 -38 rlineto
          -7 8 7 -4 6 hhcurveto
          12 7 12 8 6 -3 8 -7 7 hvcurveto
          -38 38 rlineto
          32 38 19 55 67 vvcurveto
          182 vlineto
          151 -97 85 -125 -126 -96 -85 -151 vhcurveto
          -59 callsubr
          vhcurveto
          endchar
        </CharString>
        <CharString name="R">
          14 14 -21 344 -15 callsubr
          hstemhm
          84 42 318 42 -34 -31 callgsubr
          hintmask 11111000
          279 379 -79 callsubr
          -153 -359 rmoveto
          317 188 vlineto
          hintmask 11110100
          -22 callsubr
          hintmask 11111000
          -52 callgsubr
        </CharString>
        <CharString name="Racute">
          14 -7 21 323 -15 callsubr
          62 121 hstemhm
          84 42 82 122 114 42 -34 -31 callgsubr
          hintmask 00010100
          330 799 rmoveto
          -103 callsubr
          hintmask 11101010
          -51 -420 -48 callgsubr
        </CharString>
        <CharString name="Rcaron">
          14 -7 21 323 -15 callsubr
          42 134 hstemhm
          84 42 10 268 40 42 -34 -31 callgsubr
          hintmask 00010100
          296 678 -100 callsubr
          hintmask 11101010
          35 -299 -48 callgsubr
        </CharString>
        <CharString name="Rcommaaccent">
          14 -141 141 -7 21 323 -15 callsubr
          hstemhm
          84 42 121 83 114 42 -34 -31 callgsubr
          hintmask 10000100
          294 hmoveto
          -101 callgsubr
          hintmask 01111010
          -15 379 -79 callsubr
          -153 -359 rmoveto
          317 188 vlineto
          hintmask 01111001
          -22 callsubr
          hintmask 01111010
          -52 callgsubr
        </CharString>
        <CharString name="Rho">
          -13 -7 21 323 42 215 30 callgsubr
          126 20 rmoveto
          317 195 vlineto
          102 63 50 99 78 callgsubr
          hvcurveto
          -176 hlineto
          -14 -5 -10 -21 hvcurveto
          -585 -94 callsubr
          153 359 -64 callgsubr
        </CharString>
        <CharString name="S">
          44 callsubr
          hstem
          62 42 362 42 vstem
          104 484 -98 callgsubr
        </CharString>
        <CharString name="Sacute">
          44 callsubr
          54 121 hstem
          62 42 137 122 103 42 vstem
          363 799 rmoveto
          -103 callsubr
          -259 -315 -98 callgsubr
        </CharString>
        <CharString name="Scaron">
          44 callsubr
          34 134 hstem
          62 42 46 268 48 42 vstem
          310 678 -100 callsubr
          -154 -194 -98 callgsubr
        </CharString>
        <CharString name="Scedilla">
          35 -165 40 117 42 568 42 hstem
          62 42 219 42 101 42 vstem
          200 -17 callgsubr
          46 -48 4 -16 31 vhcurveto
          46 hlineto
          126 35 88 74 70 -27 76 -96 24 hvcurveto
          -217 52 rlineto
          -35 9 -29 42 57 vvcurveto
          46 24 72 78 vhcurveto
          96 callsubr
          53 -9 -122 -18 9 -10 12 14 8 10 18 152 -84 21 -124 hvcurveto
          -76 hlineto
          -126 -36 -86 -74 -88 32 -44 92 -23 hvcurveto
          216 -53 rlineto
          27 -6 37 -42 -74 vvcurveto
          -46 -23 -74 -79 vhcurveto
          -93 hlineto
          -113 -53 11 122 18 -8 10 -12 -15 -8 -10 -18 -146 78 -27 117 -2 hvcurveto
          13 -46 53 -7 -33 -50 callgsubr
          hvcurveto
          endchar
        </CharString>
        <CharString name="Scircumflex">
          44 callsubr
          7 72 callsubr
          26 273 63 42 vstem
          267 773 -107 callgsubr
          -160 -289 -98 callgsubr
        </CharString>
        <CharString name="Scommaaccent">
          35 -205 141 56 42 568 42 hstem
          62 42 141 83 138 42 vstem
          292 -64 rmoveto
          -101 callgsubr
          -188 548 -98 callgsubr
        </CharString>
        <CharString name="Shacyrillic">
          139 0 66 callsubr
          190 42 190 42 cntrmask 01110000
          84 hmoveto
          506 571 23 callsubr
          -529 -190 529 vlineto
          20 -7 10 -15 -15 -5 -10 -20 vhcurveto
          endchar
        </CharString>
        <CharString name="Shchacyrillic">
          153 0 66 callsubr
          190 42 190 42 16 42 vstem
          316 571 rmoveto
          -529 -190 63 callgsubr
          522 42 callgsubr
          -12 529 23 callsubr
          endchar
        </CharString>
        <CharString name="Sigma">
          22 0 42 553 42 hstem
          29 -47 callsubr
        </CharString>
        <CharString name="Softsigncyrillic">
          -11 -7 42 384 30 callgsubr
          279 461 -19 callgsubr
        </CharString>
        <CharString name="T">
          -75 14 -21 601 42 hstem
          209 42 vstem
          405 636 -80 callgsubr
        </CharString>
        <CharString name="Tau">
          -75 -7 21 580 42 hstem
          209 42 vstem
          405 636 -80 callgsubr
        </CharString>
        <CharString name="Tbar">
          -73 14 -21 325 43 233 42 hstem
          210 42 vstem
          110 318 rmoveto
          100 -298 26 callsubr
          8 9 18 vhcurveto
          298 103 vlineto
          18 11 8 12 15 -11 8 -18 hvcurveto
          -103 233 154 hlineto
          -72 callgsubr
          -351 hlineto
          -64 callsubr
          155 -233 -100 10 callgsubr
        </CharString>
        <CharString name="Tcaron">
          -75 -7 21 580 42 42 134 hstemhm
          98 268 -157 -31 callgsubr
          hintmask 00110000
          258 678 -100 callsubr
          hintmask 11001000
          199 -42 -80 callgsubr
        </CharString>
        <CharString name="Tcommaaccent">
          -75 -165 40 719 42 hstem
          209 42 27 42 vstem
          251 15 rmoveto
          579 23 callgsubr
          -579 hlineto
          -68 69 -3 -38 -50 callgsubr
          -36 54 -9 20 52 39 31 45 hvcurveto
          56 -69 -6 54 vvcurveto
          endchar
        </CharString>
        <CharString name="Tecyrillic">
          -75 -7 21 580 42 hstem
          209 42 vstem
          405 636 -80 callgsubr
        </CharString>
        <CharString name="Theta">
          39 -9 42 263 43 264 70 callgsubr
          203 296 rmoveto
          165 92 callsubr
          -165 91 callgsubr
          84 -305 28 callsubr
          182 vlineto
          151 -97 85 -125 -126 -96 -85 -151 vhcurveto
          -59 callsubr
          vhcurveto
          612 29 callsubr
          -182 -95 callsubr
          182 19 callgsubr
        </CharString>
        <CharString name="Thorn">
          -35 14 -21 168 42 216 66 callsubr
          296 43 vstem
          126 461 rmoveto
          112 -99 callgsubr
          -553 -94 callsubr
          141 172 vlineto
          102 65 50 100 100 -64 50 -102 hvcurveto
          -173 -42 rmoveto
          131 hlineto
          112 53 -17 -92 hvcurveto
          -93 -1 -53 -14 -112 hhcurveto
          -130 hlineto
          endchar
        </CharString>
        <CharString name="Tsecyrillic">
          23 0 66 callsubr
          292 42 16 42 vstem
          518 -62 rmoveto
          31 callgsubr
          -12 529 hlineto
          20 -6 10 -15 -16 -5 -14 callgsubr
          -529 -292 63 callgsubr
          392 -62 76 callgsubr
        </CharString>
        <CharString name="Tshecyrillic">
          147 14 48 callgsubr
          594 rmoveto
          -72 callgsubr
          3 callsubr
          7 callgsubr
          -66 -62 -23 -49 -38 vhcurveto
          205 vlineto
          endchar
        </CharString>
        <CharString name="U">
          63 -9 42 610 -20 hstem
          77 -38 callgsubr
          vstem
          479 615 rmoveto
          -94 callgsubr
          -151 96 -85 126 -78 callgsubr
          vhcurveto
          -33 callsubr
          -13 -14 -8 -9 -19 vhcurveto
          endchar
        </CharString>
        <CharString name="Uacute">
          34 callsubr
          160 145 55 42 77 callgsubr
          424 -43 callgsubr
          hintmask 11010100
          55 -168 rmoveto
          -94 callgsubr
          -151 96 -85 126 -78 callgsubr
          vhcurveto
          -33 callsubr
          -13 -14 -8 -9 -19 vhcurveto
          endchar
        </CharString>
        <CharString name="Ubreve">
          35 callsubr
          -7 44 hstemhm
          77 42 66 74 callgsubr
          64 -31 callgsubr
          hintmask 00101100
          415 757 -93 callsubr
          hintmask 11010010
          64 -142 rmoveto
          -94 callgsubr
          -151 96 -85 126 -78 callgsubr
          vhcurveto
          -33 callsubr
          -13 -14 -8 -9 -19 vhcurveto
          endchar
        </CharString>
        <CharString name="Ucircumflex">
          35 callsubr
          8 168 hstem
          77 30 callsubr
          300 773 -107 callgsubr
          182 -158 rmoveto
          -94 callgsubr
          -151 96 -85 126 -78 callgsubr
          vhcurveto
          -33 callsubr
          -13 -14 -8 -9 -19 vhcurveto
          endchar
        </CharString>
        <CharString name="Ucyrillic">
          -29 -6 42 hstemhm
          41 42 -22 42 340 -31 callgsubr
          hintmask 10110000
          155 36 -7 callsubr
          hintmask 11010000
          8 callsubr
        </CharString>
        <CharString name="Udieresis">
          35 callsubr
          64 72 hstem
          77 19 callsubr
          327 743 -102 callgsubr
          298 -128 rmoveto
          -94 callgsubr
          -151 96 -85 126 -78 callgsubr
          vhcurveto
          -33 callsubr
          -13 -14 -8 -9 -19 vhcurveto
          endchar
        </CharString>
        <CharString name="Ugrave">
          34 callsubr
          79 145 136 42 77 callgsubr
          198 783 -97 callgsubr
          hintmask 11010100
          281 -168 rmoveto
          -94 callgsubr
          -151 96 -85 126 -78 callgsubr
          vhcurveto
          -33 callsubr
          -13 -14 -8 -9 -19 vhcurveto
          endchar
        </CharString>
        <CharString name="Uhorn">
          61 callgsubr
          101 -20 hstem
          77 -38 callgsubr
          87 44 vstem
          570 656 -88 callsubr
          -39 -31 -12 -56 -2 vhcurveto
          73 vlineto
          19 -7 9 -13 -14 -8 -9 -19 vhcurveto
          -94 callgsubr
          -151 96 -85 126 -78 callgsubr
          vhcurveto
          274 vlineto
          75 3 56 23 64 9 callgsubr
        </CharString>
        <CharString name="Uhungarumlaut">
          34 callsubr
          93 145 -25 145 2 -31 callgsubr
          hintmask 00100100
          477 -43 callgsubr
          hintmask 00101000
          -120 hmoveto
          -104 callsubr
          hintmask 11010010
          122 -168 rmoveto
          -94 callgsubr
          -151 96 -85 126 -78 callgsubr
          vhcurveto
          -33 callsubr
          -13 -14 -8 -9 -19 vhcurveto
          endchar
        </CharString>
        <CharString name="Umacron">
          35 callsubr
          63 43 hstem
          77 42 31 300 29 42 vstem
          176 706 rmoveto
          -90 callgsubr
          303 -91 rmoveto
          -94 callgsubr
          -151 96 -85 126 -78 callgsubr
          vhcurveto
          -33 callsubr
          -13 -14 -8 -9 -19 vhcurveto
          endchar
        </CharString>
        <CharString name="Uogonek">
          65 -204 40 807 -20 hstem
          78 42 105 42 213 42 vstem
          390 -159 -62 callgsubr
          22 31 54 25 21 hvcurveto
          114 10 85 83 142 vvcurveto
          -33 callsubr
          -13 -14 -8 -9 -19 vhcurveto
          -94 callgsubr
          -139 82 -83 111 -12 vhcurveto
          -23 -32 -23 -41 -25 -34 callsubr
          endchar
        </CharString>
        <CharString name="Upsilon">
          -36 -52 callsubr
          hstem
          229 41 vstem
          229 310 -98 callsubr
        </CharString>
        <CharString name="Upsilondieresis">
          -36 -52 callsubr
          64 72 hstem
          131 92 6 41 7 92 vstem
          277 743 -102 callgsubr
          98 -433 -98 callsubr
        </CharString>
        <CharString name="Upsilontonos">
          77 -7 21 512 220 -123 20 hstemhm
          25 89 228 41 hintmask 00000000
          hintmask 01010000
          94 746 -101 callsubr
          hintmask 10101000
          248 -436 -98 callsubr
        </CharString>
        <CharString name="Uring">
          35 callsubr
          -3 27 98 27 hstemhm
          77 42 106 27 98 27 102 -31 callgsubr
          hintmask 00110110
          252 716 -76 callgsubr
          hintmask 11001001
          254 -101 rmoveto
          -94 callgsubr
          -151 96 -85 126 -78 callgsubr
          vhcurveto
          -33 callsubr
          -13 -14 -8 -9 -19 vhcurveto
          endchar
        </CharString>
        <CharString name="Ushortcyrillic">
          -29 -6 42 600 42 hstemhm
          41 42 -22 42 15 42 205 42 36 -31 callgsubr
          hintmask 01001100
          407 770 -73 callgsubr
          hintmask 10010010
          -252 -712 -7 callsubr
          hintmask 10100010
          8 callsubr
        </CharString>
        <CharString name="Utilde">
          35 callsubr
          64 -25 callgsubr
          77 42 45 272 43 -31 callgsubr
          hintmask 00010100
          347 755 -88 callgsubr
          132 -140 rmoveto
          -94 callgsubr
          -151 96 -85 126 -78 callgsubr
          vhcurveto
          -33 callsubr
          -13 -14 -8 -9 -19 vhcurveto
          endchar
        </CharString>
        <CharString name="V">
          13 21 -21 hstem
          23 43 416 43 vstem
          23 632 rmoveto
          -4 1 -5 2 -6 vhcurveto
          225 -617 rlineto
          46 hlineto
          225 617 rlineto
          2 6 1 5 4 vvcurveto
          16 -17 4 -4 -9 -8 -7 -13 -5 vhcurveto
          -208 -572 -208 572 rlineto
          13 -6 -7 7 -9 hhcurveto
          -4 -17 -4 -16 hvcurveto
          endchar
        </CharString>
        <CharString name="Vecyrillic">
          49 -33 callgsubr
          hstemhm
          84 42 318 42 0 -31 callgsubr
          hintmask 11110100
          126 42 rmoveto
          295 195 vlineto
          111 54 -18 callsubr
          hvcurveto
          -29 vlineto
          -84 callsubr
          -237 -11 rmoveto
          -27 callsubr
          29 vlineto
          100 -35 44 -62 19 vhcurveto
          hintmask 11111000
          35 22 20 37 60 vvcurveto
          78 callgsubr
          vhcurveto
          -176 hlineto
          -14 -5 -10 -21 hvcurveto
          195 -226 -64 callgsubr
        </CharString>
        <CharString name="W">
          357 21 -21 hstem
          444 652 -89 callgsubr
        </CharString>
        <CharString name="Wacute">
          357 0 21 677 121 hstem
          424 122 vstem
          546 799 rmoveto
          -103 callsubr
          -102 -147 -89 callgsubr
        </CharString>
        <CharString name="Wcircumflex">
          357 0 21 630 168 hstem
          308 273 vstem
          445 773 -107 callgsubr
          2 -121 -89 callgsubr
        </CharString>
        <CharString name="Wdieresis">
          357 0 21 692 72 hstem
          326 92 54 92 vstem
          472 749 -102 callgsubr
          118 -97 -89 callgsubr
        </CharString>
        <CharString name="Wgrave">
          357 0 21 677 121 hstem
          343 122 vstem
          343 799 -100 callgsubr
          101 -147 -89 callgsubr
        </CharString>
        <CharString name="X">
          2 14 -21 650 -20 -82 callsubr
        </CharString>
        <CharString name="Xi">
          57 0 42 254 43 256 42 hstem
          197 296 rmoveto
          195 92 callsubr
          -195 91 callgsubr
          -117 299 rmoveto
          430 1 callsubr
          -430 hlineto
          -18 -8 -8 -13 -14 8 -7 18 hvcurveto
          -595 vmoveto
          430 1 callsubr
          -430 hlineto
          -18 -8 -8 -13 -14 8 -7 18 hvcurveto
          endchar
        </CharString>
        <CharString name="Y">
          -36 14 -21 650 -20 hstem
          229 41 vstem
          229 310 -98 callsubr
        </CharString>
        <CharString name="Yacute">
          -36 -7 21 609 87 callgsubr
          229 41 -41 145 77 callgsubr
          374 -43 callgsubr
          hintmask 11010000
          -145 -473 -98 callsubr
        </CharString>
        <CharString name="Yatcyrillic">
          96 -7 42 324 42 60 42 140 -20 hstem
          205 42 306 42 vstem
          205 612 rmoveto
          -109 -147 vlineto
          -64 callsubr
          147 -437 hlineto
          -20 7 -11 14 vhcurveto
          162 hlineto
          124 83 80 124 123 -83 81 -124 hvcurveto
          -141 60 150 hlineto
          -72 callgsubr
          -150 109 hlineto
          -72 callsubr
          42 -577 rmoveto
          324 141 vlineto
          111 54 -69 -93 -94 -54 -68 -111 hvcurveto
          endchar
        </CharString>
        <CharString name="Ycircumflex">
          -36 -52 callsubr
          8 168 hstemhm
          112 273 -156 41 hintmask 00000000
          hintmask 00110000
          249 773 -107 callgsubr
          hintmask 11001000
          -17 -463 -98 callsubr
        </CharString>
        <CharString name="Ydieresis">
          -36 -52 callsubr
          64 72 hstem
          131 92 6 41 7 92 vstem
          277 743 -102 callgsubr
          98 -433 -98 callsubr
        </CharString>
        <CharString name="Yericyrillic">
          128 -7 21 -21 42 384 42 162 20 hstemhm
          84 42 318 42 51 -31 callgsubr
          hintmask 10010010
          579 20 rmoveto
          595 -99 callgsubr
          -595 -94 callsubr
          hintmask 01101100
          -300 441 -19 callgsubr
        </CharString>
        <CharString name="Ygrave">
          -36 -7 21 609 87 callgsubr
          125 145 -41 41 hintmask 00000000
          hintmask 00110000
          125 783 -97 callgsubr
          hintmask 11001000
          104 -473 -98 callsubr
        </CharString>
        <CharString name="Yicyrillic">
          17 callgsubr
          64 72 hstem
          -13 92 5 42 7 92 vstem
          133 743 -102 callgsubr
          139 -723 rmoveto
          595 -99 callgsubr
          -595 -94 callsubr
          endchar
        </CharString>
        <CharString name="Z">
          0 -7 callgsubr
          hstem
          46 hmoveto
          413 hlineto
          20 10 6 14 17 -10 5 -20 hvcurveto
          -364 hlineto
          394 548 rlineto
          46 -413 vlineto
          -21 -10 -6 -15 -16 10 -5 21 hvcurveto
          366 hlineto
          -396 -550 rlineto
          endchar
        </CharString>
        <CharString name="Zacute">
          0 -7 callgsubr
          62 121 hstem
          242 122 vstem
          364 799 rmoveto
          -103 callsubr
          -318 -799 rmoveto
          413 hlineto
          20 10 6 14 17 -10 5 -20 hvcurveto
          -364 hlineto
          394 548 rlineto
          46 -413 vlineto
          -21 -10 -6 -15 -16 10 -5 21 hvcurveto
          366 hlineto
          -396 -550 rlineto
          endchar
        </CharString>
        <CharString name="Zcaron">
          0 -7 callgsubr
          42 134 hstem
          139 268 vstem
          299 678 -100 callsubr
          -201 -678 rmoveto
          413 hlineto
          20 10 6 14 17 -10 5 -20 hvcurveto
          -364 hlineto
          394 548 rlineto
          46 -413 vlineto
          -21 -10 -6 -15 -16 10 -5 21 hvcurveto
          366 hlineto
          -396 -550 rlineto
          endchar
        </CharString>
        <CharString name="Zdotaccent">
          0 -7 callgsubr
          70 72 hstem
          221 92 vstem
          221 742 rmoveto
          -105 callgsubr
          -175 -742 rmoveto
          413 hlineto
          20 10 6 14 17 -10 5 -20 hvcurveto
          -364 hlineto
          394 548 rlineto
          46 -413 vlineto
          -21 -10 -6 -15 -16 10 -5 21 hvcurveto
          366 hlineto
          -396 -550 rlineto
          endchar
        </CharString>
        <CharString name="Zecyrillic">
          28 0 42 265 42 245 42 hstem
          55 -38 callgsubr
          vstem
          258 349 rmoveto
          -20 -11 -4 -17 -17 11 -4 20 hvcurveto
          86 hlineto
          62 51 -60 -73 -46 -42 -86 18 callsubr
          85 67 81 93 66 -32 57 -47 30 hvcurveto
          47 27 32 52 66 vvcurveto
          93 -67 71 -85 vhcurveto
          -197 hlineto
          37 callgsubr
          -19 6 -11 14 16 6 11 19 hvcurveto
          18 vlineto
          46 14 18 46 vhcurveto
          183 hlineto
          75 42 -76 -46 -73 -51 -50 -62 hvcurveto
          endchar
        </CharString>
        <CharString name="Zeta">
          0 -7 callgsubr
          hstem
          46 hmoveto
          413 hlineto
          20 10 6 14 17 -10 5 -20 hvcurveto
          -364 hlineto
          394 548 rlineto
          46 -413 vlineto
          -21 -10 -6 -15 -16 10 -5 21 hvcurveto
          366 hlineto
          -396 -550 rlineto
          endchar
        </CharString>
        <CharString name="Zhecyrillic">
          113 -7 42 240 42 240 42 hstem
          130 42 132 42 130 42 cntrmask 11100000
          304 317 rmoveto
          -79 -53 29 46 hvcurveto
          83 vlineto
          113 -44 11 -58 -20 -11 -5 -16 -15 11 -6 20 -51 callgsubr
          vhcurveto
          -93 68 callgsubr
          -93 vlineto
          -40 callgsubr
          83 vlineto
          46 53 29 79 vhcurveto
          -255 -94 callsubr
          255 vlineto
          46 -1 84 -29 -45 vvcurveto
          -63 callsubr
          253 -99 callgsubr
          endchar
        </CharString>
        <CharString name="a">
          -67 callsubr
          hstem
          60 42 318 42 vstem
          268 248 -107 callsubr
        </CharString>
        <CharString name="aacute">
          -67 callsubr
          49 168 hstem
          60 42 139 145 34 42 vstem
          386 -99 callsubr
          -118 -409 -107 callsubr
        </CharString>
        <CharString name="abreve">
          -67 callsubr
          61 44 hstem
          60 42 55 74 callgsubr
          33 42 vstem
          387 643 -93 callsubr
          -119 -395 -107 callsubr
        </CharString>
        <CharString name="acircumflex">
          -67 callsubr
          61 168 hstem
          60 42 23 273 22 42 vstem
          262 644 -107 callgsubr
          9 -396 -107 callsubr
        </CharString>
        <CharString name="acute">
          81 callgsubr
          179 -99 callsubr
          endchar
        </CharString>
        <CharString name="acutecomb">
          510 121 hstem
          -370 122 vstem
          -248 611 rmoveto
          -103 callsubr
          endchar
        </CharString>
        <CharString name="acyrillic">
          -67 callsubr
          hstem
          60 42 318 42 vstem
          268 248 -107 callsubr
        </CharString>
        <CharString name="adieresis">
          -67 callsubr
          61 72 hstem
          60 42 40 92 54 92 40 42 vstem
          288 558 -102 callgsubr
          126 -310 -107 callsubr
        </CharString>
        <CharString name="ae">
          389 0 42 211 42 124 42 hstem
          60 42 324 42 354 42 vstem
          276 253 rmoveto
          150 -20 hlineto
          -116 -59 -75 -113 vhcurveto
          -92 hlineto
          -31 -29 34 37 120 55 20 119 hvcurveto
          546 42 rmoveto
          -354 hlineto
          105 2 39 19 132 hhcurveto
          8 hlineto
          131 40 -20 -104 2 hvcurveto
          -362 115 rmoveto
          21 -8 -9 30 -69 hhcurveto
          -153 hlineto
          -75 -86 -21 -86 -22 8 -8 12 18 4 10 20 52 59 13 67 hvcurveto
          139 hlineto
          47 12 -20 -42 hvcurveto
          -62 -150 vlineto
          -132 -84 -36 -141 -73 44 -45 58 hvcurveto
          92 hlineto
          58 87 26 50 36 hvcurveto
          5 6 rlineto
          -41 21 27 -41 153 hhcurveto
          128 hlineto
          81 14 47 59 -24 callsubr
          -15 -9 -12 -3 -25 -45 -12 -22 -48 hvcurveto
          -121 hlineto
          -120 -53 10 120 hvcurveto
          81 396 37 vlineto
          143 -75 28 -140 vhcurveto
          -8 hlineto
          -128 -30 -28 -23 -23 hvcurveto
          endchar
        </CharString>
        <CharString name="afii00208">
          114 71 callgsubr
          448 hlineto
          18 11 8 12 15 -11 8 -18 hvcurveto
          -448 10 callgsubr
        </CharString>
        <CharString name="agrave">
          -67 callsubr
          46 168 hstem
          60 42 58 145 115 42 vstem
          160 654 -97 callgsubr
          108 -406 -107 callsubr
        </CharString>
        <CharString name="akayahli">
          38 0 42 106 42 27 42 11 42 107 42 hstemhm
          64 85 callgsubr
          hintmask 00000000
          hintmask 11111101
          219 217 rmoveto
          20 11 5 16 15 -11 6 -20 -68 -46 14 77 46 15 23 46 hvcurveto
          -28 callgsubr
          -42 -81 vlineto
          hintmask 11111110
          -21 -10 -6 -14 -17 10 -5 21 hvcurveto
          hintmask 11111101
          123 67 hlineto
          93 -21 31 -74 vhcurveto
          -254 hlineto
          -74 -21 54 callsubr
          21 -31 -20 callgsubr
          31 93 hvcurveto
          66 -123 vlineto
          hintmask 11111110
          -21 79 callgsubr
          21 hvcurveto
          hintmask 11111101
          81 -42 hlineto
          -39 callgsubr
          23 46 76 45 30 68 hvcurveto
          endchar
        </CharString>
        <CharString name="alpha">
          29 -15 callgsubr
          60 42 301 42 vstem
          505 hmoveto
          -73 callsubr
          332 -76 callsubr
          -38 vlineto
          45 -38 -59 16 -54 hhcurveto
          -124 -68 -44 -151 hvcurveto
          -71 vlineto
          -151 68 -44 124 56 61 17 49 38 vhcurveto
          -48 9 26 -18 56 hhcurveto
          -246 419 rmoveto
          80 71 -31 -122 hvcurveto
          -71 vlineto
          -122 -71 -31 -80 -111 -39 31 122 vhcurveto
          71 vlineto
          122 39 31 111 vhcurveto
          endchar
        </CharString>
        <CharString name="alphatonos">
          29 0 -35 callgsubr
          68 220 hstem
          60 42 122 89 90 42 vstem
          293 749 -101 callsubr
          212 -749 rmoveto
          -73 callsubr
          332 -76 callsubr
          -38 vlineto
          45 -38 -59 16 -54 hhcurveto
          -124 -68 -44 -151 hvcurveto
          -71 vlineto
          -151 68 -44 124 56 61 17 49 38 vhcurveto
          -48 9 26 -18 56 hhcurveto
          -246 419 rmoveto
          80 71 -31 -122 hvcurveto
          -71 vlineto
          -122 -71 -31 -80 -111 -39 31 122 vhcurveto
          71 vlineto
          122 39 31 111 vhcurveto
          endchar
        </CharString>
        <CharString name="amacron">
          -67 callsubr
          61 43 hstem
          60 42 13 300 5 42 vstem
          141 522 rmoveto
          -90 callgsubr
          127 -274 -107 callsubr
        </CharString>
        <CharString name="ampersand">
          -41 -9 42 572 42 hstemhm
          37 42 -17 44 313 41 hintmask 00000000
          hintmask 11011000
          374 528 rmoveto
          11 -50 108 -87 -79 -96 -66 -105 -31 13 -33 34 -39 vhcurveto
          14 -17 rlineto
          hintmask 11101000
          -62 -41 -24 -75 -58 vvcurveto
          -143 122 -48 82 48 54 21 40 43 vhcurveto
          39 -45 rlineto
          -10 9 10 -4 7 hhcurveto
          9 8 6 12 5 -1 7 -5 6 hvcurveto
          -48 55 rlineto
          27 37 19 48 58 vvcurveto
          21 -4 10 -15 -16 -6 -10 -21 -44 -13 -37 -21 -29 vhcurveto
          -240 277 rlineto
          hintmask 11011000
          -28 32 -11 28 22 vvcurveto
          83 70 46 59 vhcurveto
          77 10 -97 31 hhcurveto
          12 9 10 10 hvcurveto
          -15 -444 rmoveto
          -33 -35 -45 -18 -38 hhcurveto
          hintmask 11101000
          -68 -94 35 114 49 18 63 54 31 hvcurveto
          endchar
        </CharString>
        <CharString name="anoteleia">
          -303 351 72 hstem
          70 92 vstem
          70 387 rmoveto
          -105 callgsubr
          endchar
        </CharString>
        <CharString name="aogonek">
          -1 -204 40 164 -61 callsubr
          hstem
          60 42 247 42 29 42 vstem
          514 -159 -62 callgsubr
          23 35 59 25 18 hvcurveto
          8 4 3 10 14 vvcurveto
          314 vlineto
          -58 callgsubr
          -155 hlineto
          -82 -70 -30 -77 -20 -70 callgsubr
          20 50 54 15 63 hvcurveto
          141 -53 callsubr
          -152 vlineto
          -125 -83 -26 -144 -75 44 -45 58 hvcurveto
          93 -74 callsubr
          -49 vlineto
          -27 -28 -44 -66 -34 -34 callsubr
          -246 407 rmoveto
          152 -20 -56 callsubr
          -93 hlineto
          -31 -29 35 38 -85 callsubr
          hvcurveto
          endchar
        </CharString>
        <CharString name="approxequal">
          -4 259 46 -6 46 34 -25 callgsubr
          hintmask 00000000
          hintmask 10000000
          343 305 -2 callgsubr
          hintmask 00100000
          120 vmoveto
          hintmask 00010000
          -32 -82 40 -46 hhcurveto
          -33 -68 -46 -22 -12 15 -7 12 hvcurveto
          29 15 41 40 hhcurveto
          hintmask 00100000
          32 81 -40 46 hhcurveto
          33 70 46 23 11 -15 7 -14 hvcurveto
          -28 -15 -41 -40 hhcurveto
          endchar
        </CharString>
        <CharString name="aring">
          -67 callsubr
          61 27 98 27 hstem
          60 42 84 27 98 27 82 42 vstem
          213 598 -76 callgsubr
          82 -350 -107 callsubr
        </CharString>
        <CharString name="asciicircum">
          -92 365 271 hstem
          85 42 189 42 vstem
          223 590 rmoveto
          93 -207 rlineto
          -14 7 7 -4 10 hhcurveto
          10 8 6 12 4 0 2 -2 4 hvcurveto
          -107 243 rlineto
          -54 hlineto
          -108 -243 rlineto
          -1 -4 -1 -2 -23 callsubr
          8 -6 10 11 6 4 14 7 vhcurveto
          93 207 rlineto
          endchar
        </CharString>
        <CharString name="asciitilde">
          -117 183 -25 callgsubr
          73 272 hintmask 00000000
          hintmask 01100000
          256 231 -106 callgsubr
          hintmask 10100000
          -105 callsubr
          endchar
        </CharString>
        <CharString name="asterisk">
          -148 346 290 hstem
          172 42 vstem
          322 429 rmoveto
          8 -6 7 -11 7 vhcurveto
          -69 41 69 39 rlineto
          11 7 6 7 8 vvcurveto
          8 -8 12 -12 -5 -6 -2 -3 -7 vhcurveto
          -70 -41 rlineto
          81 vlineto
          55 callgsubr
          -81 vlineto
          -70 41 rlineto
          3 -7 -6 2 -5 hhcurveto
          -15 -4 -16 -4 -8 5 -7 11 -7 hvcurveto
          70 -39 -70 -41 rlineto
          -11 -7 -5 -7 -8 vvcurveto
          -8 7 -12 12 5 6 2 3 7 vhcurveto
          70 41 rlineto
          -81 vlineto
          -19 7 -9 14 14 7 9 19 vhcurveto
          81 vlineto
          70 -41 rlineto
          -3 7 6 -2 5 hhcurveto
          15 5 16 4 hvcurveto
          endchar
        </CharString>
        <CharString name="at">
          49 0 42 148 42 199 42 121 42 hstem
          71 42 63 42 159 42 55 42 vstem
          420 hmoveto
          82 callgsubr
          -19 -48 -15 -19 -46 hvcurveto
          -134 hlineto
          -112 -54 76 123 hvcurveto
          154 vlineto
          123 54 76 112 vhcurveto
          29 hlineto
          111 55 -76 -123 -121 -17 -20 -51 -11 hvcurveto
          9 22 4 30 37 vvcurveto
          97 -24 44 -98 -97 -24 -44 -97 -98 24 -44 97 209 10 80 125 152 -83 89 -125 vhcurveto
          -29 hlineto
          -125 -83 -89 -152 hvcurveto
          -154 vlineto
          -152 83 -89 125 vhcurveto
          18 232 rmoveto
          -72 -7 27 73 72 7 27 72 73 7 -27 -72 -73 -7 -27 -73 hvcurveto
          endchar
        </CharString>
        <CharString name="atilde">
          -67 callsubr
          62 -25 callgsubr
          60 42 24 272 22 -31 callgsubr
          hintmask 00001010
          309 -56 callgsubr
          -41 -323 -107 callsubr
        </CharString>
        <CharString name="b">
          45 0 -35 callgsubr
          182 44 callgsubr
          116 389 rmoveto
          223 -81 callsubr
          -81 callgsubr
          49 vlineto
          -49 38 62 -23 66 hhcurveto
          29 hlineto
          39 callsubr
          -66 -62 -23 -49 -38 hvcurveto
          166 30 rmoveto
          -63 callgsubr
          -26 callgsubr
          -84 callsubr
          -29 hlineto
          -106 -60 66 120 hvcurveto
          4 vlineto
          121 60 66 106 vhcurveto
          endchar
        </CharString>
        <CharString name="backslash">
          63 callsubr
          64 645 rmoveto
          -7 -14 -4 -15 -4 1 -6 2 -6 hvcurveto
          218 -598 rlineto
          -13 4 7 -7 9 hhcurveto
          8 14 4 15 4 -1 5 -2 7 hvcurveto
          -218 598 rlineto
          13 -4 -7 7 -10 hhcurveto
          endchar
        </CharString>
        <CharString name="bakayahli">
          50 -12 42 -37 21 118 -62 callsubr
        </CharString>
        <CharString name="bar">
          -331 -52 callsubr
          hstem
          81 42 vstem
          123 20 rmoveto
          595 -99 callgsubr
          -595 -94 callsubr
          endchar
        </CharString>
        <CharString name="becyrillic">
          42 0 -35 callgsubr
          133 42 hstem
          71 -38 callgsubr
          vstem
          113 419 rmoveto
          14 callsubr
          -26 callgsubr
          -84 callsubr
          -30 hlineto
          -111 -54 11 122 hvcurveto
          1 286 rmoveto
          129 91 4 237 21 10 5 14 17 -10 6 -21 -248 -123 -12 -167 vhcurveto
          -282 vlineto
          -151 83 -24 124 vhcurveto
          30 hlineto
          -6 callgsubr
          endchar
        </CharString>
        <CharString name="beta">
          -69 -7 40 299 42 220 42 hstem
          75 42 214 42 3 42 vstem
          117 55 rmoveto
          -26 23 45 -36 71 hhcurveto
          64 98 20 165 51 -17 99 90 callgsubr
          83 -62 56 -84 -69 -82 -22 -153 -1 vhcurveto
          -577 vlineto
          -21 -10 callgsubr
          17 6 10 21 vhcurveto
          234 vmoveto
          343 vlineto
          122 47 11 63 51 53 -33 -62 -89 -60 -36 -74 vhcurveto
          -42 vlineto
          136 43 -78 -76 -144 -87 -1 -35 -59 -51 52 33 -27 hvcurveto
          endchar
        </CharString>
        <CharString name="braceleft">
          -285 73 callsubr
          hstemhm
          82 42 -14 -31 callgsubr
          hintmask 11010000
          76 317 rmoveto
          0 76 40 43 vvcurveto
          hintmask 11100000
          46 -28 54 28 vvcurveto
          87 6 21 72 vhcurveto
          42 vlineto
          -84 -36 -27 -123 hvcurveto
          hintmask 11010000
          -36 28 -55 -37 vvcurveto
          -43 -76 -40 0 vhcurveto
          0 76 -38 -43 vvcurveto
          hintmask 11100000
          -37 -28 -55 -36 vvcurveto
          -123 36 -27 84 vhcurveto
          42 vlineto
          -72 -6 20 88 hvcurveto
          hintmask 11010000
          28 28 53 47 vvcurveto
          43 -76 38 0 vhcurveto
          endchar
        </CharString>
        <CharString name="braceright">
          -284 73 callsubr
          hstemhm
          98 42 -14 -31 callgsubr
          hintmask 11100000
          174 318 rmoveto
          0 -76 -39 -43 vvcurveto
          hintmask 11010000
          -47 28 -53 -28 vvcurveto
          -88 -6 -20 -72 vhcurveto
          -42 vlineto
          84 36 27 123 hvcurveto
          hintmask 11100000
          36 -28 55 37 vvcurveto
          43 76 39 0 vhcurveto
          0 -76 39 43 vvcurveto
          hintmask 11010000
          37 28 55 36 vvcurveto
          123 -36 27 -84 vhcurveto
          -42 vlineto
          72 6 -21 -87 hvcurveto
          hintmask 11100000
          -28 -28 -54 -46 vvcurveto
          -43 76 -39 0 vhcurveto
          endchar
        </CharString>
        <CharString name="bracketleft">
          -291 73 callsubr
          hstemhm
          80 42 -42 120 hintmask 00000000
          hintmask 11010000
          200 636 rmoveto
          42 -120 -720 120 42 vlineto
          hintmask 11100000
          -78 636 hlineto
          endchar
        </CharString>
        <CharString name="bracketright">
          -291 73 callsubr
          hstemhm
          44 120 -42 -31 callgsubr
          hintmask 11100000
          44 hmoveto
          -42 120 720 -120 -42 vlineto
          hintmask 11010000
          78 -636 hlineto
          endchar
        </CharString>
        <CharString name="breve">
          -107 608 44 hstem
          99 74 callgsubr
          vstem
          329 729 -93 callsubr
          endchar
        </CharString>
        <CharString name="breve.acute">
          83 callgsubr
          53 122 -31 43 hintmask 00000000
          hintmask 10101000
          275 700 -93 callsubr
          hintmask 01010000
          -12 80 rmoveto
          -103 callsubr
          endchar
        </CharString>
        <CharString name="breve.grave">
          83 callgsubr
          -32 122 54 43 hintmask 00000000
          hintmask 10101000
          275 700 -93 callsubr
          hintmask 01010000
          -219 80 -100 callgsubr
          endchar
        </CharString>
        <CharString name="breve.hook">
          -215 579 44 167 33 hstem
          45 43 18 -27 callgsubr
          3 43 vstem
          275 700 -93 callsubr
          -135 70 -104 callgsubr
          endchar
        </CharString>
        <CharString name="breve.tilde">
          -173 579 44 109 -25 callgsubr
          45 272 -253 74 callgsubr
          hintmask 00000000
          hintmask 10001100
          294 700 -93 callsubr
          hintmask 00110000
          -66 80 -106 callgsubr
          hintmask 01010000
          -105 callsubr
          endchar
        </CharString>
        <CharString name="brokenbar">
          -328 14 -21 650 -20 hstem
          83 41 vstem
          83 616 rmoveto
          -215 vlineto
          -18 7 -10 12 14 8 10 18 vhcurveto
          215 vlineto
          19 -8 8 -12 -14 -7 -8 -19 vhcurveto
          -379 vmoveto
          -215 vlineto
          -19 7 -10 12 14 8 10 19 vhcurveto
          215 vlineto
          18 -8 8 -12 -14 -7 -8 -18 vhcurveto
          endchar
        </CharString>
        <CharString name="bullet">
          -153 123 270 hstem
          56 270 vstem
          56 258 rmoveto
          -75 60 -60 75 75 60 60 75 75 -60 60 -75 -75 -60 -60 -75 vhcurveto
          endchar
        </CharString>
        <CharString name="c">
          29 0 91 callsubr
          vstem
          411 hmoveto
          -91 callgsubr
        </CharString>
        <CharString name="cacute">
          29 0 42 377 69 callgsubr
          vstem
          408 -99 callsubr
          3 -657 rmoveto
          -91 callgsubr
        </CharString>
        <CharString name="cakayahli">
          59 0 42 419 -20 70 42 83 42 84 callsubr
          117 42 rmoveto
          357 vlineto
          353 -399 rlineto
          49 554 hlineto
          92 -21 32 2 callsubr
          -32 -92 hvcurveto
          -43 124 vlineto
          20 11 8 16 15 -11 3 -20 hvcurveto
          -82 18 25 callsubr
          -513 vlineto
          -356 403 rlineto
          -46 -461 102 hlineto
          21 10 6 14 16 -10 6 -21 hvcurveto
          endchar
        </CharString>
        <CharString name="calyakayahli">
          79 callsubr
          hstem
          -529 -38 callgsubr
          vstem
          -380 42 4 callgsubr
        </CharString>
        <CharString name="calyaplophukayahli">
          -205 42 49 72 42 42 hstem
          -529 16 callsubr
          cntrmask 00011100
          -353 -78 rmoveto
          -19 26 -17 20 19 27 17 19 20 -27 16 -19 -20 -26 -16 -20 vhcurveto
          -27 120 4 callgsubr
        </CharString>
        <CharString name="caron">
          -162 527 134 hstem
          55 268 vstem
          215 527 -100 callsubr
          endchar
        </CharString>
        <CharString name="ccaron">
          29 0 -35 callgsubr
          61 134 hstem
          62 42 51 268 41 42 vstem
          315 522 -100 callsubr
          148 -522 rmoveto
          -91 callgsubr
        </CharString>
        <CharString name="ccedilla">
          29 78 callsubr
          377 42 hstem
          62 42 163 43 25 42 87 42 vstem
          212 -17 callgsubr
          50 -56 1 -11 38 vhcurveto
          101 hlineto
          87 8 56 50 -24 callsubr
          -15 -14 -7 -9 -19 -48 -14 -19 -46 hvcurveto
          -134 hlineto
          -92 callsubr
          134 hlineto
          46 14 -20 -47 -19 7 -9 14 15 6 10 20 50 -8 57 -87 hvcurveto
          -57 callsubr
          -26 callgsubr
          -150 82 -25 123 vhcurveto
          9 -54 59 -5 -35 -50 callgsubr
          hvcurveto
          endchar
        </CharString>
        <CharString name="ccircumflex">
          29 0 -35 callgsubr
          61 72 callsubr
          48 273 39 42 vstem
          289 644 -107 callgsubr
          125 -644 rmoveto
          -91 callgsubr
        </CharString>
        <CharString name="cdotaccent">
          29 0 -35 callgsubr
          61 72 hstem
          62 42 135 92 133 42 vstem
          239 -50 callsubr
          172 -558 rmoveto
          -91 callgsubr
        </CharString>
        <CharString name="cedilla">
          -293 -165 40 hstem
          96 42 27 42 vstem
          42 -17 callgsubr
          vhcurveto
          56 -69 -6 54 vvcurveto
          -42 hlineto
          -68 69 -3 -38 -50 callgsubr
          hvcurveto
          endchar
        </CharString>
        <CharString name="cent">
          -64 14 -21 130 42 308 42 128 -20 hstem
          50 42 127 42 109 42 vstem
          261 20 rmoveto
          103 55 vlineto
          82 callgsubr
          -20 -47 -15 -19 -46 hvcurveto
          -48 308 50 hlineto
          46 15 -19 -47 -20 6 -9 14 15 7 10 21 50 -9 56 -87 hvcurveto
          -57 100 50 callsubr
          -101 vlineto
          -101 -5 -68 -34 -135 vvcurveto
          -42 vlineto
          -136 65 -33 104 -5 vhcurveto
          -104 -94 callsubr
          -42 146 rmoveto
          -87 3 -40 21 108 vvcurveto
          42 vlineto
          106 43 23 84 3 vhcurveto
          endchar
        </CharString>
        <CharString name="checyrillic">
          32 14 -21 140 42 293 -20 hstem
          49 -38 callgsubr
          vstem
          285 175 94 callgsubr
          130 -57 callgsubr
          -130 vlineto
          -151 83 -24 124 vhcurveto
          29 hlineto
          66 62 23 49 38 hvcurveto
          -181 94 callsubr
          414 vlineto
          20 -6 10 -15 -16 -5 -14 callgsubr
          -76 vlineto
          -121 -60 -66 -106 vhcurveto
          endchar
        </CharString>
        <CharString name="chi">
          -48 -175 43 557 43 hstem
          407 468 rmoveto
          -8 -7 -6 -11 -7 hvcurveto
          -141 -245 -79 187 33 callsubr
          84 -199 -175 -305 rlineto
          -4 -6 -2 -6 -5 vvcurveto
          -16 17 -4 5 8 7 5 11 6 vhcurveto
          159 276 91 -214 rlineto
          37 callsubr
          -96 227 157 273 rlineto
          4 7 2 6 5 vvcurveto
          12 -13 8 -8 vhcurveto
          endchar
        </CharString>
        <CharString name="circumflex">
          -133 510 168 hstem
          65 273 vstem
          202 -14 callsubr
        </CharString>
        <CharString name="circumflex.acute">
          -103 563 59 callsubr
          45 86 callgsubr
          hintmask 00000000
          hintmask 01010000
          387 760 rmoveto
          -103 callsubr
          hintmask 10100000
          -86 callgsubr
          endchar
        </CharString>
        <CharString name="circumflex.grave">
          -102 563 59 callsubr
          45 73 callgsubr
          hintmask 00000000
          hintmask 01100000
          45 760 -100 callgsubr
          hintmask 10010000
          -86 callsubr
          endchar
        </CharString>
        <CharString name="circumflex.hook">
          -107 563 168 58 33 hstemhm
          45 273 -56 -27 callgsubr
          hintmask 00000000
          hintmask 01011100
          296 769 -104 callgsubr
          hintmask 10100000
          -114 -84 -107 callgsubr
          endchar
        </CharString>
        <CharString name="circumflex.tilde">
          -172 563 58 callsubr
          45 36 callgsubr
          hintmask 00000000
          hintmask 00110000
          228 780 -106 callgsubr
          hintmask 01010000
          -105 callsubr
          hintmask 10001000
          -46 -95 -107 callgsubr
          endchar
        </CharString>
        <CharString name="colon">
          -297 44 72 281 72 hstem
          73 92 vstem
          73 433 rmoveto
          -105 callgsubr
          -353 vmoveto
          -105 callgsubr
          endchar
        </CharString>
        <CharString name="comma">
          -332 -80 141 hstem
          50 83 vstem
          97 61 rmoveto
          -101 callgsubr
          endchar
        </CharString>
        <CharString name="commaturnedabovecmb">
          526 141 hstem
          -262 83 vstem
          -226 526 5 callsubr
          endchar
        </CharString>
        <CharString name="copyright">
          69 87 42 90 31 135 31 90 42 hstem
          80 42 85 30 131 29 85 42 vstem
          347 219 rmoveto
          43 7 36 17 8 -10 4 -5 -6 -8 -3 -8 -16 -6 -7 -17 hvcurveto
          -48 hlineto
          -32 -28 16 32 hvcurveto
          39 vlineto
          32 28 16 32 vhcurveto
          48 hlineto
          17 6 -7 -17 -7 8 -3 6 5 10 4 7 18 -7 36 -43 hvcurveto
          -50 hlineto
          -45 -45 -24 -55 hvcurveto
          -39 vlineto
          -55 45 -24 45 vhcurveto
          20 -132 rmoveto
          39 callsubr
          -125 -83 -24 -151 hvcurveto
          -26 callgsubr
          -92 callgsubr
          42 vmoveto
          -92 callsubr
          -63 callgsubr
          -26 callgsubr
          -84 callsubr
          endchar
        </CharString>
        <CharString name="currency">
          -42 87 34 219 34 hstem
          103 34 219 34 vstem
          137 230 rmoveto
          61 49 49 61 60 49 -49 -61 -60 -49 -49 -60 -61 -49 49 60 vhcurveto
          -6 -85 rmoveto
          -48 -48 49 callgsubr
          49 48 rlineto
          -19 24 30 -10 32 hhcurveto
          31 30 10 19 24 hvcurveto
          48 -48 47 callsubr
          -48 48 rlineto
          19 24 10 30 31 vvcurveto
          32 -10 30 -19 23 vhcurveto
          48 49 48 callsubr
          -48 -48 rlineto
          19 -24 -30 10 -31 hhcurveto
          -32 -30 -10 -19 -24 hvcurveto
          -49 48 80 callsubr
          -6 4 -7 7 -7 hvcurveto
          48 -49 rlineto
          -18 -23 -10 -30 -32 vvcurveto
          -31 10 -30 18 -24 vhcurveto
          endchar
        </CharString>
        <CharString name="cwikayahli">
          79 0 42 hstem
          305 42 rmoveto
          -137 -41 99 -28 hhcurveto
          -7 -7 -9 -11 -29 104 -92 116 116 108 92 29 11 -7 9 -7 hvcurveto
          -28 -45 -99 -137 hhcurveto
          endchar
        </CharString>
        <CharString name="d">
          45 0 -35 callgsubr
          182 -20 56 callsubr
          104 175 rmoveto
          -65 callsubr
          194 -191 hlineto
          4 callsubr
          -42 111 rmoveto
          -111 -78 callsubr
          -49 -8 callgsubr
          589 vlineto
          21 -5 10 -14 -16 -7 -10 -21 vhcurveto
          -151 -194 vlineto
          65 callgsubr
        </CharString>
        <CharString name="dagger">
          -217 485 42 117 -20 hstem
          139 41 vstem
          81 485 rmoveto
          58 -288 hlineto
          -19 7 -9 13 14 7 9 19 vhcurveto
          288 10 callsubr
          endchar
        </CharString>
        <CharString name="daggerdbl">
          -202 284 42 159 42 117 -20 hstem
          146 41 vstem
          187 326 rmoveto
          159 10 callsubr
          58 -159 -58 hlineto
          -18 -9 -8 -13 -14 9 -7 18 hvcurveto
          58 -89 hlineto
          -19 7 -9 13 14 7 9 19 vhcurveto
          89 58 vlineto
          18 9 7 13 14 -9 8 -18 hvcurveto
          endchar
        </CharString>
        <CharString name="dakayahli">
          37 0 42 98 42 66 -5 callgsubr
          hstem
          64 -38 callgsubr
          vstem
          208 42 rmoveto
          -42 hlineto
          -30 callsubr
          79 vlineto
          46 14 17 46 vhcurveto
          342 89 hlineto
          -58 callgsubr
          -254 hlineto
          -68 -27 -30 -77 -20 -70 callgsubr
          20 -23 callgsubr
          hvcurveto
          -28 callgsubr
          -64 -307 vlineto
          -74 -21 -29 -93 hvcurveto
          -44 -26 callsubr
          255 hlineto
          68 26 34 59 65 -41 24 -84 -82 -77 -116 -24 -16 hvcurveto
          54 hmoveto
          37 29 50 61 42 hhcurveto
          60 23 -15 -30 -32 -13 -21 -47 hvcurveto
          endchar
        </CharString>
        <CharString name="dcaron">
          45 0 -35 callgsubr
          41 141 -20 20 hstemhm
          62 -38 callgsubr
          30 83 hintmask 00000000
          hintmask 00100010
          583 643 rmoveto
          -101 callgsubr
          hintmask 11011100
          -479 -468 rmoveto
          -65 callsubr
          194 -191 hlineto
          4 callsubr
          -42 111 rmoveto
          -111 -78 callsubr
          -49 -8 callgsubr
          589 vlineto
          21 -5 10 -14 -16 -7 -10 -21 vhcurveto
          -151 -194 vlineto
          65 callgsubr
        </CharString>
        <CharString name="dcroat">
          45 0 -35 callgsubr
          56 43 63 20 hstemhm
          62 42 142 300 -82 -31 callgsubr
          hintmask 11111010
          272 517 rmoveto
          192 -56 -194 hlineto
          -125 -83 -24 -151 hvcurveto
          -111 -78 callsubr
          -49 -8 callgsubr
          494 11 vlineto
          hintmask 11111100
          18 11 8 12 15 -11 8 -18 hvcurveto
          hintmask 11111010
          -11 52 hlineto
          21 -5 10 -14 -16 -7 -10 -21 vhcurveto
          -52 -192 vlineto
          hintmask 11111100
          -18 -8 -8 -13 -14 8 -8 18 hvcurveto
          -168 -342 rmoveto
          -65 callsubr
          hintmask 11111010
          194 -191 hlineto
          4 callsubr
          endchar
        </CharString>
        <CharString name="decyrillic">
          -1 -15 callgsubr
          10 42 118 41 163 42 52 24 callgsubr
          -48 419 -246 hlineto
          -217 -63 -138 -38 -64 vhcurveto
          -13 hlineto
          -30 -16 -16 -36 hvcurveto
          -52 vlineto
          -20 6 -25 callsubr
          5 -13 callsubr
          322 481 rmoveto
          -377 -259 vlineto
          36 63 60 132 182 vvcurveto
          endchar
        </CharString>
        <CharString name="degree">
          -141 391 41 205 41 hstem
          54 41 205 41 vstem
          95 535 rmoveto
          56 46 46 56 57 46 -46 -56 -57 -46 -46 -57 -56 -46 46 57 vhcurveto
          -41 hmoveto
          -79 65 -65 78 79 65 65 79 78 -65 65 -79 -78 -65 -65 -78 vhcurveto
          endchar
        </CharString>
        <CharString name="delta">
          11 -7 43 383 42 133 43 hstem
          46 43 363 43 vstem
          452 207 rmoveto
          -102 -61 -69 -114 -119 -69 95 101 132 119 55 73 107 64 -89 -123 vhcurveto
          -343 389 rmoveto
          87 -34 53 -21 76 -36 50 -68 rlinecurve
          15 -26 -36 9 -34 hhcurveto
          -90 -143 -69 -154 -112 70 -133 157 132 90 79 132 174 -78 141 -195 71 hvcurveto
          -11 4 rlineto
          224 hlineto
          19 10 8 12 15 74 callsubr
          -313 hlineto
          -18 -8 -8 -13 -15 8 -3 5 -2 hvcurveto
          endchar
        </CharString>
        <CharString name="dieresis">
          -168 594 72 hstem
          65 92 54 92 vstem
          211 630 6 callgsubr
        </CharString>
        <CharString name="dieresistonos">
          -162 510 72 12 220 hstemhm
          53 92 8 89 -43 92 hintmask 00000000
          hintmask 01010000
          222 814 -101 callsubr
          hintmask 10101000
          -23 -268 6 callgsubr
        </CharString>
        <CharString name="divide">
          -95 92 72 45 43 45 72 hstemhm
          70 300 -200 92 77 callgsubr
          170 333 rmoveto
          -105 callgsubr
          hintmask 10001000
          -205 vmoveto
          -105 callgsubr
          hintmask 01010000
          -74 81 rmoveto
          -90 callgsubr
          endchar
        </CharString>
        <CharString name="djecyrillic">
          54 -205 42 177 65 callsubr
          49 43 90 44 callgsubr
          518 -81 rmoveto
          367 -74 callgsubr
          -384 vlineto
          -40 callgsubr
          endchar
        </CharString>
        <CharString name="dollar">
          32 14 -21 98 21 callsubr
          91 -20 hstem
          61 42 164 42 156 42 vstem
          156 91 rmoveto
          111 -71 hlineto
          -18 7 -9 13 15 7 9 18 vhcurveto
          71 75 vlineto
          93 30 49 74 71 -28 63 -95 hvcurveto
          -75 162 94 42 callsubr
          -101 63 hlineto
          19 -7 9 -14 -87 callgsubr
          -63 -82 vlineto
          -93 -31 -44 -74 -70 29 -58 95 hvcurveto
          82 -173 -104 hlineto
          -46 -14 -68 callgsubr
          -51 8 -56 87 hvcurveto
          153 215 rmoveto
          92 hlineto
          37 27 -36 -56 -46 -18 -35 -46 hvcurveto
          -92 hlineto
          -42 215 rmoveto
          -100 hlineto
          -36 -28 30 56 46 18 30 46 hvcurveto
          100 hlineto
          endchar
        </CharString>
        <CharString name="dotaccent">
          -314 594 72 hstem
          65 92 vstem
          65 630 rmoveto
          -105 callgsubr
          endchar
        </CharString>
        <CharString name="dotbelowcomb">
          -134 70 callsubr
          -98 rmoveto
          -19 26 -17 20 19 27 17 19 20 -27 16 -19 -20 -26 -16 -20 vhcurveto
          endchar
        </CharString>
        <CharString name="dotlessi">
          -12 callgsubr
          hstem
          74 42 vstem
          116 20 rmoveto
          420 -99 callgsubr
          -420 -94 callsubr
          endchar
        </CharString>
        <CharString name="dzecyrillic">
          13 callgsubr
          hstem
          60 42 362 42 vstem
          155 hmoveto
          228 -97 callsubr
          endchar
        </CharString>
        <CharString name="dzhecyrillic">
          49 22 callsubr
          75 42 154 42 154 42 cntrmask 00111000
          271 hmoveto
          -62 vlineto
          -20 6 -25 callsubr
          5 -13 callsubr
          62 196 438 vlineto
          20 -6 10 -15 -16 -5 -14 callgsubr
          -396 -350 64 callgsubr
          vlineto
          endchar
        </CharString>
        <CharString name="e">
          -31 callsubr
          56 callsubr
          506 286 -106 callsubr
        </CharString>
        <CharString name="eacute">
          -31 callsubr
          49 72 callsubr
          161 145 54 42 vstem
          410 -99 callsubr
          96 -371 -106 callsubr
        </CharString>
        <CharString name="ecaron">
          -31 callsubr
          61 134 hstem
          62 42 46 268 46 42 cntrmask 00001110
          310 522 -100 callsubr
          248 -236 -106 callsubr
        </CharString>
        <CharString name="ecircumflex">
          -31 callsubr
          61 168 hstem
          62 30 callsubr
          285 644 -107 callgsubr
          224 -358 -106 callsubr
        </CharString>
        <CharString name="ecyrillic">
          28 -11 callgsubr
          62 -38 callgsubr
          vstem
          411 461 rmoveto
          -57 callsubr
          -26 callgsubr
          -92 callgsubr
          141 hlineto
          87 8 57 50 20 -6 10 -15 -14 -7 -9 -19 -47 -14 -20 -46 hvcurveto
          -134 hlineto
          -95 callgsubr
          42 199 vlineto
          13 callsubr
          hvcurveto
          -199 27 17 callsubr
        </CharString>
        <CharString name="edieresis">
          -31 callsubr
          61 72 hstem
          62 19 callsubr
          312 558 -102 callgsubr
          340 -272 -106 callsubr
        </CharString>
        <CharString name="edotaccent">
          -31 callsubr
          61 72 hstem
          62 42 135 92 133 42 vstem
          239 -50 callsubr
          267 -272 -106 callsubr
        </CharString>
        <CharString name="eekayahli">
          502 42 hstem
          -452 42 205 42 vstem
          -163 636 -73 callgsubr
          endchar
        </CharString>
        <CharString name="efcyrillic">
          215 0 -35 callgsubr
          182 -20 hstem
          61 42 251 42 251 42 cntrmask 00011100
          647 195 rmoveto
          -69 -7 -84 -112 -105 -27 104 85 85 27 103 105 112 7 -84 -69 vhcurveto
          -544 -71 rmoveto
          71 vlineto
          69 7 84 112 105 27 -103 -85 -85 -27 -104 -105 -112 -7 84 69 vhcurveto
          293 -347 rmoveto
          224 vlineto
          -49 37 30 -23 65 hhcurveto
          125 36 89 106 hvcurveto
          71 vlineto
          106 -36 89 -125 -65 -30 -23 -49 -37 vhcurveto
          224 vlineto
          20 -6 10 -15 -60 callgsubr
          vhcurveto
          -224 vlineto
          49 -37 -30 23 -65 hhcurveto
          -125 -36 -89 -106 hvcurveto
          -71 vlineto
          -106 36 -89 125 65 30 23 49 37 vhcurveto
          -224 -8 callgsubr
          endchar
        </CharString>
        <CharString name="egrave">
          -31 callsubr
          49 72 callsubr
          77 145 138 42 vstem
          181 657 -97 callgsubr
          325 -371 -106 callsubr
        </CharString>
        <CharString name="eight">
          57 0 42 265 42 245 42 hstem
          74 -38 callgsubr
          vstem
          116 174 rmoveto
          57 callsubr
          29 hlineto
          111 54 -18 callsubr
          -122 -54 -10 -111 hvcurveto
          -29 hlineto
          -112 -54 10 122 hvcurveto
          402 hmoveto
          84 -25 45 -44 23 vhcurveto
          44 20 25 42 84 vvcurveto
          152 -83 12 -124 vhcurveto
          -29 hlineto
          -125 -83 -12 -152 -84 26 -42 44 -20 hvcurveto
          -44 -23 -26 -45 -84 vvcurveto
          -151 83 -23 125 vhcurveto
          29 hlineto
          124 83 23 151 hvcurveto
          -42 298 rmoveto
          -122 -54 -1 -111 vhcurveto
          -29 hlineto
          -112 -54 1 122 122 54 0 112 hvcurveto
          29 hlineto
          111 54 0 -122 hvcurveto
          endchar
        </CharString>
        <CharString name="eightkayahli">
          13 22 callsubr
          71 -38 callgsubr
          vstem
          515 124 rmoveto
          28 callgsubr
          vhcurveto
          -18 vlineto
          -69 callgsubr
          332 -76 callsubr
          -314 vlineto
          12 callsubr
          endchar
        </CharString>
        <CharString name="ekayahli">
          -127 514 rmoveto
          9 -6 7 -13 5 vhcurveto
          -309 98 rlineto
          2 -5 -5 1 -4 hhcurveto
          -15 -4 -15 -7 -9 6 -8 13 -4 hvcurveto
          308 -97 rlineto
          -2 5 5 -1 5 hhcurveto
          15 4 14 7 hvcurveto
          endchar
        </CharString>
        <CharString name="elcyrillic">
          11 -15 callgsubr
          115 42 273 42 vstem
          472 24 rmoveto
          437 -262 46 callsubr
          -231 vlineto
          -46 -14 -18 -46 -20 -11 -6 -14 -17 11 -5 20 59 43 12 112 vhcurveto
          230 -36 callsubr
          213 -395 hlineto
          -20 6 -11 14 17 5 11 20 vhcurveto
          endchar
        </CharString>
        <CharString name="ellipsis">
          -65 -7 72 hstem
          66 92 31 92 31 92 cntrmask 01110000
          66 29 rmoveto
          -105 callgsubr
          123 hmoveto
          -105 callgsubr
          123 hmoveto
          -105 callgsubr
          endchar
        </CharString>
        <CharString name="emacron">
          -31 callsubr
          61 43 hstem
          62 42 31 300 29 42 vstem
          161 522 rmoveto
          -90 callgsubr
          345 -236 -106 callsubr
        </CharString>
        <CharString name="emcyrillic">
          78 14 -21 475 95 callsubr
          381 42 vstem
          306 104 rmoveto
          5 5 2 4 3 hvcurveto
          178 272 rlineto
          -359 vlineto
          -20 5 -10 15 52 callsubr
          414 vlineto
          17 -3 14 -17 -10 -7 -5 -12 -8 vhcurveto
          -188 -284 -187 284 rlineto
          12 -8 -7 5 -11 hhcurveto
          -16 -3 -14 -17 hvcurveto
          -71 callgsubr
          359 vlineto
          178 -272 31 callsubr
          endchar
        </CharString>
        <CharString name="emdash">
          96 71 callgsubr
          430 hlineto
          19 10 8 12 15 74 callsubr
          -430 10 callgsubr
        </CharString>
        <CharString name="encyrillic">
          47 14 -21 230 42 203 95 callsubr
          96 callgsubr
          116 23 rmoveto
          200 350 -200 -77 callsubr
          414 vlineto
          -72 callsubr
          -172 -350 172 -81 callsubr
          -71 callgsubr
          endchar
        </CharString>
        <CharString name="endash">
          -21 71 callgsubr
          313 hlineto
          19 10 8 12 15 74 callsubr
          -313 10 callgsubr
        </CharString>
        <CharString name="eng">
          54 -175 42 147 65 callsubr
          hstem
          74 -38 callgsubr
          vstem
          282 419 rmoveto
          -63 callgsubr
          -286 vlineto
          -122 -54 -11 -112 -20 -11 -5 -15 -16 11 -6 20 125 83 21 154 vhcurveto
          90 callsubr
          -29 hlineto
          -66 -62 -23 -49 -38 hvcurveto
          48 -81 callsubr
          -71 callgsubr
          209 vlineto
          121 60 66 106 vhcurveto
          endchar
        </CharString>
        <CharString name="eogonek">
          31 -201 40 161 84 callgsubr
          hstem
          62 42 162 42 156 42 vstem
          431 -156 -62 callgsubr
          24 38 63 25 15 hvcurveto
          40 hlineto
          87 8 56 50 -24 callsubr
          -15 -14 -7 -9 -19 -48 -14 -19 -46 hvcurveto
          -134 hlineto
          -95 callgsubr
          75 402 36 vlineto
          -68 callsubr
          -124 vhcurveto
          -29 hlineto
          -125 -83 -24 -151 hvcurveto
          -26 callgsubr
          -92 callgsubr
          45 hlineto
          -24 -32 -25 -44 -26 -34 callsubr
          -132 575 rmoveto
          109 56 -11 -116 hvcurveto
          -360 hlineto
          116 56 11 110 vhcurveto
          endchar
        </CharString>
        <CharString name="epsilon">
          28 -11 callgsubr
          61 -38 callgsubr
          vstem
          302 217 rmoveto
          13 callsubr
          hvcurveto
          -86 hlineto
          -68 -46 14 77 46 43 23 75 hvcurveto
          123 hlineto
          20 100 -5 -77 -19 6 -11 16 14 6 11 19 93 -81 31 -74 hvcurveto
          -137 hlineto
          -74 -78 54 callsubr
          78 -31 74 vhcurveto
          137 hlineto
          74 81 31 93 28 callgsubr
          -77 -101 -5 -19 hvcurveto
          -123 hlineto
          -75 -42 23 46 76 45 30 68 hvcurveto
          endchar
        </CharString>
        <CharString name="epsilontonos">
          28 0 47 callgsubr
          160 42 61 220 hstem
          61 42 134 89 137 42 vstem
          306 742 -101 callsubr
          -4 -525 rmoveto
          13 callsubr
          hvcurveto
          -86 hlineto
          -68 -46 14 77 46 43 23 75 hvcurveto
          123 hlineto
          20 100 -5 -77 -19 6 -11 16 14 6 11 19 93 -81 31 -74 hvcurveto
          -137 hlineto
          -74 -78 54 callsubr
          78 -31 74 vhcurveto
          137 hlineto
          74 81 31 93 28 callgsubr
          -77 -101 -5 -19 hvcurveto
          -123 hlineto
          -75 -42 23 46 76 45 30 68 hvcurveto
          endchar
        </CharString>
        <CharString name="equal">
          -77 259 43 60 43 hstem
          79 300 vstem
          105 259 rmoveto
          -90 callgsubr
          103 vmoveto
          -90 callgsubr
          endchar
        </CharString>
        <CharString name="ercyrillic">
          46 0 42 377 42 84 callsubr
          477 286 rmoveto
          -26 callgsubr
          20 callsubr
          190 hlineto
          121 60 66 106 vhcurveto
          -63 callgsubr
          42 -111 rmoveto
          -9 callgsubr
          49 -76 callsubr
          -590 -22 callgsubr
        </CharString>
        <CharString name="ereversedcyrillic">
          28 -11 callgsubr
          57 -38 callgsubr
          vstem
          152 461 rmoveto
          -87 -8 -56 -50 -21 6 -10 15 14 7 9 19 48 14 19 46 hvcurveto
          134 hlineto
          112 54 -18 callsubr
          hvcurveto
          -27 -199 vlineto
          -20 -11 -6 -17 -14 11 -5 20 hvcurveto
          199 -42 hlineto
          -122 -54 -11 -112 vhcurveto
          -134 hlineto
          -46 -14 20 47 19 -7 9 -14 -60 callgsubr
          -50 8 -57 87 hvcurveto
          141 hlineto
          40 callsubr
          111 vlineto
          -68 callsubr
          -125 vhcurveto
          endchar
        </CharString>
        <CharString name="escyrillic">
          29 0 91 callsubr
          vstem
          411 hmoveto
          -91 callgsubr
        </CharString>
        <CharString name="eta">
          54 72 callgsubr
          360 42 vstem
          282 419 rmoveto
          -63 callgsubr
          -461 -77 callsubr
          461 vlineto
          -68 callsubr
          -124 vhcurveto
          -29 hlineto
          -66 -62 -23 -49 -38 hvcurveto
          48 -81 callsubr
          -71 callgsubr
          209 vlineto
          121 60 66 106 vhcurveto
          endchar
        </CharString>
        <CharString name="etatonos">
          54 41 callgsubr
          68 220 hstem
          74 42 161 89 110 42 vstem
          346 749 -101 callsubr
          -64 -330 rmoveto
          -63 callgsubr
          -461 -77 callsubr
          461 vlineto
          -68 callsubr
          -124 vhcurveto
          -29 hlineto
          -66 -62 -23 -49 -38 hvcurveto
          48 -81 callsubr
          -71 callgsubr
          209 vlineto
          121 60 66 106 vhcurveto
          endchar
        </CharString>
        <CharString name="eth">
          11 -16 42 388 42 137 43 hstem
          47 -38 callgsubr
          vstem
          148 593 rmoveto
          26 35 -4 -14 37 hvcurveto
          -38 -37 rlineto
          -7 -8 -5 -7 -6 vvcurveto
          -12 13 -8 8 6 61 callsubr
          50 49 51 -27 50 -48 31 -79 rlinecurve
          32 -32 -44 21 -59 hhcurveto
          -134 -103 -84 -152 -151 103 -85 134 133 74 114 123 192 -75 116 -98 60 hvcurveto
          25 24 rlineto
          8 9 3 -5 callsubr
          11 -12 8 -8 -6 -8 -4 -7 -7 vhcurveto
          -34 -34 rlineto
          19 -42 -45 8 -44 hhcurveto
          -18 -8 -8 -15 -12 8 -8 18 hvcurveto
          301 -372 rmoveto
          -82 -48 -113 -117 -118 -77 82 112 113 77 81 118 117 48 -97 -96 vhcurveto
          endchar
        </CharString>
        <CharString name="exclam">
          -301 -7 72 579 -20 hstemhm
          71 93 -68 -31 callgsubr
          hintmask 11100000
          164 29 rmoveto
          19 -27 17 -20 -19 -27 -17 -19 -20 27 -16 19 20 27 16 20 vhcurveto
          hintmask 11010000
          -68 587 rmoveto
          -419 vlineto
          -19 7 -9 13 15 7 9 19 vhcurveto
          419 -99 callgsubr
          endchar
        </CharString>
        <CharString name="exclamdown">
          -317 414 72 hstemhm
          62 93 -67 -31 callgsubr
          hintmask 10100000
          130 -138 rmoveto
          420 -99 callgsubr
          -420 -94 callsubr
          hintmask 11000000
          -68 588 rmoveto
          -19 27 -17 19 20 27 17 19 20 -27 16 -20 -19 -27 -16 -20 vhcurveto
          endchar
        </CharString>
        <CharString name="f">
          -222 14 -21 426 56 callgsubr
          vstem
          287 594 rmoveto
          13 callsubr
          -54 callgsubr
          endchar
        </CharString>
        <CharString name="fi">
          -88 14 -21 426 56 callgsubr
          210 42 vstem
          352 461 rmoveto
          -231 hlineto
          121 38 12 110 vhcurveto
          2 hlineto
          85 -31 -56 29 hhcurveto
          19 4 3 19 18 -22 58 -84 -125 -67 -22 -153 hvcurveto
          -20 -11 -5 -15 -16 11 -6 20 hvcurveto
          -395 vlineto
          -21 -10 callgsubr
          17 6 10 21 vhcurveto
          395 210 -399 -94 callsubr
          413 vlineto
          16 -4 12 -17 vhcurveto
          endchar
        </CharString>
        <CharString name="fitacyrillic">
          19 -15 callgsubr
          62 42 346 42 vstem
          450 214 rmoveto
          -39 vlineto
          -84 callsubr
          -15 hlineto
          -95 callgsubr
          23 vlineto
          0 42 33 34 vhcurveto
          40 99 -40 66 hhcurveto
          34 31 23 0 hvcurveto
          72 vmoveto
          -19 vlineto
          0 -44 -34 -34 vhcurveto
          -40 -99 40 -66 hhcurveto
          -34 -29 -23 0 hvcurveto
          36 vlineto
          57 callsubr
          15 -89 callsubr
          -165 -286 rmoveto
          -6 callgsubr
          -15 hlineto
          -125 -83 -24 -151 hvcurveto
          -26 callgsubr
          -92 callgsubr
          endchar
        </CharString>
        <CharString name="five">
          13 -9 42 359 42 160 42 hstem
          455 42 vstem
          275 -9 rmoveto
          126 96 85 151 133 -108 74 -98 hvcurveto
          -175 hlineto
          6 95 rlineto
          48 4 18 17 37 hhcurveto
          247 hlineto
          18 9 7 13 15 -9 7 -18 hvcurveto
          -241 hlineto
          -74 -27 -32 -92 -8 hvcurveto
          -9 -120 rlineto
          231 hlineto
          57 98 -40 -125 -122 -67 -72 -113 hvcurveto
          -104 -75 78 -14 hhcurveto
          -9 -10 -10 -11 -40 130 -59 82 hvcurveto
          endchar
        </CharString>
        <CharString name="fivekayahli">
          11 0 42 377 42 85 callsubr
          232 hmoveto
          20 11 5 15 16 -11 5 callgsubr
          -63 hlineto
          -30 callsubr
          248 -36 callsubr
          300 -65 hlineto
          -20 6 -10 15 15 6 -13 callsubr
          107 -349 46 callsubr
          -213 -26 callsubr
          endchar
        </CharString>
        <CharString name="fl">
          -39 0 42 377 56 callgsubr
          205 42 vstem
          347 636 rmoveto
          -60 hlineto
          -54 callgsubr
          39 -470 hlineto
          -24 callgsubr
          7 hlineto
          -73 callsubr
          500 vlineto
          20 -5 10 -16 vhcurveto
          endchar
        </CharString>
        <CharString name="florin">
          -222 -105 42 482 56 callgsubr
          vstem
          121 44 rmoveto
          375 9 callsubr
          hlineto
          -85 callsubr
          13 callsubr
          -125 -83 -22 -153 vhcurveto
          -20 -11 -5 -15 -16 11 -6 20 hvcurveto
          -349 32 callsubr
        </CharString>
        <CharString name="four">
          -22 14 -21 182 42 hstem
          96 callgsubr
          453 175 rmoveto
          18 9 7 14 14 -9 7 -18 hvcurveto
          -61 419 -57 hlineto
          -303 -405 rlineto
          -56 318 -155 vlineto
          -18 8 -9 13 14 7 9 18 vhcurveto
          155 vlineto
          -42 42 rmoveto
          -281 hlineto
          281 377 rlineto
          endchar
        </CharString>
        <CharString name="fourkayahli">
          57 50 callgsubr
          75 -38 callgsubr
          vstem
          477 -98 rmoveto
          -40 callgsubr
          418 vlineto
          -58 callgsubr
          -141 hlineto
          -66 -62 -23 -49 -38 hvcurveto
          49 -76 callsubr
          -438 102 vlineto
          21 10 5 15 16 -10 6 -21 hvcurveto
          -60 190 hlineto
          121 60 66 106 vhcurveto
          134 hlineto
          -51 callgsubr
          hvcurveto
          endchar
        </CharString>
        <CharString name="foursuperior">
          -251 562 33 hstem
          157 34 vstem
          240 562 -46 callgsubr
          endchar
        </CharString>
        <CharString name="fraction">
          -309 325 534 -67 callgsubr
          endchar
        </CharString>
        <CharString name="g">
          46 -205 42 163 91 callsubr
          vstem
          62 286 12 callgsubr
          141 hlineto
          23 17 3 6 13 hvcurveto
          -117 vlineto
          -42 -9 -13 -42 vhcurveto
          -249 hlineto
          -46 -14 -68 callgsubr
          -50 8 -57 87 hvcurveto
          263 hlineto
          67 19 29 84 hvcurveto
          530 vlineto
          20 -6 10 -15 -60 callgsubr
          vhcurveto
          -49 vlineto
          49 -37 -63 23 -65 2 callgsubr
          42 -111 rmoveto
          -65 callsubr
          29 hlineto
          105 60 -66 -121 hvcurveto
          -126 vlineto
          -46 -14 -18 -46 vhcurveto
          -134 hlineto
          -95 callgsubr
          endchar
        </CharString>
        <CharString name="gakayahli">
          57 0 42 127 -3 callsubr
          84 callsubr
          117 42 rmoveto
          127 360 -127 -60 vlineto
          -20 -11 -6 -16 -15 11 -5 20 hvcurveto
          102 337 hlineto
          -58 callgsubr
          -116 hlineto
          -191 -232 rlineto
          209 -76 callsubr
          -438 102 vlineto
          21 10 5 15 16 -10 6 -21 hvcurveto
          -24 169 rmoveto
          171 208 rlineto
          93 hlineto
          -51 callgsubr
          hvcurveto
          -143 vlineto
          endchar
        </CharString>
        <CharString name="gamma">
          -32 419 42 hstem
          226 42 167 42 vstem
          50 419 rmoveto
          49 38 -138 -312 89 hvcurveto
          -121 vlineto
          -20 -10 callgsubr
          17 6 -13 callsubr
          122 vlineto
          206 469 rlineto
          2 4 1 2 5 vvcurveto
          11 -9 7 -10 -9 -7 -4 -14 -7 vhcurveto
          -180 -404 rlineto
          -7 hlineto
          365 -107 -4 50 -87 hhcurveto
          -64 callsubr
          endchar
        </CharString>
        <CharString name="gbreve">
          46 -11 callsubr
          68 44 hstem
          62 42 64 74 callgsubr
          66 42 vstem
          398 650 -93 callsubr
          -336 -364 12 callgsubr
          141 hlineto
          23 17 3 6 13 hvcurveto
          -117 vlineto
          -42 -9 -13 -42 vhcurveto
          -249 hlineto
          -46 -14 -68 callgsubr
          -50 8 -57 87 hvcurveto
          263 hlineto
          67 19 29 84 hvcurveto
          530 vlineto
          20 -6 10 -15 -60 callgsubr
          vhcurveto
          -49 vlineto
          49 -37 -63 23 -65 2 callgsubr
          42 -111 rmoveto
          -65 callsubr
          29 hlineto
          105 60 -66 -121 hvcurveto
          -126 vlineto
          -46 -14 -18 -46 vhcurveto
          -134 hlineto
          -95 callgsubr
          endchar
        </CharString>
        <CharString name="gcircumflex">
          46 -11 callsubr
          68 72 callsubr
          43 273 44 42 vstem
          284 651 -107 callgsubr
          -219 -365 12 callgsubr
          141 hlineto
          23 17 3 6 13 hvcurveto
          -117 vlineto
          -42 -9 -13 -42 vhcurveto
          -249 hlineto
          -46 -14 -68 callgsubr
          -50 8 -57 87 hvcurveto
          263 hlineto
          67 19 29 84 hvcurveto
          530 vlineto
          20 -6 10 -15 -60 callgsubr
          vhcurveto
          -49 vlineto
          49 -37 -63 23 -65 2 callgsubr
          42 -111 rmoveto
          -65 callsubr
          29 hlineto
          105 60 -66 -121 hvcurveto
          -126 vlineto
          -46 -14 -18 -46 vhcurveto
          -134 hlineto
          -95 callgsubr
          endchar
        </CharString>
        <CharString name="gcommaaccent">
          46 -11 callsubr
          68 141 hstem
          62 42 147 83 130 42 vstem
          287 529 5 callsubr
          -225 -243 12 callgsubr
          141 hlineto
          23 17 3 6 13 hvcurveto
          -117 vlineto
          -42 -9 -13 -42 vhcurveto
          -249 hlineto
          -46 -14 -68 callgsubr
          -50 8 -57 87 hvcurveto
          263 hlineto
          67 19 29 84 hvcurveto
          530 vlineto
          20 -6 10 -15 -60 callgsubr
          vhcurveto
          -49 vlineto
          49 -37 -63 23 -65 2 callgsubr
          42 -111 rmoveto
          -65 callsubr
          29 hlineto
          105 60 -66 -121 hvcurveto
          -126 vlineto
          -46 -14 -18 -46 vhcurveto
          -134 hlineto
          -95 callgsubr
          endchar
        </CharString>
        <CharString name="gdotaccent">
          46 -11 callsubr
          68 72 hstem
          62 42 131 92 137 42 vstem
          235 7 callsubr
          -173 -279 12 callgsubr
          141 hlineto
          23 17 3 6 13 hvcurveto
          -117 vlineto
          -42 -9 -13 -42 vhcurveto
          -249 hlineto
          -46 -14 -68 callgsubr
          -50 8 -57 87 hvcurveto
          263 hlineto
          67 19 29 84 hvcurveto
          530 vlineto
          20 -6 10 -15 -60 callgsubr
          vhcurveto
          -49 vlineto
          49 -37 -63 23 -65 2 callgsubr
          42 -111 rmoveto
          -65 callsubr
          29 hlineto
          105 60 -66 -121 hvcurveto
          -126 vlineto
          -46 -14 -18 -46 vhcurveto
          -134 hlineto
          -95 callgsubr
          endchar
        </CharString>
        <CharString name="gecyrillic">
          -77 46 callgsubr
          73 42 vstem
          175 419 rmoveto
          237 hlineto
          20 10 6 15 15 -10 5 callgsubr
          -244 hlineto
          -3 callgsubr
          -314 -8 callsubr
          331 -36 callsubr
          endchar
        </CharString>
        <CharString name="germandbls">
          -93 -20 42 -8 -21 367 42 17 42 133 42 hstemhm
          31 73 -42 42 47 42 102 42 26 38 callsubr
          hintmask 1011101111000000
          161 360 rmoveto
          135 67 -75 -90 -150 -59 -23 -35 -36 -40 17 49 20 -37 callgsubr
          -11 -20 -74 65 -32 45 64 80 43 172 86 -40 75 90 callgsubr
          54 -39 57 -84 -69 -82 -22 -153 -1 vhcurveto
          hintmask 0111110111000000
          -21 -10 -5 -15 hvcurveto
          hintmask 0111101111000000
          -16 10 -6 21 vhcurveto
          -395 vlineto
          -21 -10 callgsubr
          17 6 10 21 vhcurveto
          437 vlineto
          122 47 11 63 51 30 -27 -40 -89 -60 -36 -74 vhcurveto
          endchar
        </CharString>
        <CharString name="gheupturncyrillic">
          -74 46 callgsubr
          73 42 285 42 vstem
          175 419 rmoveto
          267 124 hlineto
          28 callgsubr
          vhcurveto
          -82 -232 46 callsubr
          -314 -8 callsubr
          331 -36 callsubr
          endchar
        </CharString>
        <CharString name="gjecyrillic">
          -77 41 callgsubr
          49 168 hstem
          73 42 116 145 vstem
          376 -99 callsubr
          -201 -238 rmoveto
          237 hlineto
          20 10 6 15 15 -10 5 callgsubr
          -244 hlineto
          -3 callgsubr
          -314 -8 callsubr
          331 -36 callsubr
          endchar
        </CharString>
        <CharString name="grave">
          81 callgsubr
          34 657 -97 callgsubr
          endchar
        </CharString>
        <CharString name="gravecomb">
          510 121 hstem
          -370 122 vstem
          -370 611 -100 callgsubr
          endchar
        </CharString>
        <CharString name="greater">
          -13 72 548 rmoveto
          -8 6 -8 11 -6 vhcurveto
          338 -195 -339 -195 rlineto
          -11 -7 -5 -9 -7 vvcurveto
          -11 8 -8 12 5 6 1 4 6 vhcurveto
          364 210 rlineto
          12 7 4 8 7 vvcurveto
          9 -7 7 -9 6 vhcurveto
          -364 210 rlineto
          4 -7 -6 2 -5 hhcurveto
          -15 -4 -17 -4 hvcurveto
          endchar
        </CharString>
        <CharString name="greaterequal">
          21 0 43 44 43 222 44 hstem
          79 107 rmoveto
          -8 4 -12 17 4 5 1 2 6 vhcurveto
          355 129 rlineto
          6 3 12 6 13 vvcurveto
          13 -11 7 -7 3 vhcurveto
          -355 129 rlineto
          2 -6 -4 1 -5 hhcurveto
          -13 -9 -11 -10 -9 8 -9 14 -5 hvcurveto
          305 -111 -305 -111 rlineto
          -13 -4 -8 -9 -10 vvcurveto
          28 -64 rmoveto
          -18 -11 -8 -15 -12 11 -8 18 hvcurveto
          355 hlineto
          18 8 8 15 12 -8 8 -18 hvcurveto
          endchar
        </CharString>
        <CharString name="guillemotleft">
          -51 36 233 -79 233 hintmask 00000000
          hintmask 10000000
          256 178 rmoveto
          -66 callsubr
          hintmask 01000000
          154 hmoveto
          -66 callsubr
          endchar
        </CharString>
        <CharString name="guillemotright">
          -51 61 233 -79 233 hintmask 00000000
          hintmask 10000000
          74 178 -61 callgsubr
          hintmask 01000000
          -4 -155 -61 callgsubr
          endchar
        </CharString>
        <CharString name="guilsinglleft">
          -205 36 233 vstem
          256 178 rmoveto
          -66 callsubr
          endchar
        </CharString>
        <CharString name="guilsinglright">
          -205 61 233 vstem
          74 178 -61 callgsubr
          endchar
        </CharString>
        <CharString name="h">
          53 53 callgsubr
          182 44 callgsubr
          282 419 -34 callgsubr
        </CharString>
        <CharString name="hakayahli">
          57 50 callgsubr
          73 42 99 42 219 42 vstem
          115 161 rmoveto
          25 16 116 77 82 vvcurveto
          125 -183 -337 -26 callsubr
          109 hlineto
          198 263 rlineto
          -361 vlineto
          -46 -14 -19 -46 -20 -11 -6 -14 -17 11 -5 20 62 40 12 112 vhcurveto
          517 vlineto
          20 -6 12 -14 -16 -6 -12 -20 vhcurveto
          -107 vlineto
          -216 -287 rlineto
          -84 71 callsubr
          vmoveto
          99 -83 hlineto
          -41 -60 -66 -39 -18 vhcurveto
          endchar
        </CharString>
        <CharString name="hardsigncyrillic">
          21 -11 callgsubr
          155 42 282 41 vstem
          361 42 rmoveto
          -164 175 164 1 callgsubr
          -206 -42 rmoveto
          213 hlineto
          21 callgsubr
          -171 202 75 callsubr
          101 hlineto
          endchar
        </CharString>
        <CharString name="hbar">
          53 41 callgsubr
          49 43 70 20 hstem
          74 -38 callgsubr
          vstem
          518 23 rmoveto
          263 -74 callgsubr
          -263 -77 callsubr
          endchar
        </CharString>
        <CharString name="hcircumflex">
          53 41 callgsubr
          162 20 8 168 hstem
          74 30 callsubr
          297 773 -107 callgsubr
          -12 -354 -34 callgsubr
        </CharString>
        <CharString name="hookabovecomb">
          612 33 hstem
          -346 -27 callgsubr
          vstem
          -312 592 -104 callgsubr
          endchar
        </CharString>
        <CharString name="htakayahli">
          49 0 42 377 42 85 callsubr
          424 461 rmoveto
          -20 -9 -6 -17 -15 9 -4 20 hvcurveto
          45 -313 hlineto
          -69 callgsubr
          248 -36 callsubr
          88 hlineto
          21 10 5 14 17 -10 6 -21 hvcurveto
          -95 hlineto
          -74 -21 -31 -92 hvcurveto
          -214 vlineto
          -37 callsubr
          538 vlineto
          19 -16 4 -6 -8 -7 -4 -8 -9 vhcurveto
          -62 -63 rlineto
          -8 -8 -3 -8 -6 vvcurveto
          -9 6 -9 12 6 10 3 10 10 vhcurveto
          33 33 rlineto
          -155 vlineto
          endchar
        </CharString>
        <CharString name="hungarumlaut">
          -202 510 168 hstemhm
          34 145 -25 145 hintmask 00000000
          hintmask 10100000
          299 -99 callsubr
          hintmask 11000000
          -120 hmoveto
          -104 callsubr
          endchar
        </CharString>
        <CharString name="hyphen">
          -89 209 43 hstem
          73 300 vstem
          99 209 rmoveto
          -90 callgsubr
          endchar
        </CharString>
        <CharString name="i">
          -12 callgsubr
          97 72 hstemhm
          49 92 -67 -31 callgsubr
          hintmask 00110000
          49 601 rmoveto
          -19 26 -17 20 19 27 17 19 20 -27 16 -19 -20 -26 -16 -20 vhcurveto
          hintmask 11001000
          67 -581 rmoveto
          420 -99 callgsubr
          -420 -94 callsubr
          endchar
        </CharString>
        <CharString name="iacute">
          -12 callgsubr
          42 168 hstemhm
          74 42 -42 145 77 callgsubr
          219 -99 callsubr
          hintmask 11010000
          -103 -637 rmoveto
          420 -99 callgsubr
          -420 -94 callsubr
          endchar
        </CharString>
        <CharString name="iacyrillic">
          -3 -8 42 168 47 callgsubr
          hstem
          82 42 291 42 vstem
          82 328 rmoveto
          -79 30 -31 74 -11 vhcurveto
          -28 -23 -18 -30 -9 -33 -5 -18 49 callsubr
          49 68 19 hvcurveto
          59 16 31 34 77 hhcurveto
          120 -182 hlineto
          -18 7 -9 15 13 7 9 18 vhcurveto
          410 vlineto
          21 -5 10 -14 vhcurveto
          -149 hlineto
          -127 -80 -8 -125 hvcurveto
          176 -84 rmoveto
          -90 -44 4 83 84 44 4 90 hvcurveto
          157 -175 hlineto
          endchar
        </CharString>
        <CharString name="icircumflex">
          -12 callgsubr
          61 168 hstemhm
          -41 273 -158 -31 callgsubr
          hintmask 00110000
          96 651 -107 callgsubr
          hintmask 11001000
          23 -631 rmoveto
          420 -99 callgsubr
          -420 -94 callsubr
          endchar
        </CharString>
        <CharString name="icyrillic">
          -12 callgsubr
          97 72 hstemhm
          49 92 -67 -31 callgsubr
          hintmask 00110000
          49 601 rmoveto
          -19 26 -17 20 19 27 17 19 20 -27 16 -19 -20 -26 -16 -20 vhcurveto
          hintmask 11001000
          67 -581 rmoveto
          420 -99 callgsubr
          -420 -94 callsubr
          endchar
        </CharString>
        <CharString name="idieresis">
          -12 callgsubr
          61 72 hstem
          -24 92 6 42 6 92 cntrmask 00011100
          122 565 -102 callgsubr
          140 -545 rmoveto
          420 -99 callgsubr
          -420 -94 callsubr
          endchar
        </CharString>
        <CharString name="iecyrillic">
          -31 callsubr
          56 callsubr
          506 286 -106 callsubr
        </CharString>
        <CharString name="igrave">
          -12 callgsubr
          43 168 hstemhm
          -29 145 -42 -31 callgsubr
          hintmask 00110000
          -29 658 -97 callgsubr
          hintmask 11001000
          145 -638 rmoveto
          420 -99 callgsubr
          -420 -94 callsubr
          endchar
        </CharString>
        <CharString name="iicyrillic">
          48 21 -21 461 -20 hstem
          75 42 96 callgsubr
          509 461 -43 callsubr
        </CharString>
        <CharString name="iicyrillic_grave">
          48 0 14 427 20 49 168 hstem
          75 42 80 145 125 42 vstem
          197 657 -97 callgsubr
          312 -196 -43 callsubr
        </CharString>
        <CharString name="iishortcyrillic">
          48 0 14 427 20 41 42 hstem
          75 42 36 42 205 42 25 42 vstem
          442 636 -73 callgsubr
          67 -153 -43 callsubr
        </CharString>
        <CharString name="ikayahli">
          39 0 42 228 42 107 42 hstem
          63 -38 callgsubr
          vstem
          158 461 rmoveto
          -3 callgsubr
          -67 124 vlineto
          20 11 6 17 14 -11 5 -20 hvcurveto
          -82 42 25 callsubr
          -10 vlineto
          -402 -201 rlineto
          -19 vlineto
          12 callsubr
          213 vlineto
          -58 callgsubr
          53 -162 rmoveto
          -193 vlineto
          -69 callgsubr
          13 vlineto
          endchar
        </CharString>
        <CharString name="imacron">
          -12 callgsubr
          61 43 hstemhm
          -55 300 -171 -31 callgsubr
          hintmask 00110000
          -29 529 rmoveto
          -90 callgsubr
          hintmask 11001000
          145 -509 rmoveto
          420 -99 callgsubr
          -420 -94 callsubr
          endchar
        </CharString>
        <CharString name="infinity">
          347 160 42 234 42 hstem
          59 42 681 42 vstem
          59 317 rmoveto
          -90 92 -67 77 65 58 44 86 91 vhcurveto
          -86 91 58 -44 66 hhcurveto
          75 92 62 99 90 -92 67 -77 -65 -58 -44 -86 -91 hvcurveto
          86 -91 -58 44 -66 hhcurveto
          -75 -92 -62 -99 hvcurveto
          173 119 rmoveto
          49 62 -48 -69 69 hvcurveto
          -68 -69 -62 -49 -49 hhcurveto
          -70 -61 58 60 60 61 56 70 hvcurveto
          419 -235 rmoveto
          -49 -62 49 69 -69 hvcurveto
          68 69 62 48 49 hhcurveto
          70 61 -57 -60 -60 -61 -57 -70 hvcurveto
          endchar
        </CharString>
        <CharString name="integral">
          -216 -205 42 869 42 hstem
          139 42 vstem
          181 -56 rmoveto
          629 vlineto
          122 7 11 91 21 10 6 14 16 -10 6 -21 -97 -43 -19 -130 vhcurveto
          -629 32 callsubr
        </CharString>
        <CharString name="iocyrillic">
          -31 callsubr
          61 72 hstem
          62 19 callsubr
          312 558 -102 callgsubr
          340 -272 -106 callsubr
        </CharString>
        <CharString name="iogonek">
          -343 -200 40 628 -20 117 72 hstemhm
          8 42 1 92 -67 -31 callgsubr
          hintmask 11110100
          173 -155 -62 callgsubr
          21 30 52 24 22 hvcurveto
          10 3 4 9 14 vvcurveto
          420 -99 callgsubr
          -416 vlineto
          -27 -29 -41 -63 -33 -34 callsubr
          hintmask 11111000
          -122 756 rmoveto
          -19 26 -17 20 19 27 17 19 20 -27 16 -19 -20 -26 -16 -20 vhcurveto
          endchar
        </CharString>
        <CharString name="iota">
          -319 22 callsubr
          71 42 vstem
          173 hmoveto
          -73 callsubr
          332 -76 callsubr
          -314 -26 callsubr
          endchar
        </CharString>
        <CharString name="iotadieresis">
          -319 0 33 callgsubr
          61 72 hstem
          -27 92 6 42 6 92 cntrmask 00011100
          119 565 -102 callgsubr
          200 -565 rmoveto
          -73 callsubr
          332 -76 callsubr
          -314 -26 callsubr
          endchar
        </CharString>
        <CharString name="iotadieresistonos">
          -319 82 callsubr
          -27 92 6 42 -40 89 -43 92 hintmask 00000000
          hintmask 00010010
          142 833 -101 callsubr
          hintmask 00101001
          -23 -268 -102 callgsubr
          hintmask 11000100
          200 -565 rmoveto
          -73 callsubr
          332 -76 callsubr
          -314 -26 callsubr
          endchar
        </CharString>
        <CharString name="iotatonos">
          -319 0 33 callgsubr
          61 220 hstemhm
          71 42 -37 89 77 callgsubr
          145 749 -101 callsubr
          hintmask 11010000
          28 -749 rmoveto
          -73 callsubr
          332 -76 callsubr
          -314 -26 callsubr
          endchar
        </CharString>
        <CharString name="itilde">
          -12 callgsubr
          62 -25 callgsubr
          -41 272 -157 -31 callgsubr
          hintmask 00011000
          142 578 -106 callgsubr
          hintmask 00101000
          -105 callsubr
          hintmask 11000100
          -26 -558 rmoveto
          420 -99 callgsubr
          -420 -94 callsubr
          endchar
        </CharString>
        <CharString name="iucyrillic">
          133 -11 callgsubr
          74 42 75 42 331 42 vstem
          116 20 rmoveto
          197 75 -42 vlineto
          -87 callsubr
          -32 callgsubr
          vhcurveto
          111 vlineto
          -68 callsubr
          -124 -125 -83 -24 -151 vhcurveto
          -27 -75 181 -99 callgsubr
          -420 -94 callsubr
          283 22 rmoveto
          -91 callsubr
          111 54 -18 callsubr
          vhcurveto
          -26 callgsubr
          -84 callsubr
          endchar
        </CharString>
        <CharString name="j">
          -343 -175 42 601 -20 117 72 hstemhm
          50 92 -67 -31 callgsubr
          hintmask 11110000
          50 601 rmoveto
          -19 27 -17 19 20 26 17 19 20 -26 16 -20 -19 -27 -16 -20 vhcurveto
          hintmask 11101000
          67 -601 rmoveto
          -60 callsubr
        </CharString>
        <CharString name="jcircumflex">
          -343 -175 42 581 20 61 168 hstemhm
          -40 273 -158 -31 callgsubr
          hintmask 00110000
          97 651 -107 callgsubr
          hintmask 11001000
          23 -651 rmoveto
          -60 callsubr
        </CharString>
        <CharString name="jecyrillic">
          -343 -175 42 581 20 97 72 hstemhm
          50 92 -67 -31 callgsubr
          hintmask 11110000
          50 601 rmoveto
          -19 27 -17 19 20 26 17 19 20 -26 16 -20 -19 -27 -16 -20 vhcurveto
          hintmask 11101000
          67 -601 rmoveto
          -60 callsubr
        </CharString>
        <CharString name="k">
          -102 14 -21 473 -20 197 95 callsubr
          vstem
          421 -44 callsubr
        </CharString>
        <CharString name="kacyrillic">
          3 -7 42 175 47 callgsubr
          hstem
          74 42 256 42 cntrmask 11100000
          185 210 -49 callsubr
        </CharString>
        <CharString name="kakayahli">
          42 0 42 383 42 hstem
          60 42 82 42 236 42 vstem
          226 hmoveto
          282 vlineto
          92 137 rlineto
          84 hlineto
          -51 callgsubr
          hvcurveto
          -312 -53 vlineto
          -20 -10 -6 -14 -17 10 -5 20 hvcurveto
          95 337 hlineto
          -58 callgsubr
          -108 hlineto
          -75 -110 rlineto
          17 vlineto
          59 -22 40 -58 -74 -12 -35 -71 -20 -70 callgsubr
          20 47 9 17 35 28 10 -22 -36 vhcurveto
          -78 vlineto
          -64 -93 rlineto
          -45 -63 -15 -20 -60 vvcurveto
          -53 vlineto
          124 219 rmoveto
          -177 -82 12 vlineto
          32 3 16 11 17 vhcurveto
          endchar
        </CharString>
        <CharString name="kappa">
          -98 14 -21 475 -20 -48 callsubr
        </CharString>
        <CharString name="kcommaaccent">
          -102 -141 141 -7 22 431 20 157 20 hstemhm
          74 42 81 83 hintmask 00000000
          hintmask 10000100
          244 hmoveto
          -101 callgsubr
          hintmask 01111000
          177 -44 callsubr
        </CharString>
        <CharString name="kgreenlandic">
          -98 -7 67 callgsubr
          -48 callsubr
        </CharString>
        <CharString name="khacyrillic">
          -47 452 20 hstem
          450 8 rmoveto
          6 -3 6 -6 9 vhcurveto
          -170 201 170 203 rlineto
          6 7 3 -5 callsubr
          12 -12 7 -8 -7 -6 -4 -8 -7 vhcurveto
          -165 -197 -166 197 rlineto
          8 -7 -7 4 -7 hhcurveto
          -8 -12 -7 -12 -7 3 -6 6 -7 hvcurveto
          170 -203 -170 -201 rlineto
          -6 -9 -3 -6 -6 vvcurveto
          -12 12 -7 8 7 7 4 8 7 vhcurveto
          166 197 165 -197 rlineto
          -8 7 6 -4 7 hhcurveto
          8 12 7 12 hvcurveto
          endchar
        </CharString>
        <CharString name="khakayahli">
          41 0 42 106 42 60 42 127 70 callgsubr
          189 190 rmoveto
          -124 -66 hlineto
          12 callsubr
          213 vlineto
          -21 callsubr
          hvcurveto
          -87 402 -144 vlineto
          -69 callgsubr
          42 82 vlineto
          20 11 6 14 16 -11 5 callgsubr
          278 164 rmoveto
          -62 -360 62 25 callgsubr
          endchar
        </CharString>
        <CharString name="kjecyrillic">
          3 -7 42 175 47 callgsubr
          41 168 hstem
          74 42 104 145 7 42 vstem
          365 -99 callsubr
          -180 -447 -49 callsubr
        </CharString>
        <CharString name="l">
          -275 0 42 601 -20 hstem
          90 42 vstem
          192 hmoveto
          -73 callsubr
          507 -76 callsubr
          -489 -26 callsubr
          endchar
        </CharString>
        <CharString name="lacute">
          -275 0 42 581 20 61 121 hstemhm
          90 42 -42 122 77 callgsubr
          212 805 rmoveto
          -103 callsubr
          hintmask 11010000
          -20 -805 rmoveto
          -73 callsubr
          507 -76 callsubr
          -489 -26 callsubr
          endchar
        </CharString>
        <CharString name="lakayahli">
          49 -205 42 69 42 52 -35 callgsubr
          hstem
          67 43 callgsubr
          391 hmoveto
          25 hlineto
          20 20 7 5 13 hvcurveto
          -110 vlineto
          -46 -14 -19 -30 callgsubr
          23 46 hvcurveto
          82 hlineto
          20 11 6 14 17 -11 5 -20 hvcurveto
          -124 -35 hlineto
          -93 21 -25 16 callgsubr
          416 vlineto
          112 -34 14 -68 -20 -11 -7 -16 -15 11 -4 20 -51 callgsubr
          vhcurveto
          -248 vlineto
          -46 -14 -18 -46 vhcurveto
          -18 hlineto
          -42 -38 28 36 hvcurveto
          231 vlineto
          95 -60 29 -62 vhcurveto
          -27 hlineto
          -3 callgsubr
          -213 vlineto
          -113 35 -11 67 21 10 5 15 16 -10 6 -21 -12 callsubr
          vhcurveto
          248 -36 callsubr
          20 hlineto
          42 38 -28 -37 hvcurveto
          -230 vlineto
          -95 59 -29 63 vhcurveto
          endchar
        </CharString>
        <CharString name="lambda">
          19 -6 43 557 43 hstem
          26 42 vstem
          404 69 rmoveto
          37 callsubr
          -196 463 33 callsubr
          22 -53 -201 -457 rlineto
          -2 -4 -1 -2 -5 vvcurveto
          -11 9 -7 10 9 8 4 14 6 vhcurveto
          185 415 rlineto
          endchar
        </CharString>
        <CharString name="lcaron">
          -275 0 42 460 141 -20 20 hstemhm
          90 42 70 83 hintmask 00000000
          hintmask 01001000
          249 643 rmoveto
          -101 callgsubr
          hintmask 10110000
          -57 -643 rmoveto
          -73 callsubr
          507 -76 callsubr
          -489 -26 callsubr
          endchar
        </CharString>
        <CharString name="lcommaaccent">
          -274 -205 141 64 42 581 20 hstemhm
          91 42 -29 83 hintmask 00000000
          hintmask 10001000
          151 -64 rmoveto
          -101 callgsubr
          hintmask 01110000
          42 64 rmoveto
          -73 callsubr
          507 -76 callsubr
          -489 -26 callsubr
          endchar
        </CharString>
        <CharString name="less">
          -13 450 116 rmoveto
          8 -6 7 -11 6 vhcurveto
          -338 196 339 194 rlineto
          11 8 5 9 7 vvcurveto
          10 -8 8 -12 -5 -6 -1 -4 -7 vhcurveto
          -363 -210 rlineto
          -12 -7 -4 -7 -7 vvcurveto
          -9 7 -8 9 -6 vhcurveto
          363 -210 rlineto
          -4 8 6 -2 5 hhcurveto
          15 4 18 4 hvcurveto
          endchar
        </CharString>
        <CharString name="lessequal">
          21 0 43 44 43 222 44 hstem
          477 107 rmoveto
          10 -8 9 -13 4 vhcurveto
          -305 111 305 111 rlineto
          14 5 8 9 9 vvcurveto
          10 -9 11 -13 -5 -4 -1 -2 -6 vhcurveto
          -355 -129 rlineto
          -7 -3 -11 -7 -13 vvcurveto
          -13 12 -6 6 -3 vhcurveto
          355 -129 rlineto
          -2 6 5 -1 4 hhcurveto
          17 4 12 8 hvcurveto
          -28 -64 rmoveto
          -355 89 callgsubr
          355 hlineto
          18 11 8 12 15 -11 8 -18 hvcurveto
          endchar
        </CharString>
        <CharString name="ljecyrillic">
          190 -11 callgsubr
          121 42 230 42 212 41 vstem
          435 217 rmoveto
          94 1 callgsubr
          -94 hlineto
          217 vmoveto
          202 -219 46 callsubr
          -231 vlineto
          -46 -14 -18 -46 -20 -11 -6 -14 -17 11 -5 20 59 43 12 112 vhcurveto
          230 -36 callsubr
          170 -419 143 hlineto
          21 callgsubr
          endchar
        </CharString>
        <CharString name="logicalnot">
          -20 209 43 hstem
          393 43 vstem
          436 225 rmoveto
          23 -14 4 -15 vhcurveto
          -298 hlineto
          -18 -8 -8 -13 -14 8 -8 18 hvcurveto
          284 -68 hlineto
          -18 8 -10 12 15 8 10 18 vhcurveto
          endchar
        </CharString>
        <CharString name="lozenge">
          -63 21 -21 hstem
          256 hmoveto
          181 307 rlineto
          3 5 0 1 4 vvcurveto
          6 0 1 -3 5 vhcurveto
          -181 307 rlineto
          -40 hlineto
          -181 -307 rlineto
          -3 -5 0 -1 -6 vvcurveto
          -4 0 -1 3 -5 vhcurveto
          181 -307 rlineto
          20 38 rmoveto
          -162 280 162 280 162 -280 rlineto
          endchar
        </CharString>
        <CharString name="lslash">
          -236 81 callsubr
          121 42 vstem
          223 hmoveto
          -73 callsubr
          229 vlineto
          70 35 40 callgsubr
          -5 -4 -1 -2 -6 vhcurveto
          -55 -27 rlineto
          230 -76 callsubr
          -251 vlineto
          -73 -36 14 callgsubr
          58 29 rlineto
          -191 -26 callsubr
          endchar
        </CharString>
        <CharString name="m">
          277 72 callgsubr
          270 42 271 42 vstem
          251 419 rmoveto
          94 41 -18 callsubr
          hvcurveto
          -263 vlineto
          -20 6 -10 16 15 75 callgsubr
          95 41 -18 callsubr
          vhcurveto
          -263 -8 callgsubr
          263 vlineto
          151 -73 24 -105 -64 -52 -32 -55 -30 vhcurveto
          73 -25 -61 14 -80 hhcurveto
          -66 -31 -23 -49 -38 hvcurveto
          48 -81 callsubr
          -414 vlineto
          -20 6 -10 15 16 75 callgsubr
          vhcurveto
          endchar
        </CharString>
        <CharString name="macron">
          -106 678 43 hstem
          65 300 vstem
          91 678 rmoveto
          -90 callgsubr
          endchar
        </CharString>
        <CharString name="makayahli">
          43 0 42 377 42 85 callsubr
          448 50 rmoveto
          -159 178 -159 -178 rlineto
          -15 9 -6 19 30 vvcurveto
          244 vlineto
          47 14 20 46 vhcurveto
          22 hlineto
          20 11 5 16 15 -11 5 callgsubr
          -29 hlineto
          -74 -21 -32 -92 hvcurveto
          -213 vlineto
          -37 callsubr
          213 vlineto
          92 -21 32 -74 vhcurveto
          -28 hlineto
          -21 -10 -6 -15 -16 10 -5 21 hvcurveto
          21 hlineto
          46 14 -20 -47 hvcurveto
          -244 vlineto
          -29 -6 -19 -15 -10 vhcurveto
          -277 -8 rmoveto
          118 132 118 -132 rlineto
          endchar
        </CharString>
        <CharString name="mu">
          30 0 33 callgsubr
          hstem
          75 42 332 42 vstem
          283 -38 callsubr
        </CharString>
        <CharString name="multiply">
          -44 71 384 rmoveto
          -6 4 -7 7 -7 vhcurveto
          133 -134 -133 -133 49 callgsubr
          135 133 133 -133 47 callsubr
          -133 133 133 134 48 callsubr
          -133 -133 -135 133 80 callsubr
          hvcurveto
          endchar
        </CharString>
        <CharString name="n">
          52 72 callgsubr
          360 42 vstem
          282 419 rmoveto
          -63 callgsubr
          7 callgsubr
          vhcurveto
          -29 hlineto
          -66 -62 -23 -49 -38 hvcurveto
          48 -81 callsubr
          -71 callgsubr
          209 vlineto
          121 60 66 106 vhcurveto
          endchar
        </CharString>
        <CharString name="nacute">
          53 41 callgsubr
          49 168 hstem
          74 42 139 145 76 42 vstem
          400 -99 callsubr
          -118 -238 rmoveto
          -63 callgsubr
          7 callgsubr
          vhcurveto
          -29 hlineto
          -66 -62 -23 -49 -38 hvcurveto
          48 -81 callsubr
          -71 callgsubr
          209 vlineto
          121 60 66 106 vhcurveto
          endchar
        </CharString>
        <CharString name="nakayahli">
          36 79 callsubr
          86 42 121 42 86 70 callgsubr
          65 -81 rmoveto
          -102 35 -22 67 21 10 5 16 15 -10 6 -21 -46 -14 15 46 vhcurveto
          111 vlineto
          -6 13 18 -3 22 hhcurveto
          254 hlineto
          74 21 31 93 hvcurveto
          17 vlineto
          -402 201 rlineto
          12 25 callgsubr
          -21 -69 vlineto
          -21 60 callsubr
          21 hvcurveto
          111 46 hlineto
          -21 callsubr
          hvcurveto
          -20 vlineto
          402 -200 rlineto
          -11 vlineto
          -69 callgsubr
          22 70 vlineto
          20 10 5 17 14 -10 5 callgsubr
          -112 hlineto
          endchar
        </CharString>
        <CharString name="ncaron">
          53 41 callgsubr
          68 134 hstem
          74 42 46 268 46 42 cntrmask 00011100
          322 529 -100 callsubr
          12 -110 rmoveto
          -63 callgsubr
          7 callgsubr
          vhcurveto
          -29 hlineto
          -66 -62 -23 -49 -38 hvcurveto
          48 -81 callsubr
          -71 callgsubr
          209 vlineto
          121 60 66 106 vhcurveto
          endchar
        </CharString>
        <CharString name="ncommaaccent">
          52 -141 141 41 callgsubr
          hstemhm
          74 42 139 83 138 -31 callgsubr
          hintmask 10001000
          302 hmoveto
          -101 callgsubr
          hintmask 01110100
          -20 419 rmoveto
          -63 callgsubr
          7 callgsubr
          vhcurveto
          -29 hlineto
          -66 -62 -23 -49 -38 hvcurveto
          48 -81 callsubr
          -71 callgsubr
          209 vlineto
          121 60 66 106 vhcurveto
          endchar
        </CharString>
        <CharString name="ngakayahli">
          40 0 42 101 42 91 42 101 42 hstemhm
          67 85 callgsubr
          hintmask 00000000
          hintmask 11111100
          388 318 rmoveto
          -21 79 callgsubr
          21 hvcurveto
          hintmask 11111010
          123 61 hlineto
          34 callgsubr
          254 hlineto
          74 21 31 93 hvcurveto
          61 -123 vlineto
          hintmask 11111100
          -21 -10 -6 -14 -17 10 -5 21 hvcurveto
          hintmask 11111010
          81 -37 hlineto
          -69 callgsubr
          248 25 callgsubr
          -36 vlineto
          endchar
        </CharString>
        <CharString name="nine">
          2 -16 43 280 42 245 42 hstem
          42 -38 callgsubr
          vstem
          42 471 rmoveto
          -152 154 -12 83 64 53 10 28 37 vhcurveto
          -226 -44 -158 -92 -88 hhcurveto
          -18 -8 -9 -12 -14 8 -8 18 164 179 191 295 123 -83 43 -124 -72 -165 -13 -152 hvcurveto
          237 123 rmoveto
          111 54 -42 -82 -82 -54 -39 -111 -82 -113 9 113 113 126 10 69 hvcurveto
          endchar
        </CharString>
        <CharString name="ninekayahli">
          49 -15 callgsubr
          73 -38 callgsubr
          vstem
          160 461 rmoveto
          -45 155 hlineto
          34 -33 rlineto
          -10 9 10 -3 6 hhcurveto
          13 6 9 9 6 -3 8 -8 8 hvcurveto
          -63 63 rlineto
          8 -8 -7 4 -8 hhcurveto
          -7 -16 -4 -19 hvcurveto
          -538 vlineto
          -37 callsubr
          214 vlineto
          92 -35 callsubr
          -95 hlineto
          -21 -10 -6 -17 -14 10 -5 21 hvcurveto
          88 hlineto
          -51 callgsubr
          hvcurveto
          -248 vlineto
          -69 callgsubr
          313 45 vlineto
          21 9 4 15 17 -9 6 -21 hvcurveto
          endchar
        </CharString>
        <CharString name="njecyrillic">
          234 0 47 callgsubr
          209 95 callsubr
          321 42 212 41 vstem
          479 217 rmoveto
          94 1 callgsubr
          -94 hlineto
          217 vmoveto
          178 vlineto
          -72 callsubr
          -178 -321 178 -81 callsubr
          -71 callgsubr
          194 321 -217 143 vlineto
          21 callgsubr
          endchar
        </CharString>
        <CharString name="nonmarkingreturn">
          endchar
        </CharString>
        <CharString name="notequal">
          -113 259 43 60 43 hstem
          62 300 vstem
          88 362 rmoveto
          116 hlineto
          -34 -60 rlineto
          -82 hlineto
          -18 -8 -8 -13 -14 8 -8 18 hvcurveto
          57 hlineto
          -44 -75 rlineto
          -3 -6 -2 -6 -5 vvcurveto
          -16 18 -4 4 8 7 5 10 6 vhcurveto
          55 97 rlineto
          139 hlineto
          18 11 8 12 15 -11 8 -18 hvcurveto
          -114 hlineto
          35 60 rlineto
          79 hlineto
          18 11 8 12 15 -11 8 -18 hvcurveto
          -54 hlineto
          42 74 rlineto
          4 6 2 7 6 vvcurveto
          15 -14 4 -6 -9 -8 -6 -11 -6 vhcurveto
          -55 -95 rlineto
          -141 10 callgsubr
        </CharString>
</ttFont>
